<?xml version="1.0" standalone="no"?><!DOCTYPE svg PUBLIC "-//W3C//DTD SVG 1.1//EN" "http://www.w3.org/Graphics/SVG/1.1/DTD/svg11.dtd"><svg t="1670827621096" class="icon" viewBox="0 0 1024 1024" version="1.1" xmlns="http://www.w3.org/2000/svg" p-id="4189" xmlns:xlink="http://www.w3.org/1999/xlink" width="200" height="200"><path d="M931.392 11.264L45.12 530.688c-28.736 16.896-43.52 39.424-45.12 61.248v8.128c2.048 26.112 23.04 49.984 61.632 60.416l171.968 46.592a34.304 34.304 0 0 0 41.28-25.536 35.584 35.584 0 0 0-23.808-43.136L79.68 592l873.408-511.872-95.232 703.488c-1.408 10.432-9.152 15.68-18.752 12.992l-365.632-100.288 296.32-305.856a36.416 36.416 0 0 0 0-50.24 33.728 33.728 0 0 0-48.704 0l-324.8 335.36a110.72 110.72 0 0 0-7.872 9.088 35.52 35.52 0 0 0-16.128 30.784 104 104 0 0 0-5.248 32.64v206.4c0 49.664 53.568 79.168 93.568 51.712l166.272-114.368c10.24-6.976 16-19.136 15.232-31.872a35.712 35.712 0 0 0-19.2-29.504 33.28 33.28 0 0 0-34.24 2.304L435.84 937.856v-178.432l385.472 105.6c49.6 13.632 97.472-19.072 104.576-71.808l97.152-717.568c8.448-60.48-40-94.72-91.648-64.384z" fill="#dbdbdb" p-id="4190"></path></svg>