<?xml version="1.0" standalone="no"?><!DOCTYPE svg PUBLIC "-//W3C//DTD SVG 1.1//EN" "http://www.w3.org/Graphics/SVG/1.1/DTD/svg11.dtd"><svg t="1671117437289" class="icon" viewBox="0 0 1024 1024" version="1.1" xmlns="http://www.w3.org/2000/svg" p-id="9208" xmlns:xlink="http://www.w3.org/1999/xlink" width="200" height="200"><path d="M854.8 870.4H169.2c-19.1 0-37.5-7.5-51-21C104.6 836 97 817.8 97 798.7V314.9c0.1-39.6 32.4-71.7 72.2-71.7h153.4l45.1-71.7c0-9.9 26.1-17.9 36.1-17.9h216.5c9.9 0 36.1 8 36.1 17.9l45.1 71.7h153.3c39.8-0.1 72.1 32 72.2 71.7v483.9c-0.1 39.6-32.4 71.7-72.2 71.6zM512 314.9c-129.6 0-234.6 104.3-234.6 233s105 232.9 234.6 232.9 234.6-104.3 234.6-232.9c0-128.7-105-233-234.6-233z m0 394.2c-89.7 0-162.4-72.2-162.4-161.3 0-89.1 72.7-161.3 162.4-161.3s162.4 72.2 162.4 161.3c0 89.1-72.7 161.3-162.4 161.3z m0 0" p-id="9209" fill="#dbdbdb"></path></svg>