<?xml version="1.0" standalone="no"?><!DOCTYPE svg PUBLIC "-//W3C//DTD SVG 1.1//EN" "http://www.w3.org/Graphics/SVG/1.1/DTD/svg11.dtd"><svg t="1671099323908" class="icon" viewBox="0 0 1024 1024" version="1.1" xmlns="http://www.w3.org/2000/svg" p-id="7827" xmlns:xlink="http://www.w3.org/1999/xlink" width="200" height="200"><path d="M923.056 64h-637.6a36.944 36.944 0 1 0 0 73.888h600.656v580.704a36.944 36.944 0 0 0 73.888 0V100.944A36.576 36.576 0 0 0 923.056 64z" fill="#dbdbdb" p-id="7828"></path><path d="M807.248 179.072H100.944A36.576 36.576 0 0 0 64 216.016v706.304a25.136 25.136 0 0 0 0.736 7.392c0 0.736 0.736 2.224 0.736 2.96 0.736 1.472 0.736 2.224 1.472 3.696s1.472 2.224 2.224 3.696c0.736 0.736 0.736 2.224 1.472 2.96a45.776 45.776 0 0 0 10.336 10.336c0.736 0.736 2.224 0.736 2.96 1.472 1.472 0.736 2.224 1.472 3.696 2.224s2.224 0.736 3.696 1.472c0.736 0 2.224 0.736 2.96 0.736a25.136 25.136 0 0 0 7.392 0.736H808a36.576 36.576 0 0 0 36.928-36.928V216.016a38.704 38.704 0 0 0-37.68-36.944z m-36.944 73.888v176.576l-276.32 276.32-88.656-88.656a37.632 37.632 0 0 0-25.856-11.088 34.656 34.656 0 0 0-25.856 11.088L137.888 832.928V252.96zM189.6 886.112l189.872-189.872 88.656 88.656a36.576 36.576 0 0 0 52.464 0l249.728-249.728v350.944z" fill="#dbdbdb" p-id="7829"></path><path d="M301.472 554.352a99.744 99.744 0 1 0-99.744-99.744 99.792 99.792 0 0 0 99.744 99.744z m0-141.12a40.64 40.64 0 1 1-40.64 40.64 40.992 40.992 0 0 1 40.64-40.64z" fill="#dbdbdb" p-id="7830"></path></svg>