<?xml version="1.0" standalone="no"?><!DOCTYPE svg PUBLIC "-//W3C//DTD SVG 1.1//EN" "http://www.w3.org/Graphics/SVG/1.1/DTD/svg11.dtd"><svg t="1672756899371" class="icon" viewBox="0 0 1024 1024" version="1.1" xmlns="http://www.w3.org/2000/svg" p-id="2526" xmlns:xlink="http://www.w3.org/1999/xlink" width="200" height="200"><path d="M482.283364 1024H162.112276A141.726506 141.726506 0 0 1 20.543697 882.431421V141.568579A141.726506 141.726506 0 0 1 162.112276 0h640.355337a141.726506 141.726506 0 0 1 141.568579 141.568579v328.751799a23.031051 23.031051 0 0 1-46.062102 0v-328.751799A95.611762 95.611762 0 0 0 802.467613 46.062102H162.112276A95.611762 95.611762 0 0 0 66.605799 141.568579v740.862842a95.611762 95.611762 0 0 0 95.506477 95.506477h320.171088a23.031051 23.031051 0 0 1 0 46.062102z" p-id="2527"></path><path d="M773.619576 264.370142H196.895743a23.031051 23.031051 0 0 1 0-46.062102h576.736994a23.031051 23.031051 0 0 1 0 46.062102zM768.44746 455.554185H191.723627a23.031051 23.031051 0 1 1 0-46.062102H768.460621a23.031051 23.031051 0 0 1 0 46.062102zM512.973884 634.183015H193.421345a23.031051 23.031051 0 0 1 0-46.062102h319.526218a23.031051 23.031051 0 0 1 0 46.062102zM418.836109 819.089451h-223.730207a23.031051 23.031051 0 1 1 0-46.062102h223.730207a23.031051 23.031051 0 0 1 0 46.062102zM788.846391 738.336007a107.522106 107.522106 0 1 1 107.522106-107.522106 107.640551 107.640551 0 0 1-107.522106 107.522106z m0-168.96895a61.460004 61.460004 0 1 0 61.460004 61.460004 61.525807 61.525807 0 0 0-61.460004-61.460004zM940.943451 1004.259099h-299.535267a62.578655 62.578655 0 0 1-62.512852-62.512852v-14.924121a62.578655 62.578655 0 0 1 62.512852-62.512852h299.535267a62.578655 62.578655 0 0 1 62.512852 62.512852v14.924121a62.578655 62.578655 0 0 1-62.512852 62.512852z m-299.535267-93.887723a16.463911 16.463911 0 0 0-16.45075 16.45075v14.924121a16.463911 16.463911 0 0 0 16.45075 16.450751h299.535267a16.463911 16.463911 0 0 0 16.45075-16.450751v-14.924121a16.463911 16.463911 0 0 0-16.45075-16.45075z" p-id="2528"></path><path d="M651.791898 894.23648a23.031051 23.031051 0 0 1-19.977791-34.467613l93.887723-164.310097a23.033683 23.033683 0 0 1 39.995065 22.859963l-93.887724 164.310097a23.01789 23.01789 0 0 1-20.017273 11.60765zM921.768456 894.23648a23.01789 23.01789 0 0 1-20.017274-11.60765l-93.887723-164.310097a23.033683 23.033683 0 0 1 39.995065-22.859963l93.887723 164.310097a23.031051 23.031051 0 0 1-19.977791 34.467613z" p-id="2529"></path></svg>