<?xml version="1.0" standalone="no"?><!DOCTYPE svg PUBLIC "-//W3C//DTD SVG 1.1//EN" "http://www.w3.org/Graphics/SVG/1.1/DTD/svg11.dtd"><svg t="1685419567823" class="icon" viewBox="0 0 1024 1024" version="1.1" xmlns="http://www.w3.org/2000/svg" p-id="27260" xmlns:xlink="http://www.w3.org/1999/xlink" width="200" height="200"><path d="M720.709632 374.319104c0 16.965632-13.754368 30.72-30.72 30.72l-348.16 0c-16.965632 0-30.72-13.754368-30.72-30.72l0 0c0-16.965632 13.754368-30.72 30.72-30.72l348.16 0C706.956288 343.599104 720.709632 357.353472 720.709632 374.319104L720.709632 374.319104z" fill="#231815" p-id="27261"></path><path d="M718.661632 514.607104c0 16.965632-13.754368 30.72-30.72 30.72l-348.16 0c-16.965632 0-30.72-13.754368-30.72-30.72l0 0c0-16.965632 13.754368-30.72 30.72-30.72l348.16 0C704.908288 483.887104 718.661632 497.641472 718.661632 514.607104L718.661632 514.607104z" fill="#231815" p-id="27262"></path><path d="M722.85184 654.895104c0 16.965632-13.754368 30.72-30.72 30.72l-348.16 0c-16.965632 0-30.72-13.754368-30.72-30.72l0 0c0-16.965632 13.754368-30.72 30.72-30.72l348.16 0C709.098496 624.175104 722.85184 637.929472 722.85184 654.895104L722.85184 654.895104z" fill="#231815" p-id="27263"></path><path d="M857.772032 235.984896c-0.30208-14.989312-12.539904-27.049984-27.60192-27.049984s-27.297792 12.060672-27.60192 27.049984l-0.077824 0 0 580.901888c0 28.442624-23.058432 51.501056-51.50208 51.501056L280.925184 868.38784c-28.442624 0-51.501056-23.058432-51.501056-51.501056L229.424128 212.3264c0-28.442624 23.058432-51.501056 51.501056-51.501056l423.26016 0 0-0.217088c0.526336 0.023552 1.055744 0.039936 1.588224 0.039936 18.803712 0 34.048-15.244288 34.048-34.049024 0-18.803712-15.244288-34.048-34.048-34.048-0.53248 0-1.061888 0.016384-1.588224 0.039936l0-0.039936L235.568128 92.551168c-33.932288 0-61.44 27.507712-61.44 61.44l0 721.230848c0 33.932288 27.507712 61.44 61.44 61.44l560.777216 0c33.932288 0 61.44-27.507712 61.44-61.44L857.785344 235.984896 857.772032 235.984896z" fill="#231815" p-id="27264"></path></svg>