<?xml version="1.0" standalone="no"?><!DOCTYPE svg PUBLIC "-//W3C//DTD SVG 1.1//EN" "http://www.w3.org/Graphics/SVG/1.1/DTD/svg11.dtd"><svg t="1670089307072" class="icon" viewBox="0 0 1024 1024" version="1.1" xmlns="http://www.w3.org/2000/svg" p-id="49300" xmlns:xlink="http://www.w3.org/1999/xlink" width="200" height="200"><path d="M787.2 1017.6c-128 0-230.4-102.4-230.4-230.4s102.4-230.4 230.4-230.4 230.4 102.4 230.4 230.4-102.4 230.4-230.4 230.4z m0-384c-83.2 0-153.6 70.4-153.6 153.6s70.4 153.6 153.6 153.6 153.6-70.4 153.6-153.6-64-153.6-153.6-153.6z m-665.6 384c-64 0-115.2-51.2-115.2-115.2v-230.4c0-64 51.2-115.2 115.2-115.2h230.4c64 0 115.2 51.2 115.2 115.2v230.4c0 64-51.2 115.2-115.2 115.2H121.6z m0-384c-19.2 0-38.4 19.2-38.4 38.4v230.4c0 19.2 19.2 38.4 38.4 38.4h230.4c19.2 0 38.4-19.2 38.4-38.4v-230.4c0-19.2-19.2-38.4-38.4-38.4H121.6z m550.4-166.4c-64 0-115.2-51.2-115.2-115.2V121.6c0-64 51.2-115.2 115.2-115.2h230.4c64 0 115.2 51.2 115.2 115.2v230.4c0 64-51.2 115.2-115.2 115.2h-230.4z m0-384c-19.2 0-38.4 19.2-38.4 38.4v230.4c0 19.2 19.2 38.4 38.4 38.4h230.4c19.2 0 38.4-19.2 38.4-38.4V121.6c0-19.2-19.2-38.4-38.4-38.4h-230.4z m-550.4 384C57.6 467.2 6.4 416 6.4 352V121.6C6.4 57.6 57.6 6.4 121.6 6.4h230.4c64 0 115.2 51.2 115.2 115.2v230.4c0 64-51.2 115.2-115.2 115.2H121.6z m0-384c-19.2 0-38.4 19.2-38.4 38.4v230.4c0 19.2 19.2 38.4 38.4 38.4h230.4c19.2 0 38.4-19.2 38.4-38.4V121.6c0-19.2-19.2-38.4-38.4-38.4H121.6z" p-id="49301" fill="#bfbfbf"></path></svg>