<?xml version="1.0" standalone="no"?><!DOCTYPE svg PUBLIC "-//W3C//DTD SVG 1.1//EN" "http://www.w3.org/Graphics/SVG/1.1/DTD/svg11.dtd"><svg t="1672756819011" class="icon" viewBox="0 0 1024 1024" version="1.1" xmlns="http://www.w3.org/2000/svg" p-id="3123" xmlns:xlink="http://www.w3.org/1999/xlink" width="200" height="200"><path d="M512 938.666667h384c23.573333 0 42.666667-19.029333 42.666667-42.602667V298.602667A42.581333 42.581333 0 0 0 896 256v576a42.666667 42.666667 0 0 1-85.333333 0V127.936A42.602667 42.602667 0 0 0 768 85.333333H128c-23.637333 0-42.666667 19.072-42.666667 42.602667v768.128C85.333333 919.637333 104.426667 938.666667 128 938.666667h384z m0 85.333333H106.752A106.666667 106.666667 0 0 1 0 917.312V106.688A106.752 106.752 0 0 1 106.752 0h682.496A106.666667 106.666667 0 0 1 896 106.688V170.666667h21.248A106.752 106.752 0 0 1 1024 277.354667v639.957333A106.666667 106.666667 0 0 1 917.248 1024H512zM149.333333 256c0-23.573333 19.136-42.666667 42.794667-42.666667h213.077333c23.637333 0 42.794667 18.944 42.794667 42.666667 0 23.573333-19.136 42.666667-42.794667 42.666667H192.128A42.624 42.624 0 0 1 149.333333 256z m0 256c0-23.573333 19.2-42.666667 42.474667-42.666667H704.213333c23.466667 0 42.474667 18.944 42.474667 42.666667 0 23.573333-19.2 42.666667-42.474667 42.666667H191.786667A42.453333 42.453333 0 0 1 149.333333 512z m0 149.333333c0-23.573333 19.2-42.666667 42.474667-42.666666H704.213333c23.466667 0 42.474667 18.944 42.474667 42.666666 0 23.573333-19.2 42.666667-42.474667 42.666667H191.786667A42.453333 42.453333 0 0 1 149.333333 661.333333z m0 149.333334c0-23.573333 19.2-42.666667 42.474667-42.666667H704.213333c23.466667 0 42.474667 18.944 42.474667 42.666667 0 23.573333-19.2 42.666667-42.474667 42.666666H191.786667A42.453333 42.453333 0 0 1 149.333333 810.666667z" fill="#95969A" p-id="3124"></path></svg>