<?xml version="1.0" standalone="no"?><!DOCTYPE svg PUBLIC "-//W3C//DTD SVG 1.1//EN" "http://www.w3.org/Graphics/SVG/1.1/DTD/svg11.dtd"><svg t="1675708750477" class="icon" viewBox="0 0 1024 1024" version="1.1" xmlns="http://www.w3.org/2000/svg" p-id="2779" xmlns:xlink="http://www.w3.org/1999/xlink" width="200" height="200"><path d="M833.348 275H190.652c-8.287 0-16.078 3.227-21.937 9.086s-9.086 13.65-9.086 21.937v411.953c0 8.287 3.227 16.077 9.086 21.937 5.859 5.86 13.65 9.087 21.937 9.087h160.441c7.615 0 14.773 2.966 20.157 8.351 5.381 5.38 8.347 12.538 8.347 20.153v82.664l175.886-71.604V678.162c0-9.928 3.866-19.261 10.888-26.279 7.017-7.017 16.35-10.883 26.275-10.883h216.179c9.928 0 19.261 3.866 26.28 10.887 7.017 7.018 10.882 16.35 10.882 26.275v68.155a31.01 31.01 0 0 0 9.298-6.404c5.86-5.859 9.087-13.649 9.087-21.937V306.023c0-8.287-3.227-16.078-9.087-21.937-5.86-5.859-13.65-9.086-21.937-9.086zM351.7 557.369a22.686 22.686 0 0 1-6.682 16.14c-4.318 4.319-10.053 6.694-16.152 6.694h-27.33c-6.1 0-11.833-2.375-16.146-6.688-4.315-4.319-6.688-10.051-6.688-16.146v-58.738a22.686 22.686 0 0 1 6.682-16.14c4.319-4.319 10.053-6.694 16.152-6.694h27.33a22.68 22.68 0 0 1 16.146 6.688c4.315 4.318 6.688 10.05 6.688 16.146v58.738z m196.799 0c0 6.106-2.38 11.845-6.7 16.158-4.289 4.296-10.027 6.676-16.134 6.676h-27.33a22.682 22.682 0 0 1-16.158-6.7c-4.296-4.289-6.676-10.027-6.676-16.134v-58.738a22.684 22.684 0 0 1 6.688-16.146 22.684 22.684 0 0 1 16.146-6.688h27.33c6.1 0 11.833 2.375 16.146 6.688a22.684 22.684 0 0 1 6.688 16.146v58.738z m189.998-0.136c0 6.106-2.38 11.845-6.7 16.158-4.289 4.296-10.027 6.676-16.134 6.676h-27.33a22.682 22.682 0 0 1-16.158-6.7c-4.296-4.289-6.676-10.027-6.676-16.134v-58.738a22.684 22.684 0 0 1 6.688-16.146 22.684 22.684 0 0 1 16.146-6.688h27.33c6.1 0 11.833 2.375 16.146 6.688a22.684 22.684 0 0 1 6.688 16.146v58.738z" fill="#FFFFFF" p-id="2780"></path><path d="M883.569 255.802C870.154 242.388 852.319 235 833.348 235H190.652c-18.971 0-36.807 7.388-50.221 20.802s-20.802 31.25-20.802 50.221v411.953c0 18.971 7.388 36.807 20.802 50.222C153.845 781.612 171.681 789 190.652 789h148.945v88.261a28.467 28.467 0 0 0 12.599 23.654 28.385 28.385 0 0 0 15.897 4.851c3.706 0 7.326-0.708 10.755-2.105l179.329-73.005a37.12 37.12 0 0 0 8.192 12.354c7.02 7.018 16.352 10.882 26.276 10.882h36.827v16.415a22.826 22.826 0 0 0 10.102 18.969 22.774 22.774 0 0 0 12.757 3.892c2.967 0 5.865-0.566 8.621-1.688l92.329-37.588h55.543c9.927 0 19.259-3.865 26.28-10.887 7.017-7.019 10.882-16.351 10.882-26.275v-28.863c14.159-2.529 27.198-9.283 37.582-19.667 13.415-13.415 20.803-31.25 20.803-50.222V306.023c0-18.971-7.388-36.806-20.802-50.221z m-19.198 462.175c0 8.287-3.227 16.077-9.087 21.937a30.992 30.992 0 0 1-9.298 6.404v-68.155c0-9.926-3.865-19.258-10.882-26.275-7.02-7.021-16.353-10.887-26.28-10.887H592.646c-9.926 0-19.259 3.866-26.275 10.883-7.021 7.019-10.888 16.352-10.888 26.279v110.402l-175.886 71.604v-82.664c0-7.615-2.965-14.773-8.347-20.153-5.384-5.385-12.542-8.351-20.157-8.351H190.652c-8.287 0-16.078-3.227-21.937-9.087-5.859-5.859-9.086-13.649-9.086-21.937V306.023c0-8.287 3.227-16.078 9.086-21.937S182.365 275 190.652 275h642.696c8.287 0 16.077 3.227 21.937 9.086 5.86 5.859 9.087 13.65 9.087 21.937v411.954z m-114.444 95.914a22.898 22.898 0 0 0-8.62 1.688l-71.834 29.244v-8.071a22.71 22.71 0 0 0-6.694-16.163 22.711 22.711 0 0 0-16.167-6.697h-51.129V681h210.504v132.891h-56.06z" fill="" p-id="2781"></path><path d="M328.866 475.797h-27.33c-6.1 0-11.833 2.375-16.152 6.694a22.688 22.688 0 0 0-6.682 16.14v58.738c0 6.096 2.373 11.827 6.688 16.146a22.684 22.684 0 0 0 16.146 6.688h27.33c6.1 0 11.834-2.375 16.152-6.694a22.686 22.686 0 0 0 6.682-16.14v-58.738c0-6.096-2.373-11.828-6.688-16.146a22.682 22.682 0 0 0-16.146-6.688zM525.665 475.797h-27.33a22.684 22.684 0 0 0-16.146 6.688 22.684 22.684 0 0 0-6.688 16.146v58.738c0 6.106 2.379 11.845 6.676 16.134a22.682 22.682 0 0 0 16.158 6.7h27.33c6.106 0 11.845-2.38 16.134-6.676a22.682 22.682 0 0 0 6.7-16.158v-58.738a22.684 22.684 0 0 0-6.688-16.146 22.682 22.682 0 0 0-16.146-6.688zM715.663 475.661h-27.33c-6.1 0-11.833 2.375-16.146 6.688a22.684 22.684 0 0 0-6.688 16.146v58.738c0 6.106 2.38 11.845 6.676 16.134a22.682 22.682 0 0 0 16.158 6.7h27.33c6.106 0 11.845-2.38 16.134-6.676a22.682 22.682 0 0 0 6.7-16.158v-58.738a22.684 22.684 0 0 0-6.688-16.146 22.682 22.682 0 0 0-16.146-6.688z" fill="" p-id="2782"></path><path d="M805.986 681H595.482v132.891h51.129a22.711 22.711 0 0 1 16.167 6.697 22.71 22.71 0 0 1 6.694 16.163v8.071l71.834-29.244a22.921 22.921 0 0 1 8.62-1.688h56.06V681z m-199.652 34.506c0-6.456 2.515-12.526 7.08-17.093a24.02 24.02 0 0 1 17.093-7.08h29.075c5.522 0 10 4.478 10 10s-4.478 10-10 10h-29.075c-0.646 0-1.887 0.159-2.95 1.223s-1.223 2.305-1.223 2.95v14.16c0 5.522-4.478 10-10 10s-10-4.478-10-10v-14.16z m0 41.827v-4.001c0-5.522 4.478-10 10-10s10 4.478 10 10v4.001c0 5.522-4.478 10-10 10s-10-4.478-10-10z" fill="#FFFFFF" p-id="2783"></path><path d="M616.334 739.666c5.522 0 10-4.478 10-10v-14.16c0-0.646 0.159-1.887 1.223-2.95s2.305-1.223 2.95-1.223h29.075c5.522 0 10-4.478 10-10s-4.478-10-10-10h-29.075c-6.456 0-12.526 2.515-17.093 7.08a24.02 24.02 0 0 0-7.08 17.093v14.16c0 5.522 4.478 10 10 10zM626.334 757.333v-4.001c0-5.522-4.478-10-10-10s-10 4.478-10 10v4.001c0 5.522 4.478 10 10 10s10-4.478 10-10z" fill="" p-id="2784"></path></svg>