<?xml version="1.0" standalone="no"?><!DOCTYPE svg PUBLIC "-//W3C//DTD SVG 1.1//EN" "http://www.w3.org/Graphics/SVG/1.1/DTD/svg11.dtd"><svg t="1670088617677" class="icon" viewBox="0 0 1024 1024" version="1.1" xmlns="http://www.w3.org/2000/svg" p-id="42699" xmlns:xlink="http://www.w3.org/1999/xlink" width="200" height="200"><path d="M560 190.08m0 48l0 288q0 48-48 48l0 0q-48 0-48-48l0-288q0-48 48-48l0 0q48 0 48 48Z" p-id="42700" fill="#bfbfbf"></path><path d="M336 321.92m0 48l0 160q0 48-48 48l0 0q-48 0-48-48l0-160q0-48 48-48l0 0q48 0 48 48Z" p-id="42701" fill="#bfbfbf"></path><path d="M784 385.92m0 48l0 96q0 48-48 48l0 0q-48 0-48-48l0-96q0-48 48-48l0 0q48 0 48 48Z" p-id="42702" fill="#bfbfbf"></path><path d="M896 768H128a128 128 0 0 1-128-128V128a128 128 0 0 1 128-128h768a128 128 0 0 1 128 128v512a128 128 0 0 1-128 128zM157.44 92.8a64 64 0 0 0-64 64v454.4a64 64 0 0 0 64 64h709.12a64 64 0 0 0 64-64v-454.4a64 64 0 0 0-64-64zM320 928h384a64 64 0 0 1 64 64v32H256v-32a64 64 0 0 1 64-64z" p-id="42703" fill="#bfbfbf"></path><path d="M464 976V768h96v208A48 48 0 0 1 512 1024a48 48 0 0 1-48-48z" p-id="42704" fill="#bfbfbf"></path></svg>