<?xml version="1.0" standalone="no"?><!DOCTYPE svg PUBLIC "-//W3C//DTD SVG 1.1//EN" "http://www.w3.org/Graphics/SVG/1.1/DTD/svg11.dtd"><svg t="1670087859620" class="icon" viewBox="0 0 1024 1024" version="1.1" xmlns="http://www.w3.org/2000/svg" p-id="36968" xmlns:xlink="http://www.w3.org/1999/xlink" width="200" height="200"><path d="M371.2 486.4s6.4 6.4 0 0c6.4 6.4 6.4 6.4 0 0zM652.8 377.6s0-6.4 0 0c0-6.4 0-6.4 0 0 0-6.4 0-6.4 0 0zM928 966.4c-32 0-57.6-25.6-57.6-57.6v-57.6c6.4 0 19.2-6.4 38.4-19.2 19.2-19.2 19.2-32 19.2-38.4V76.8c0-25.6-12.8-44.8-25.6-51.2-6.4-12.8-25.6-25.6-51.2-25.6h-672C115.2 0 64 51.2 64 115.2v787.2c0 64 51.2 115.2 115.2 115.2H928c19.2 0 32-12.8 32-32s-12.8-19.2-32-19.2z m-734.4-16.8c-30.4 0-55.2-13.6-55.2-44v-5.6c0-46.4 18.4-46.4 30.4-46.4H792v52c0 17.6 6.4 26.4 12 44H193.6z m660-184.8l-12 12h-672c-12 0-24.8 0-30.4 6.4V129.6c0-30.4 24.8-55.2 55.2-55.2h641.6c6.4 0 18.4 12 18.4 18.4l-0.8 672z" p-id="36969" fill="#bfbfbf"></path><path d="M498.4 342.4c-48 0-86.4 38.4-86.4 86.4s38.4 86.4 86.4 86.4c47.2-0.8 86.4-39.2 87.2-86.4-0.8-48-39.2-86.4-87.2-86.4z m-0.8 116c-16.8 0-29.6-12.8-30.4-29.6v-0.8c0-16.8 13.6-30.4 30.4-30.4 16.8 0 30.4 13.6 30.4 29.6 0 17.6-13.6 31.2-30.4 31.2z" p-id="36970" fill="#bfbfbf"></path><path d="M682.4 416l44-53.6-4.8-12-4.8-12c-4-8.8-7.2-17.6-11.2-23.2-5.6-12-12.8-23.2-22.4-32.8l-8.8-8.8-68 9.6c-10.4 0.8-20-4.8-24-14.4L560 206.4l-12.8-1.6c-33.6-7.2-68-7.2-101.6 0l-12 1.6-24 64c-4 8-12.8 13.6-21.6 13.6h-1.6l-64-12-8.8 8.8c-18.4 20.8-32 45.6-41.6 72l-4.8 11.2 44 52.8c5.6 7.2 5.6 16.8 0 24l-46.4 51.2 4.8 11.2c4 14.4 10.4 28.8 18.4 41.6 5.6 11.2 12.8 21.6 21.6 31.2l8.8 8.8 69.6-11.2c8.8-0.8 17.6 4 21.6 12.8l22.4 64 12.8 2.4c34.4 7.2 69.6 7.2 103.2 0l11.2-2.4 24-65.6c3.2-8.8 12-13.6 21.6-12.8l68 11.2 8.8-8.8c17.6-20.8 31.2-44.8 40-70.4l4.8-12-44-50.4c-5.6-7.2-5.6-18.4 0-25.6z m-44 108.8l-36.8-5.6c-27.2-4-53.6 11.2-63.2 37.6l-13.6 36.8c-17.6 2.4-35.2 2.4-52 0l-12-35.2c-9.6-25.6-35.2-42.4-63.2-39.2l-40.8 6.4c-4-4-6.4-8.8-8.8-13.6-4-6.4-7.2-12.8-9.6-19.2l25.6-29.6c16.8-21.6 16.8-52 0-72.8L338.4 360c5.6-11.2 12-22.4 19.2-32l36.8 5.6c28 4.8 54.4-11.2 64.8-37.6l13.6-35.2c16.8-2.4 33.6-2.4 50.4 0l12 33.6c9.6 26.4 35.2 42.4 63.2 39.2l39.2-4.8c3.2 4.8 6.4 9.6 9.6 15.2 4 5.6 6.4 11.2 8.8 16l0.8 1.6-24.8 29.6c-16.8 21.6-16 52 1.6 72.8l24 28c-5.6 12-12 22.4-19.2 32.8z" p-id="36971" fill="#bfbfbf"></path></svg>