<?xml version="1.0" standalone="no"?><!DOCTYPE svg PUBLIC "-//W3C//DTD SVG 1.1//EN" "http://www.w3.org/Graphics/SVG/1.1/DTD/svg11.dtd"><svg t="1670080860803" class="icon" viewBox="0 0 1049 1024" version="1.1" xmlns="http://www.w3.org/2000/svg" p-id="2923" xmlns:xlink="http://www.w3.org/1999/xlink" width="204.8828125" height="200"><path d="M247.36 246.528L176.704 175.872l46.336-46.4 85.76 85.76C375.296 186.496 447.296 172.16 524.672 172.16c217.216 0 392.128 112.96 524.672 338.752-59.52 103.04-128.32 182.528-206.272 238.528l98.624 98.624-46.4 46.4-109.12-109.184a531.2 531.2 0 0 1-1.024 0.512l-126.272-126.208 0.832-0.768-70.016-69.952a99.968 99.968 0 0 1-0.768 0.64l-140.8-140.736 0.64-0.832-71.552-71.616a202.752 202.752 0 0 0-0.64 0.832L246.336 247.104l0.96-0.576z m451.584 358.848c14.4-28.16 22.464-60.288 22.464-94.4C721.408 398.72 633.344 307.84 524.672 307.84c-35.264 0-68.352 9.6-96.96 26.368l78.528 78.528c6.016-1.28 12.288-1.856 18.688-1.856 54.272 0 98.368 45.44 98.368 101.632 0 5.44-0.448 10.816-1.28 16l76.928 76.928zM191.296 284.8l150.656 150.72a208.64 208.64 0 0 0-14.08 75.52c0 112.256 88.128 203.264 196.8 203.264 28.16 0 54.848-6.08 79.04-17.024l117.888 117.824A551.04 551.04 0 0 1 524.672 849.792c-219.136 0-394.048-112.96-524.672-338.816C56.128 415.36 119.936 339.904 191.232 284.8z m329.216 329.216L426.816 520.32c3.776 51.008 43.904 91.52 93.696 93.696z" fill="#8a8a8a" p-id="2924"></path></svg>