<svg t="1767119360940" class="icon" viewBox="0 0 1024 1024" version="1.1" xmlns="http://www.w3.org/2000/svg" p-id="111718" width="200" height="200"><path d="M841 99.7H185.6c-48.1 0-87.1 39-87.1 87.1v654.5c0 48.1 39 87.1 87.1 87.1H841c48.1 0 87.1-39 87.1-87.1V186.8c0-48.1-39-87.1-87.1-87.1zM249.4 256h531.4c14.9 0 34.3 13 34.3 32.1 0 21.9-19.4 32.1-34.3 32.1H249.4c-14.9 0-34.5-10.5-34.5-32.1 0-19.1 19.6-32.1 34.5-32.1z m-35.2 225.4c-1.1-23.4 20.2-33.2 33.8-33.2h343.1c13.5 0 31 6.6 31 33.2 0 26.8-18.2 33.2-31.8 33.2H245.6c-13.6 0-30.6-16.8-31.4-33.2z m587.9 26.1L496.6 815.1c-3.3 3.3-7.6 5.5-12.3 6.2l-54.1 7.7c-9.4 1.3-17.4-7-15.6-16.3l12.6-65.6 308-306.4c18.5-18.5 48.5-18.5 67 0 18.4 18.3 18.4 48.3-0.1 66.8z" p-id="111719"></path></svg>
