<svg t="1783695746848" class="icon" viewBox="0 0 1024 1024" version="1.1" xmlns="http://www.w3.org/2000/svg" p-id="116502" width="200" height="200"><path d="M153.6 290.133c0 112.64 92.16 204.8 204.8 204.8s204.8-92.16 204.8-204.8-92.16-204.8-204.8-204.8-204.8 92.16-204.8 204.8zM641.707 563.2c-10.24 0-17.067 10.24-13.654 20.48v3.413c37.547 30.72 68.267 64.854 92.16 105.814H860.16c27.307 0 54.613 6.826 78.507 20.48-61.44-92.16-163.84-150.187-283.307-150.187h-13.653z m-51.2-416.427c27.306 44.374 40.96 92.16 40.96 143.36s-13.654 98.987-40.96 143.36c-10.24 13.654-6.827 37.547 6.826 47.787 3.414 3.413 10.24 6.827 17.067 6.827 0 0 27.307 3.413 40.96 3.413 112.64 0 204.8-92.16 204.8-204.8S768 81.92 655.36 81.92c-13.653 0-40.96 3.413-40.96 3.413-17.067 3.414-34.133 17.067-30.72 37.547 0 10.24 3.413 17.067 6.827 23.893zM256 860.16c0-92.16 75.093-163.84 163.84-163.84h71.68c27.307 0 51.2 17.067 61.44 40.96 23.893-20.48 51.2-34.133 81.92-37.547-61.44-81.92-160.427-133.12-269.653-133.12-187.734 0-341.334 153.6-341.334 341.334 0 10.24 0 23.893 3.414 34.133H276.48C262.827 914.773 256 887.467 256 860.16z" fill="#1296DB" p-id="116503"></path><path d="M614.4 989.867H419.84c-71.68 0-129.707-58.027-129.707-129.707 0-71.68 58.027-129.707 129.707-129.707h71.68c20.48 0 34.133 13.654 34.133 34.134S512 798.72 491.52 798.72h-71.68c-34.133 0-61.44 27.307-61.44 61.44s27.307 61.44 61.44 61.44H614.4c34.133 0 61.44-27.307 61.44-61.44 0-20.48 13.653-34.133 34.133-34.133s34.134 13.653 34.134 34.133c3.413 71.68-54.614 129.707-129.707 129.707z" fill="#1296DB" p-id="116504"></path><path d="M860.16 989.867h-75.093c-20.48 0-34.134-13.654-34.134-34.134s13.654-34.133 34.134-34.133h71.68c34.133 0 61.44-27.307 61.44-61.44s-27.307-61.44-61.44-61.44h-194.56c-34.134 0-61.44 27.307-61.44 61.44 0 20.48-13.654 34.133-34.134 34.133S532.48 880.64 532.48 860.16c0-71.68 58.027-129.707 129.707-129.707h194.56c71.68 0 129.706 58.027 129.706 129.707 3.414 71.68-54.613 129.707-126.293 129.707z" fill="#1296DB" p-id="116505"></path></svg>
