<svg t="1767196680934" class="icon" viewBox="0 0 1024 1024" version="1.1" xmlns="http://www.w3.org/2000/svg" p-id="182392" width="200" height="200"><path d="M910.8 422.9v7H624c-71-1.4-128.5 56.2-128.4 127.3v28.2h-342c-32.2 12.9-58.3-13.3-58.3-45.5v-117c0-32.2 26.1-58.4 58.3-55.2h699c32.1-3.2 58.1 22.9 58.1 55 0.1 0.1 0.1 0.1 0.1 0.2zM153.6 647.5h345.9v233.2H153.6c-32.2 9.7-58.3-16.5-58.3-48.7V715.1c0-32.2 26.1-58.4 58.3-67.6z m0-575.2h699c32.1 0.1 58.1 26.1 58.1 58.3V247.9c0 32.1-26 58.2-58.1 57.7h-699c-32.2 0.5-58.3-25.6-58.3-57.9v-117c0-32.2 26.1-58.4 58.3-58.4z m116.5 58.4H153.6v116.9h116.5V130.7z m0 292.3H153.6v116.9h116.5V423z m0 292.3H153.6v116.9h116.5V715.3z m657.7-161.5h0.3v15.5c-18.2 42.5-96.2 74.4-189.7 74.4s-171.2-31.8-189.7-74.1v-7.8c-0.2-1.6-0.3-3.2-0.3-4.8 0-50 85-90.6 189.7-90.6 102.6 0 186.1 38.9 189.7 87.4zM738.4 683.2c93.4 0 171.5-32 189.7-74.4v59.6c-18 42.6-96.2 74.6-189.8 74.6-93 0-170.7-31.6-189.5-73.7v-60.2c18.4 42.3 96.3 74.1 189.6 74.1z m-0.2 99.2c93.6 0.1 171.8-31.9 190-74.6v54.6c-18.3 42.5-96.4 74.4-189.8 74.4S567.2 805 548.7 762.6v-54c18.8 42.2 96.6 73.8 189.5 73.8z m0.2 94c93.4 0 171.5-31.9 189.7-74.4v55.9h-0.2c-0.3 51.6-85.2 93.4-189.8 93.4s-189.7-42-189.7-93.6c0-1.7 0.2-3.4 0.3-5v-50.3c18.5 42.2 96.4 74 189.7 74z" p-id="182393"></path></svg>
