<svg t="1784647554693" class="icon" viewBox="0 0 1024 1024" version="1.1" xmlns="http://www.w3.org/2000/svg" p-id="23582" width="200" height="200"><path d="M736.256 187.357867c66.013867 46.762667 382.020267 425.642667 108.4416 701.6448-297.1648 238.592-589.585067 102.912-702.805333-4.676267C71.202133 804.795733 57.002667 715.946667 75.912533 617.710933c28.296533-112.298667 113.186133-205.824 122.641067-322.7648 33.006933 60.791467 37.717333 102.912 42.427733 168.379734C349.457067 332.356267 457.9328 159.300267 434.346667 0.238933c0 0 202.820267 65.501867 282.999466 374.237867 47.172267-46.762667 42.461867-131.003733 18.875734-187.118933z m51.882667 439.7056h70.724266v-42.0864h-193.399466v42.0864h70.7584v182.442666h51.882666V627.029333zM396.629333 804.829867h4.7104v-219.8528h-51.882666v88.849066H250.402133v-88.849066h-51.882666v219.818666h51.882666v-88.849066H344.746667v88.8832h51.882666z m136.772267 4.676266c70.7584-4.676267 108.475733-42.120533 108.475733-112.298666-4.7104-74.820267-37.717333-112.2304-108.475733-116.906667-70.7584 4.676267-108.475733 42.0864-113.220267 116.9408 4.744533 70.144 42.461867 107.588267 113.220267 112.264533z m0-187.118933c37.751467 4.676267 51.882667 28.0576 56.593067 70.144 0 46.7968-18.8416 70.178133-56.593067 70.178133-37.717333 0-56.593067-23.381333-56.593067-70.178133 0-42.0864 18.875733-70.144 56.593067-70.144z" fill="#FC6530" p-id="23583"></path></svg>
