<svg t="1774283535160" class="icon" viewBox="0 0 1024 1024" version="1.1" xmlns="http://www.w3.org/2000/svg" p-id="10570" width="200" height="200"><path d="M436.396262 124.411215c-48.807477 24.882243-61.248598 36.366355-89.958879 81.345794-19.140187 30.624299-23.925234 50.721495-24.882243 106.228038-0.957009 76.560748 9.570093 105.271028 60.291589 158.863551 22.968224 24.882243 28.71028 36.366355 19.140187 36.366355-24.882243 0-105.271028 44.979439-139.723365 78.474767-64.119626 60.291589-91.872897 122.497196-106.228037 234.467289-16.269159 123.454206 0 129.196262 376.104673 125.368225 338.781308-3.828037 333.996262-1.914019 337.824299-93.786916 4.785047-104.314019-25.839252-188.530841-94.743925-257.435514C734.026168 555.065421 652.680374 507.214953 623.970093 507.214953c-7.656075 0 0-15.31215 20.097197-38.280374 71.775701-84.216822 73.68972-212.456075 3.828037-289.973831-63.162617-70.818692-138.766355-90.915888-211.499065-54.549533z" p-id="10571"></path><path d="M718.714019 161.734579c-8.613084 4.785047-9.570093 13.398131-4.785047 21.054206 44.979439 69.861682 43.065421 200.014953-3.828037 283.274766-11.484112 20.097196-8.613084 23.925234 39.237383 55.506542 53.592523 35.409346 98.571963 89.001869 123.454205 148.336449 31.581308 73.68972 36.366355 88.04486 36.366356 112.927103 0 43.065421 12.441121 53.592523 53.592523 46.893458 44.979439-7.656075 61.248598-27.753271 61.248598-73.68972 0-104.314019-85.173832-235.424299-178.003738-273.704673l-34.452337-14.35514 24.882243-19.140187c50.721495-40.194393 69.861682-145.465421 38.280374-208.628037-27.753271-56.463551-119.626168-102.4-155.992523-78.474767zM205.757009 175.13271c-29.66729 18.183178-41.151402 30.624299-61.248598 67.947664-37.323364 65.076636-18.183178 159.820561 40.194393 206.714019l21.054205 17.226168-38.280373 15.312149C70.818692 522.527103 0 634.497196 0 747.424299c0 63.162617 12.441121 77.517757 65.076636 79.431776l35.409345 0.957009 15.31215-62.205607c29.66729-121.540187 71.775701-187.573832 151.207476-241.166356 23.925234-16.269159 45.936449-31.581308 47.850468-32.538317 1.914019-1.914019-6.699065-26.796262-18.183178-56.463552-28.71028-69.861682-29.66729-170.347664-1.914018-224.897196 9.570093-21.054206 16.269159-40.194393 13.39813-43.06542-9.570093-9.570093-83.259813-3.828037-102.4 7.656074z" p-id="10572"></path></svg>
