<svg t="1774283600761" class="icon" viewBox="0 0 1024 1024" version="1.1" xmlns="http://www.w3.org/2000/svg" p-id="13611" width="200" height="200"><path d="M915.456 274.432L634.368 14.336C628.224 8.192 619.52 5.12 610.816 5.12H227.328C157.696 5.12 101.376 61.952 101.376 131.584v288.768H803.84v448.512H101.376v24.064c0 69.632 56.832 126.464 126.464 126.464h572.928c69.632 0 126.464-56.832 126.464-126.464V300.032c-0.512-9.728-4.608-18.944-11.776-25.6z m-237.568 16.896c-37.376 0-67.072-29.696-67.072-67.072V84.48l224.256 206.848h-157.184z" p-id="13612"></path><path d="M347.648 719.872l17.408 51.712h57.856l-87.04-232.96H272.896l-86.528 232.96h56.32l16.384-51.712h88.576z m-50.176-119.296c2.048-6.656 4.096-13.312 5.632-20.48h0.512c1.024 6.656 3.072 13.312 5.632 19.968l29.184 79.36H271.36l26.112-78.848z m233.984 88.064c61.44 0 92.16-25.6 92.16-76.8-2.048-47.616-31.232-72.192-87.552-73.216H440.32v232.96h52.224v-82.944h38.912z m-38.4-109.568h34.304c27.136 0.512 40.96 12.288 41.472 34.816-0.512 23.04-14.336 34.304-41.472 34.816h-34.304v-69.632z m157.696-40.448h52.736v232.96h-52.736v-232.96z" p-id="13613"></path></svg>
