<svg t="1767118596635" class="icon" viewBox="0 0 1099 1024" version="1.1" xmlns="http://www.w3.org/2000/svg" p-id="80532" width="200" height="200"><path d="M820.365732 398.414871H199.207436a199.207436 199.207436 0 1 1 0-398.414871h621.158296a199.207436 199.207436 0 1 1 0 398.414871zM199.207436 88.536638a110.670798 110.670798 0 1 0 0 221.341595h621.158296a110.670798 110.670798 0 1 0 0-221.341595z" p-id="80533"></path><path d="M542.50825 708.293105H199.207436a199.207436 199.207436 0 0 1 0-398.414872h660.261978a160.472657 160.472657 0 0 1 130.886664 68.173212 44.268319 44.268319 0 1 1-72.378702 50.982347 71.714677 71.714677 0 0 0-58.507962-30.618921H199.207436a110.670798 110.670798 0 0 0 0 221.341596h343.300814a44.268319 44.268319 0 0 1 0 88.536638z" p-id="80534"></path><path d="M616.952806 1019.499388H199.207436a199.207436 199.207436 0 1 1 0-398.414872h346.768499a44.268319 44.268319 0 1 1 0 88.536638H199.207436a110.670798 110.670798 0 1 0 0 221.341595h417.74537a44.268319 44.268319 0 0 1 0 88.536639zM206.585489 168.367173a34.012825 34.012825 0 1 0 34.012825 34.012826A34.012825 34.012825 0 0 0 206.585489 168.367173z" p-id="80535"></path><path d="M206.585489 787.533396a34.086606 34.086606 0 1 0 34.012825 34.086605 34.012825 34.012825 0 0 0-34.012825-34.086605zM513.586281 163.940342H350.014843a34.012825 34.012825 0 1 0 0 68.02565h163.571438a34.012825 34.012825 0 0 0 0-68.02565zM513.586281 787.533396H350.014843a34.086606 34.086606 0 0 0 0 68.099431h163.571438a34.086606 34.086606 0 0 0 0-68.099431zM353.261186 475.736869H189.615967a34.012825 34.012825 0 0 0 0 68.02565h163.645219a34.012825 34.012825 0 0 0 0-68.02565zM607.139996 475.736869H488.131998a34.012825 34.012825 0 0 0 0 68.02565h119.007998a34.012825 34.012825 0 0 0 0-68.02565zM870.610275 921.518841a229.162332 229.162332 0 1 1 229.088551-229.088551A229.383673 229.383673 0 0 1 870.610275 921.518841z m0-369.714244a140.625693 140.625693 0 1 0 140.551912 140.625693A140.773255 140.773255 0 0 0 870.610275 551.804597z" p-id="80536"></path><path d="M872.82369 1015.072556a44.268319 44.268319 0 0 1-44.268319-44.268319V877.250522a44.268319 44.268319 0 0 1 88.536639 0v93.553715a44.268319 44.268319 0 0 1-44.26832 44.268319z" p-id="80537"></path><path d="M988.659125 1024h-231.670869a44.268319 44.268319 0 1 1 0-88.536638H988.659125a44.268319 44.268319 0 1 1 0 88.536638zM870.610275 653.916853a34.012825 34.012825 0 1 0 34.012825 34.012825 34.012825 34.012825 0 0 0-34.012825-34.012825z" p-id="80538"></path></svg>
