<?xml version="1.0" standalone="no"?><!DOCTYPE svg PUBLIC "-//W3C//DTD SVG 1.1//EN" "http://www.w3.org/Graphics/SVG/1.1/DTD/svg11.dtd"><svg t="1762023362169" class="icon" viewBox="0 0 1024 1024" version="1.1" xmlns="http://www.w3.org/2000/svg" p-id="38335" xmlns:xlink="http://www.w3.org/1999/xlink" width="32" height="32"><path d="M106.666667 874.666667c0 23.466667 19.2 42.666667 42.666666 42.666666h725.333334c23.466667 0 42.666667-19.2 42.666666-42.666666V362.666667H106.666667v512z m433.066666-424.533334c27.733333-29.866667 72.533333-29.866667 72.533334-29.866666l8.533333 21.333333-42.666667 44.8 66.133334 66.133333 40.533333-44.8 21.333333 8.533334c-2.133333 0-2.133333 49.066667-29.866666 72.533333-27.733333 23.466667-68.266667 32-110.933334 12.8l-21.333333 21.333333-40.533333-42.666666 21.333333-19.2c-21.333333-40.533333-10.666667-85.333333 14.933333-110.933334z m-183.466666 34.133334l12.8-12.8 51.2 32 2.133333 36.266666 130.133333 130.133334 23.466667-21.333334 119.466667 121.6c-14.933333 38.4-38.4 66.133333-78.933334 76.8-40.533333-40.533333-78.933333-83.2-119.466666-121.6l27.733333-29.866666-132.266667-132.266667-34.133333-2.133333-29.866667-49.066667 27.733334-27.733333zM320 763.733333l115.2-113.066666 46.933333 44.8-113.066666 121.6s-23.466667 2.133333-36.266667-10.666667c-14.933333-14.933333-12.8-42.666667-12.8-42.666667zM874.666667 106.666667H149.333333c-23.466667 0-42.666667 19.2-42.666666 42.666666v149.333334h810.666666V149.333333c0-23.466667-19.2-42.666667-42.666666-42.666666z m-565.333334 128h-85.333333C206.933333 234.666667 192 219.733333 192 202.666667S206.933333 170.666667 224 170.666667h85.333333c17.066667 0 32 14.933333 32 32s-14.933333 32-32 32z m490.666667 0h-341.333333c-17.066667 0-32-14.933333-32-32S441.6 170.666667 458.666667 170.666667h341.333333c17.066667 0 32 14.933333 32 32s-14.933333 32-32 32z" p-id="38336"></path></svg>