<svg t="1784976743747" class="icon" viewBox="0 0 1024 1024" version="1.1" xmlns="http://www.w3.org/2000/svg" p-id="5861" width="200" height="200"><path d="M865.28 128H158.72C141.728 128 128 141.728 128 158.72v706.56c0 16.992 13.728 30.72 30.72 30.72h706.56c16.992 0 30.72-13.728 30.72-30.72V158.72c0-16.992-13.728-30.72-30.72-30.72zM408.32 676.16v73.92a7.702 7.702 0 0 1-7.68 7.68h-46.08a7.702 7.702 0 0 1-7.68-7.68v-73.92c-40.032-13.056-69.12-50.688-69.12-95.04 0-44.352 29.088-82.08 69.12-95.04V273.92a7.702 7.702 0 0 1 7.68-7.68h46.08a7.702 7.702 0 0 1 7.68 7.68v212.16c40.032 13.056 69.12 50.688 69.12 95.04 0 44.352-29.088 82.08-69.12 95.04z m268.416-138.144c0.192 0 0.288-0.096 0.384-0.096v212.16a7.702 7.702 0 0 1-7.68 7.68h-46.08a7.702 7.702 0 0 1-7.68-7.68V537.92c0.192 0 0.288 0.096 0.384 0.096-40.32-12.864-69.504-50.592-69.504-95.136s29.184-82.272 69.504-95.136c-0.192 0-0.288 0.096-0.384 0.096v-73.92a7.702 7.702 0 0 1 7.68-7.68h46.08a7.702 7.702 0 0 1 7.68 7.68v73.92c-0.192 0-0.288-0.096-0.384-0.096 40.32 12.864 69.504 50.592 69.504 95.136s-29.184 82.272-69.504 95.136z" fill="#455EB4" p-id="5862"></path><path d="M611.84 442.88c0 19.086 15.474 34.56 34.56 34.56 19.086 0 34.56-15.474 34.56-34.56 0-19.086-15.474-34.56-34.56-34.56-19.086 0-34.56 15.474-34.56 34.56zM407.744 564.32l-1.44-2.304c0-0.096-0.096-0.096-0.096-0.192l-0.864-1.152c-0.096-0.096-0.192-0.192-0.192-0.288-0.96-1.248-1.92-2.4-3.072-3.456l-0.192-0.192a11.506 11.506 0 0 0-1.152-1.056 16.402 16.402 0 0 0-2.496-2.016h-0.096l-1.152-0.864c-0.096-0.096-0.288-0.192-0.384-0.288-1.152-0.768-2.4-1.536-3.744-2.112-0.192-0.096-0.48-0.192-0.672-0.384-0.384-0.192-0.672-0.288-1.056-0.48-0.288-0.096-0.672-0.288-0.96-0.384a8.448 8.448 0 0 0-1.44-0.48c-0.384-0.096-0.864-0.288-1.248-0.384l-0.864-0.288c-0.48-0.096-0.864-0.192-1.344-0.288-0.192-0.096-0.48-0.096-0.672-0.192-0.672-0.096-1.344-0.288-2.016-0.384-0.192 0-0.384 0-0.576-0.096-0.576-0.096-1.056-0.096-1.632-0.192-0.192 0-0.384 0-0.672-0.096-0.768 0-1.44-0.096-2.208-0.096-0.768 0-1.44 0-2.208 0.096-0.192 0-0.384 0-0.672 0.096-0.576 0-1.152 0.096-1.632 0.192-0.192 0-0.384 0-0.576 0.096-0.672 0.096-1.344 0.192-2.016 0.384-0.192 0.096-0.48 0.096-0.672 0.192-0.48 0.096-0.864 0.192-1.344 0.288l-0.864 0.288c-0.384 0.096-0.864 0.288-1.248 0.384-0.48 0.192-0.96 0.384-1.44 0.48-0.288 0.096-0.672 0.288-0.96 0.384-0.384 0.192-0.672 0.288-1.056 0.48-0.192 0.096-0.48 0.192-0.672 0.384-1.248 0.672-2.496 1.344-3.744 2.112-0.096 0.096-0.288 0.192-0.384 0.288l-1.152 0.864h-0.096c-0.864 0.672-1.728 1.344-2.496 2.016-0.384 0.384-0.768 0.672-1.152 1.056l-0.192 0.192c-1.056 1.056-2.112 2.304-3.072 3.456-0.096 0.096-0.192 0.192-0.192 0.288l-0.864 1.152c0 0.096-0.096 0.096-0.096 0.192l-1.44 2.304c-0.096 0.192-0.192 0.288-0.288 0.48-2.592 4.896-4.128 10.464-4.128 16.32s1.536 11.52 4.128 16.32c0.096 0.192 0.192 0.288 0.288 0.48l1.44 2.304c0 0.096 0.096 0.096 0.096 0.192l0.864 1.152c0.096 0.096 0.192 0.192 0.192 0.288 0.96 1.248 1.92 2.4 3.072 3.456l0.192 0.192c0.384 0.384 0.768 0.768 1.152 1.056 0.768 0.768 1.632 1.44 2.496 2.016h0.096l1.152 0.864c0.096 0.096 0.288 0.192 0.384 0.288 1.152 0.768 2.4 1.536 3.744 2.112 0.192 0.096 0.48 0.192 0.672 0.384 0.384 0.192 0.672 0.288 1.056 0.48 0.288 0.096 0.672 0.288 0.96 0.384 0.48 0.192 0.96 0.384 1.44 0.48 0.384 0.096 0.864 0.288 1.248 0.384l0.864 0.288c0.48 0.096 0.864 0.192 1.344 0.288 0.192 0.096 0.48 0.096 0.672 0.192 0.672 0.096 1.344 0.288 2.016 0.384 0.192 0 0.384 0 0.576 0.096 0.576 0.096 1.056 0.096 1.632 0.192 0.192 0 0.384 0 0.672 0.096 0.768 0 1.44 0.096 2.208 0.096 0.768 0 1.44 0 2.208-0.096 0.192 0 0.384 0 0.672-0.096 0.576 0 1.152-0.096 1.632-0.192 0.192 0 0.384 0 0.576-0.096a14.904 14.904 0 0 0 2.016-0.384c0.192-0.096 0.48-0.096 0.672-0.192 0.48-0.096 0.864-0.192 1.344-0.288l0.864-0.288c0.384-0.096 0.864-0.288 1.248-0.384 0.48-0.192 0.96-0.384 1.44-0.48 0.288-0.096 0.672-0.288 0.96-0.384 0.384-0.192 0.672-0.288 1.056-0.48 0.192-0.096 0.48-0.192 0.672-0.384a73.674 73.674 0 0 0 3.744-2.112c0.096-0.096 0.288-0.192 0.384-0.288l1.152-0.864h0.096c0.864-0.672 1.728-1.344 2.496-2.016 0.384-0.384 0.768-0.672 1.152-1.056l0.192-0.192c1.056-1.056 2.112-2.304 3.072-3.456 0.096-0.096 0.192-0.192 0.192-0.288l0.864-1.152c0-0.096 0.096-0.096 0.096-0.192l1.44-2.304c0.096-0.192 0.192-0.288 0.288-0.48 2.592-4.896 4.128-10.464 4.128-16.32s-1.536-11.52-4.128-16.32c-0.096-0.192-0.192-0.384-0.288-0.48z" fill="#F5222D" p-id="5863"></path></svg>
