<svg t="1783752625103" class="icon" viewBox="0 0 1024 1024" version="1.1" xmlns="http://www.w3.org/2000/svg" p-id="136249" width="200" height="200"><path d="M715.417715 0.085326h-531.582368A102.988751 102.988751 0 0 0 85.368886 102.476794v819.131739a102.988751 102.988751 0 0 0 98.466461 102.391467h656.329306a102.988751 102.988751 0 0 0 98.466461-102.391467v-655.305392z m-26.280476 75.087076l137.887176 163.826348H689.222565z m146.505124 874.252479h-648.479293a31.656029 31.656029 0 0 1-32.850596-34.130489V105.207233a31.656029 31.656029 0 0 1 32.850596-34.130489h432.603949v238.913423h248.72594v605.304225a31.656029 31.656029 0 0 1-32.850596 34.130489z" fill="#762BEF" p-id="136250"></path><path d="M547.837014 704.026664l143.348054-319.973335h-71.674027l-107.511041 255.978668-101.538205-255.978668H332.814932l137.375219 319.973335z m-274.750438 63.994668h477.826848v63.994667H273.086576z" fill="#762BEF" p-id="136251"></path></svg>
