<svg t="1767118182789" class="icon" viewBox="0 0 1024 1024" version="1.1" xmlns="http://www.w3.org/2000/svg" p-id="63393" width="200" height="200"><path d="M204 778c4.4 0 8 3.6 8 8v56c0 4.4-3.6 8-8 8h-84c-4.4 0-8-3.6-8-8v-56c0-4.4 3.6-8 8-8h84z m700 0c4.4 0 8 3.6 8 8v56c0 4.4-3.6 8-8 8H320c-4.4 0-8-3.6-8-8v-56c0-4.4 3.6-8 8-8h584zM204 476c4.4 0 8 3.6 8 8v56c0 4.4-3.6 8-8 8h-84c-4.4 0-8-3.6-8-8v-56c0-4.4 3.6-8 8-8h84z m700 0c4.4 0 8 3.6 8 8v56c0 4.4-3.6 8-8 8H320c-4.4 0-8-3.6-8-8v-56c0-4.4 3.6-8 8-8h584zM204 174c4.4 0 8 3.6 8 8v56c0 4.4-3.6 8-8 8h-84c-4.4 0-8-3.6-8-8v-56c0-4.4 3.6-8 8-8h84z m700 0c4.4 0 8 3.6 8 8v56c0 4.4-3.6 8-8 8H320c-4.4 0-8-3.6-8-8v-56c0-4.4 3.6-8 8-8h584z" p-id="63394"></path></svg>
