<svg t="1776357922096" class="icon" viewBox="0 0 1024 1024" version="1.1" xmlns="http://www.w3.org/2000/svg" p-id="9507" width="200" height="200"><path d="M153.6 290.133333c0 112.64 92.16 204.8 204.8 204.8s204.8-92.16 204.8-204.8-92.16-204.8-204.8-204.8-204.8 92.16-204.8 204.8zM641.706667 563.2c-10.24 0-17.066667 10.24-13.653334 20.48v3.413333c37.546667 30.72 68.266667 64.853333 92.16 105.813334h139.946667c27.306667 0 54.613333 6.826667 78.506667 20.48-61.44-92.16-163.84-150.186667-283.306667-150.186667h-13.653333zM590.506667 146.773333c27.306667 44.373333 40.96 92.16 40.96 143.36s-13.653333 98.986667-40.96 143.36c-10.24 13.653333-6.826667 37.546667 6.826666 47.786667 3.413333 3.413333 10.24 6.826667 17.066667 6.826667 0 0 27.306667 3.413333 40.96 3.413333 112.64 0 204.8-92.16 204.8-204.8s-92.16-204.8-204.8-204.8c-13.653333 0-40.96 3.413333-40.96 3.413333-17.066667 3.413333-34.133333 17.066667-30.72 37.546667 0 10.24 3.413333 17.066667 6.826667 23.893333zM256 860.16c0-92.16 75.093333-163.84 163.84-163.84h71.68c27.306667 0 51.2 17.066667 61.44 40.96 23.893333-20.48 51.2-34.133333 81.92-37.546667-61.44-81.92-160.426667-133.12-269.653333-133.12-187.733333 0-341.333333 153.6-341.333334 341.333334 0 10.24 0 23.893333 3.413334 34.133333h249.173333c-13.653333-27.306667-20.48-54.613333-20.48-81.92z" p-id="9508"></path><path d="M614.4 989.866667h-194.56c-71.68 0-129.706667-58.026667-129.706667-129.706667 0-71.68 58.026667-129.706667 129.706667-129.706667h71.68c20.48 0 34.133333 13.653333 34.133333 34.133334s-13.653333 34.133333-34.133333 34.133333h-71.68c-34.133333 0-61.44 27.306667-61.44 61.44s27.306667 61.44 61.44 61.44H614.4c34.133333 0 61.44-27.306667 61.44-61.44 0-20.48 13.653333-34.133333 34.133333-34.133333s34.133333 13.653333 34.133334 34.133333c3.413333 71.68-54.613333 129.706667-129.706667 129.706667z" p-id="9509"></path><path d="M860.16 989.866667H785.066667c-20.48 0-34.133333-13.653333-34.133334-34.133334s13.653333-34.133333 34.133334-34.133333h71.68c34.133333 0 61.44-27.306667 61.44-61.44s-27.306667-61.44-61.44-61.44h-194.56c-34.133333 0-61.44 27.306667-61.44 61.44 0 20.48-13.653333 34.133333-34.133334 34.133333s-34.133333-13.653333-34.133333-34.133333c0-71.68 58.026667-129.706667 129.706667-129.706667h194.56c71.68 0 129.706667 58.026667 129.706666 129.706667 3.413333 71.68-54.613333 129.706667-126.293333 129.706667z" p-id="9510"></path></svg>
