<svg t="1774539090040" class="icon" viewBox="0 0 1024 1024" version="1.1" xmlns="http://www.w3.org/2000/svg" p-id="5015" width="200" height="200"><path d="M836.266667 91.022222h-625.777778c-17.066667 0-28.444444 5.688889-39.822222 17.066667-11.377778 11.377778-17.066667 28.444444-17.066667 39.822222v796.444445c0 34.133333 22.755556 56.888889 56.888889 56.888888h369.777778v-256c0-34.133333 22.755556-56.888889 56.888889-56.888888h256V147.911111c0-28.444444-22.755556-56.888889-56.888889-56.888889z m-341.333334 426.666667h-227.555555c-17.066667 0-28.444444-11.377778-28.444445-28.444445s11.377778-28.444444 28.444445-28.444444h227.555555c17.066667 0 28.444444 11.377778 28.444445 28.444444s-11.377778 28.444444-28.444445 28.444445z m0-113.777778h-227.555555c-17.066667 0-28.444444-11.377778-28.444445-28.444444s11.377778-28.444444 28.444445-28.444445h227.555555c17.066667 0 28.444444 11.377778 28.444445 28.444445s-11.377778 28.444444-28.444445 28.444444zM659.911111 284.444444c-5.688889 5.688889-11.377778 5.688889-22.755555 5.688889H267.377778c-17.066667 0-28.444444-11.377778-28.444445-28.444444s11.377778-28.444444 28.444445-28.444445h369.777778c5.688889 0 17.066667 5.688889 22.755555 5.688889 5.688889 5.688889 5.688889 11.377778 5.688889 22.755556s0 17.066667-5.688889 22.755555z" p-id="5016"></path><path d="M665.6 745.244444h199.111111c17.066667 0 28.444444 11.377778 28.444445 28.444445l-227.555556 227.555555c-5.688889 0-17.066667-5.688889-22.755556-5.688888-5.688889-5.688889-5.688889-11.377778-5.688888-22.755556v-199.111111c0-5.688889 5.688889-17.066667 5.688888-22.755556 5.688889 0 17.066667-5.688889 22.755556-5.688889z" p-id="5017"></path></svg>
