<svg t="1752856965274" class="icon" viewBox="0 0 1024 1024" version="1.1" xmlns="http://www.w3.org/2000/svg" p-id="73346" width="32" height="32"><path d="M192 405.333333v512h512v64H192a64 64 0 0 1-64-64V405.333333h64zM832 85.333333a64.192 64.192 0 0 1 64 64v640a64.192 64.192 0 0 1-64 64H320a64.192 64.192 0 0 1-64-64V149.333333a64.192 64.192 0 0 1 64-64z m-288 160H384v448h160c59.434667 0.170667 116.48-23.466667 158.4-65.6A224 224 0 0 0 544 245.333333z m0 64c88.213333 0 160 71.786667 160 160s-71.786667 160-160 160H448v-320z" p-id="73347"></path></svg>
