<svg t="1781715414433" class="icon" viewBox="0 0 1024 1024" version="1.1" xmlns="http://www.w3.org/2000/svg" p-id="8178" width="200" height="200"><path d="M656.564 158.844C640.22 198.416 594.828 220 510 220c-84.744 0-129.868-21.512-145.88-60.84a52.116 52.116 0 0 0-8.936-14.532c-18.892-21.704-51.864-23.96-73.524-4.924l-229.2 200.048a52 52 0 0 0-9.64 11.196l-0.692 1.12c-14.536 24.072-7.288 55.476 16.544 70.692l161.46 103.072-43.2 304.212a52.008 52.008 0 0 0 33.516 56.108C302.036 919.452 401.9 936 510 936c108.824 0 202.488-16.768 280.84-50.832l1.156-0.52c19.56-8.98 31.608-29.384 29.96-51.092l-23.868-306.588 163.244-104.212a52 52 0 0 0 11.156-9.588c18.908-21.616 16.72-54.464-4.892-73.376l-228.748-200.156a51.796 51.796 0 0 0-14.356-8.916c-26.132-10.82-56.024 1.24-67.42 26.948l-0.508 1.176z m57.536 86.7l146.124 127.86-136.032 86.848-1.12 0.732a52 52 0 0 0-22.74 47.132l23.372 300.288-3.32 1.148C661.184 829.76 591.12 840 510 840l-5.2-0.016c-81.344-0.44-156.744-11.24-226.332-32.32l-1.336-0.412 42.028-295.956 0.172-1.316a52 52 0 0 0-23.672-49.824L159.84 373.448l146.448-127.824 1.108 1.232C349.888 293.484 418.96 316 510 316c90.992 0 160.12-22.484 202.84-69.06l1.26-1.396z" p-id="8179"></path></svg>
