<svg t="1774538983013" class="icon" viewBox="0 0 1024 1024" version="1.1" xmlns="http://www.w3.org/2000/svg" p-id="2744" width="200" height="200"><path d="M149.333333 149.333333m21.333334 0l277.333333 0q21.333333 0 21.333333 21.333334l0 277.333333q0 21.333333-21.333333 21.333333l-277.333333 0q-21.333333 0-21.333334-21.333333l0-277.333333q0-21.333333 21.333334-21.333334Z" p-id="2745"></path><path d="M149.333333 554.666667m21.333334 0l277.333333 0q21.333333 0 21.333333 21.333333l0 277.333333q0 21.333333-21.333333 21.333334l-277.333333 0q-21.333333 0-21.333334-21.333334l0-277.333333q0-21.333333 21.333334-21.333333Z" p-id="2746"></path><path d="M554.666667 149.333333m21.333333 0l277.333333 0q21.333333 0 21.333334 21.333334l0 277.333333q0 21.333333-21.333334 21.333333l-277.333333 0q-21.333333 0-21.333333-21.333333l0-277.333333q0-21.333333 21.333333-21.333334Z" p-id="2747"></path><path d="M853.333333 554.666667H576a21.333333 21.333333 0 0 0 0 42.666666h277.333333a21.333333 21.333333 0 0 0 0-42.666666zM576 704h170.666667a21.333333 21.333333 0 0 0 0-42.666667h-170.666667a21.333333 21.333333 0 0 0 0 42.666667zM853.333333 768H576a21.333333 21.333333 0 0 0 0 42.666667h277.333333a21.333333 21.333333 0 0 0 0-42.666667z" p-id="2748"></path></svg>
