<?xml version="1.0" standalone="no"?><!DOCTYPE svg PUBLIC "-//W3C//DTD SVG 1.1//EN" "http://www.w3.org/Graphics/SVG/1.1/DTD/svg11.dtd"><svg t="1762023128587" class="icon" viewBox="0 0 1024 1024" version="1.1" xmlns="http://www.w3.org/2000/svg" p-id="21217" xmlns:xlink="http://www.w3.org/1999/xlink" width="32" height="32"><path d="M142.08 85.333333h739.413333C913.066667 85.333333 938.666667 110.933333 938.666667 142.101333v540.864a56.746667 56.746667 0 0 1-56.746667 56.768H142.08A56.682667 56.682667 0 0 1 85.333333 682.965333V142.101333C85.333333 110.954667 110.933333 85.333333 142.08 85.333333zM375.466667 454.592l52.906666-106.304 118.186667 216.426667c22.613333 41.834667 74.666667 43.968 102.4 5.546666l72.533333-101.162666h75.093334c23.466667 0 42.666667-19.2 42.666666-42.688 0-23.466667-19.2-42.688-42.666666-42.688H699.733333a41.898667 41.898667 0 0 0-34.56 17.92l-62.72 87.082666-125.013333-228.373333c-23.893333-43.52-78.933333-43.093333-101.546667 1.706667l-64.853333 131.050666h-68.266667c-23.466667 0-42.666667 19.2-42.666666 42.688 0 23.466667 19.2 42.688 42.666666 42.688h94.72a42.56 42.56 0 0 0 37.973334-23.893333zM256 825.109333h512a56.789333 56.789333 0 0 1 52.992 82.944A56.810667 56.810667 0 0 1 773.12 938.666667H256a56.213333 56.213333 0 0 1-54.186667-59.328A56.96 56.96 0 0 1 256 825.109333z" p-id="21218"></path></svg>