<svg t="1783437538891" class="icon" viewBox="0 0 1024 1024" version="1.1" xmlns="http://www.w3.org/2000/svg" p-id="17842" width="200" height="200"><path d="M0 0m512 0l0 0q512 0 512 512l0 0q0 512-512 512l0 0q-512 0-512-512l0 0q0-512 512-512Z" fill="#FFFFFF" p-id="17843"></path><path d="M294.4 268.8h204.8a51.2 51.2 0 0 1 51.2 51.2v192a25.6 25.6 0 0 1-25.6 25.6H294.4a51.2 51.2 0 0 1-51.2-51.2V320a51.2 51.2 0 0 1 51.2-51.2zM473.6 563.2h230.4a51.2 51.2 0 0 1 51.2 51.2v166.4a51.2 51.2 0 0 1-51.2 51.2H499.2a51.2 51.2 0 0 1-51.2-51.2V588.8a25.6 25.6 0 0 1 25.6-25.6z" fill="#046EA7" p-id="17844"></path><path d="M652.8 268.8h51.2a51.2 51.2 0 0 1 51.2 51.2v166.4a51.2 51.2 0 0 1-51.2 51.2h-76.8a25.6 25.6 0 0 1-25.6-25.6V320a51.2 51.2 0 0 1 51.2-51.2z" fill="#FCCF0A" p-id="17845"></path><path d="M345.6 832h-51.2a51.2 51.2 0 0 1-51.2-51.2V614.4a51.2 51.2 0 0 1 51.2-51.2h76.8a25.6 25.6 0 0 1 25.6 25.6v192a51.2 51.2 0 0 1-51.2 51.2z" fill="#046EA7" fill-opacity=".8" opacity=".302" p-id="17846"></path></svg>
