<svg t="1784736451231" class="icon" viewBox="0 0 1024 1024" version="1.1" xmlns="http://www.w3.org/2000/svg" p-id="40180" width="200" height="200"><path d="M0 0m256 0l512 0q256 0 256 256l0 512q0 256-256 256l-512 0q-256 0-256-256l0-512q0-256 256-256Z" fill="#FAAD14" p-id="40181"></path><path d="M704 554.666667a149.333333 149.333333 0 1 1 0 298.666666 149.333333 149.333333 0 0 1 0-298.666666z m26.581333 197.845333H674.56v44.8h56.021333v-44.8z m0-141.866667H674.56v119.466667h56.021333v-119.466667zM426.538667 170.666667c27.477333 0 49.792 22.528 49.792 50.304v45.994666h156.501333c27.52 0 49.834667 22.485333 49.834667 50.261334 0 27.776-22.314667 50.346667-49.834667 50.346666h-41.856a321.237333 321.237333 0 0 1-74.666667 162.645334c20.053333 6.058667 40.96 9.173333 61.952 9.173333 7.125333 0 13.909333 1.536 20.053334 4.266667a192.64 192.64 0 0 0-73.770667 91.904c-34.133333-5.717333-67.242667-17.066667-97.962667-33.749334l0.085334-0.085333a316.501333 316.501333 0 0 1-150.869334 38.186667 50.048 50.048 0 0 1-49.792-50.304c0-27.733333 22.314667-50.261333 49.792-50.261334 20.821333 0 41.386667-3.114667 61.226667-9.216a321.194667 321.194667 0 0 1-75.690667-162.56h-40.832A50.048 50.048 0 0 1 170.666667 317.184c0-27.733333 22.314667-50.261333 49.834666-50.261333h156.16V220.970667C376.704 193.194667 399.061333 170.666667 426.581333 170.666667z m63.317333 196.949333H363.264c9.856 42.496 31.872 81.066667 63.317333 111.018667H426.666667a221.696 221.696 0 0 0 63.189333-111.018667z" fill="#FFFFFF" p-id="40182"></path></svg>
