<svg t="1784646891090" class="icon" viewBox="0 0 1463 1024" version="1.1" xmlns="http://www.w3.org/2000/svg" p-id="2874" width="200" height="200"><path d="M596.260571 1015.296l-581.156571-336.457143c-22.381714-12.946286-19.565714-35.584 6.253714-50.541714l754.834286-436.845714a96.841143 96.841143 0 0 1 87.296-3.657143l581.156571 336.457143c22.381714 12.946286 19.565714 35.584-6.253714 50.541714L683.446857 1011.638857a96.804571 96.804571 0 0 1-87.296 3.657143z" fill="#C8CFE3" p-id="2875"></path><path d="M599.478857 962.742857L18.176 636.013714c-22.381714-12.580571-19.565714-34.56 6.253714-49.115428l754.834286-424.557715a99.510857 99.510857 0 0 1 87.369143-3.657142l581.302857 326.985142c22.381714 12.580571 19.565714 34.56-6.253714 49.115429l-755.053715 424.594286a99.291429 99.291429 0 0 1-87.296 3.657143z" fill="#D6DDEC" p-id="2876"></path><path d="M596.260571 901.229714L15.104 574.244571c-22.381714-12.580571-19.565714-34.56 6.253714-49.115428L776.192 100.571429a99.328 99.328 0 0 1 87.296-3.657143l581.156571 326.912c22.381714 12.580571 19.565714 34.56-6.253714 49.115428L683.446857 897.609143a99.584 99.584 0 0 1-87.296 3.657143z" fill="#FFFFFF" p-id="2877"></path><path d="M1386.752 449.938286L647.241143 863.707429 70.985143 540.598857 810.496 126.72 1386.642286 449.828571z" fill="#EEF2FB" p-id="2878"></path><path d="M1072.384 170.020571L998.034286 212.955429l-74.349715-42.934858 74.349715-42.934857z" fill="#FFA1FF" p-id="2879"></path><path d="M1072.347429 387.949714l-74.349715 42.934857v-223.085714l74.349715-42.934857z" fill="#FC7AF6" p-id="2880"></path><path d="M923.794286 387.913143v-223.085714l74.349714 42.934857v223.085714z" fill="#EF5EE1" p-id="2881"></path><path d="M911.104 42.934857l-74.24 42.934857-74.349714-42.934857L836.864 0z" fill="#FFAD40" p-id="2882"></path><path d="M911.140571 516.900571l-74.386285 42.934858V85.833143l74.349714-42.934857v473.965714z" fill="#F99E32" p-id="2883"></path><path d="M762.624 516.900571V42.934857l74.349714 42.934857v473.965715l-74.349714-42.934858z" fill="#F28522" p-id="2884"></path><path d="M748.8 225.243429l-74.349714 42.934857-74.203429-42.934857 74.349714-42.934858z" fill="#3BB9FF" p-id="2885"></path><path d="M748.726857 613.668571l-74.349714 42.934858V264.009143l74.349714-42.934857z" fill="#32ABFC" p-id="2886"></path><path d="M600.32 613.668571V221.074286l74.313143 42.934857v392.594286l-74.313143-42.934858z" fill="#2194F4" p-id="2887"></path><path d="M587.373714 383.670857l-74.349714 42.934857-74.349714-42.934857 74.349714-42.934857z" fill="#18EFC6" p-id="2888"></path><path d="M587.264 698.514286l-74.349714 42.934857v-319.817143l74.349714-42.934857V698.514286z" fill="#09D1AF" p-id="2889"></path><path d="M438.747429 698.514286v-320l74.349714 42.934857v319.817143l-74.349714-42.934857z" fill="#11C18F" p-id="2890"></path></svg>
