<svg t="1774538302089" class="icon" viewBox="0 0 1024 1024" version="1.1" xmlns="http://www.w3.org/2000/svg" p-id="10565" width="200" height="200"><path d="M160 128h64a32 32 0 0 1 32 32v160H128V160a32 32 0 0 1 32-32z m192 0h512a32 32 0 0 1 32 32v160H320V160a32 32 0 0 1 32-32z m-192 288h64a32 32 0 0 1 32 32v160H128v-160a32 32 0 0 1 32-32z m192 0h512a32 32 0 0 1 32 32v160H320v-160a32 32 0 0 1 32-32z m-192 288h64a32 32 0 0 1 32 32v160H128v-160a32 32 0 0 1 32-32z m192 0h512a32 32 0 0 1 32 32v160H320v-160a32 32 0 0 1 32-32z" p-id="10566"></path></svg>
