<svg t="1767196946228" class="icon" viewBox="0 0 1024 1024" version="1.1" xmlns="http://www.w3.org/2000/svg" p-id="191979" width="200" height="200"><path d="M0 807.31q205.26-0.28 410.51-0.08H1024v92.43c-1.1 25-17 48.6-39.81 58.87-8.37 4.11-17.66 5.46-26.8 6.72H68.32c-14.73-1-29.53-5.24-41.23-14.5-15.95-11.89-25.55-31-27.09-50.7z m249.6-202.9v54.58h45.6V604.4z m95.79-54.59v109.17H391V549.82h-45.59M537 511.36v147.63h45.59V511.35H537m-95.8-62.1q-0.12 104.87 0 209.74h45.6V449.24h-45.6M632.75 430v229h45.6V430h-45.6m95.77-91.75v320.73h45.59V338.25H728.5M685.29 182q14.79 14.81 29.58 29.59-81.54 81.58-163.1 163.14c-30.44-30.16-60.63-60.57-90.95-90.83-11.47 10.45-22.14 21.74-33.2 32.63l-215.7 215.7q20.27 20.43 40.68 40.71Q356.57 469 460.54 365q37.27 37.19 74.47 74.44c5.4 5.74 11.79 10.36 17 16.25Q653.9 354.08 755.55 252.26c9.91 9.84 19.76 19.74 29.63 29.6q13.56-63.59 27.27-127.18-63.59 13.64-127.16 27.32m-583-123.23h819.1c13.47 1.12 26.84 5.33 37.68 13.57a68.38 68.38 0 0 1 27.78 54.85v627.75q-474.52 0.08-949 0v-621c0-6.07-0.13-12.19 1-18.18a68.43 68.43 0 0 1 28.4-44.6c10.26-7.38 22.66-11.07 35.11-12.43" p-id="191980"></path></svg>
