<svg t="1783695527120" class="icon" viewBox="0 0 1024 1024" version="1.1" xmlns="http://www.w3.org/2000/svg" p-id="112965" width="200" height="200"><path d="M128 128m42.666667 0l682.666666 0q42.666667 0 42.666667 42.666667l0 128q0 42.666667-42.666667 42.666666l-682.666666 0q-42.666667 0-42.666667-42.666666l0-128q0-42.666667 42.666667-42.666667Z" fill="#94BFFF" p-id="112966"></path><path d="M128 426.666667m42.666667 0l85.333333 0q42.666667 0 42.666667 42.666666l0 384q0 42.666667-42.666667 42.666667l-85.333333 0q-42.666667 0-42.666667-42.666667l0-384q0-42.666667 42.666667-42.666666Z" fill="#94BFFF" p-id="112967"></path><path d="M384 426.666667m42.666667 0l426.666666 0q42.666667 0 42.666667 42.666666l0 384q0 42.666667-42.666667 42.666667l-426.666666 0q-42.666667 0-42.666667-42.666667l0-384q0-42.666667 42.666667-42.666666Z" fill="#94BFFF" p-id="112968"></path></svg>
