<svg t="1784736004587" class="icon" viewBox="0 0 1024 1024" version="1.1" xmlns="http://www.w3.org/2000/svg" p-id="25799" width="200" height="200"><path d="M873.7 803.5h-48l-93.6-129.9c38.5-13.5 66.4-49.5 66.4-92.3 0-54.2-44.4-98.2-99-98.2s-99.1 44-99.1 98.2c0 42.7 27.9 78.8 66.4 92.3l-93.7 129.9h-48c-24.1 0-43.7 19.4-43.7 43.4v69.8c0 23.9 19.6 43.4 43.7 43.4h348.6c24.1 0 43.7-19.5 43.7-43.4v-69.8c0.1-24-19.5-43.4-43.7-43.4z" fill="#D4F7FF" p-id="25800"></path><path d="M156 838.7c-0.3-1.8-0.7-5.1-0.7-10.8V123.8c0-5.8 0.4-9.1 0.7-10.8 1.8-0.3 5.1-0.7 10.9-0.7h574c5.8 0 9.1 0.4 10.9 0.7 0.3 1.8 0.7 5.1 0.7 10.8v335.7l48.7 25.5V123.8c0-41.4-18.6-59.8-60.3-59.8h-574c-41.7 0-60.3 18.4-60.3 59.8v704.1c0 41.4 18.6 59.8 60.3 59.8h278.6v-48.2H166.9c-5.8 0-9.1-0.4-10.9-0.8z m83.8-360.1c-10.3 0-18.7 10.4-18.7 20.6 0 10.3 8.4 20.6 18.7 20.6H514c10.4 0 18.7-10.4 18.7-20.6 0-10.3-8.4-20.6-18.7-20.6H239.8z m446-112.5c0-10.3-8.4-20.6-18.8-20.6H239.8c-10.3 0-18.7 10.4-18.7 20.6 0 10.3 8.4 20.6 18.7 20.6H667c10.4 0 18.8-10.4 18.8-20.6zM454.6 611.7H239.8c-10.3 0-18.7 10.4-18.7 20.6 0 10.3 8.4 20.6 18.7 20.6h214.8c10.3 0 18.7-10.4 18.7-20.6 0-10.2-8.4-20.6-18.7-20.6zM667 212.3H239.8c-10.3 0-18.7 10.4-18.7 20.6 0 10.3 8.4 20.6 18.7 20.6H667c10.4 0 18.7-10.4 18.7-20.6 0.1-10.3-8.3-20.6-18.7-20.6z m206.7 591.2h-48l-93.6-129.9c38.5-13.5 66.4-49.5 66.4-92.3 0-54.2-44.4-98.2-99-98.2s-99.1 44-99.1 98.2c0 42.7 27.9 78.8 66.4 92.3l-93.7 129.9h-48c-24.1 0-43.7 19.4-43.7 43.4v69.8c0 23.9 19.6 43.4 43.7 43.4h348.6c24.1 0 43.7-19.5 43.7-43.4v-69.8c0.1-24-19.5-43.4-43.7-43.4zM637.9 581.3c0-33.6 27.6-61 61.6-61s61.6 27.4 61.6 61c0 33.5-27.3 60.6-61 61h-1.2c-33.7-0.3-61-27.5-61-61z m55.8 118.9l11-0.7 75 103.9H619.2l74.5-103.2zM880 916.7c0 3.4-2.9 6.2-6.3 6.2H525.1c-3.4 0-6.3-2.8-6.3-6.2v-69.8c0-3.4 2.9-6.2 6.3-6.2h348.6c3.4 0 6.3 2.8 6.3 6.2v69.8z" fill="#25CCF3" p-id="25801"></path></svg>
