<svg t="1784647460452" class="icon" viewBox="0 0 1024 1024" version="1.1" xmlns="http://www.w3.org/2000/svg" p-id="21425" width="200" height="200"><path d="M0 0h1024v1024H0z" fill="#526ACE" p-id="21426"></path><path d="M768 540.416a165.325 165.325 0 0 0-169.626 270.26H277.35c-23.577 0-42.675-19.124-42.675-42.676V234.675c0-23.552 19.098-42.675 42.65-42.675h448C748.877 192 768 211.098 768 234.675v305.741z m-410.675-241.74a16 16 0 0 0 0 32h288a16 16 0 0 0 0-32h-288z m0 128a16 16 0 0 0 0 32h288a16 16 0 0 0 0-32h-288z m0 149.324a16 16 0 0 0 0 32h117.35a16 16 0 0 0 0-32h-117.35zM720 842.675a144 144 0 1 1 0-288 144 144 0 0 1 0 288z m-49.024-110.617l24.269-77.978 16.025 126.054c1.408 11.162 15.642 12.596 18.944 1.92l22.221-72.166 10.829 23.5a9.728 9.728 0 0 0 8.73 5.889H832v-21.325h-53.965l-18.637-40.525c-3.89-8.473-15.232-7.603-18.022 1.383l-16.46 53.452-15.95-125.721c-1.433-11.136-15.616-12.621-18.944-1.971l-35.328 113.382H597.35v21.325h64.359a9.882 9.882 0 0 0 9.267-7.22z" fill="#FFFFFF" p-id="21427"></path></svg>
