<svg t="1783437924473" class="icon" viewBox="0 0 1024 1024" version="1.1" xmlns="http://www.w3.org/2000/svg" p-id="46314" width="200" height="200"><path d="M895.744 846.336a506.282667 506.282667 0 0 0 125.44-335.018667 506.709333 506.709333 0 0 0-149.333333-360.618666A506.538667 506.538667 0 0 0 517.461333 1.365333a47.445333 47.445333 0 0 0-13.994666 0 506.538667 506.538667 0 0 0-352.938667 149.333334 506.538667 506.538667 0 0 0-149.333333 353.792 47.36 47.36 0 0 0 0 11.690666 506.624 506.624 0 0 0 149.333333 355.84 506.709333 506.709333 0 0 0 360.704 149.333334 506.709333 506.709333 0 0 0 380.928-170.922667 23.466667 23.466667 0 0 0 3.584-4.096zM48.469333 533.76H262.826667c1.450667 75.093333 10.581333 145.408 25.685333 208.213333-70.485333 19.029333-115.2 43.776-138.325333 59.221334A460.970667 460.970667 0 0 1 48.469333 533.76z m101.12-311.552c22.954667 15.445333 67.669333 40.533333 138.666667 59.733333a975.189333 975.189333 0 0 0-25.429333 205.056H48.64a460.885333 460.885333 0 0 1 100.949333-264.789333z m824.234667 264.789333h-214.186667a975.274667 975.274667 0 0 0-25.429333-205.056c70.826667-19.029333 115.626667-43.946667 138.922667-59.392 58.624 73.301333 95.488 164.693333 100.693333 264.448z m-261.12 0H534.016v-178.346666c59.648-1.28 110.933333-7.424 154.538667-16.042667 14.421333 59.562667 22.698667 125.525333 24.32 194.389333zM534.016 261.888V51.370667c42.069333 11.861333 83.114667 56.234667 115.285333 125.696 10.069333 21.76 19.029333 45.226667 26.88 70.314666-40.106667 7.68-87.210667 13.226667-142.165333 14.506667zM487.082667 51.712v210.090667a835.157333 835.157333 0 0 1-140.714667-14.592 575.146667 575.146667 0 0 1 26.794667-70.144C404.992 108.373333 445.44 64.170667 487.082667 51.712z m0 256.853333v178.346667h-177.493334c1.706667-68.778667 9.984-134.826667 24.32-194.304 43.264 8.533333 94.037333 14.677333 153.173334 16.042667z m-177.493334 225.194667h177.493334V715.093333c-58.88 1.365333-109.738667 7.509333-152.917334 16.128a928.426667 928.426667 0 0 1-24.576-197.461333z m177.493334 228.181333v209.066667c-41.557333-12.544-82.090667-56.661333-113.92-125.44a573.696 573.696 0 0 1-26.453334-69.12 843.434667 843.434667 0 0 1 140.373334-14.506667z m46.848 209.408V761.856a838.485333 838.485333 0 0 1 141.824 14.506667c-7.68 24.576-16.554667 47.786667-26.453334 69.290666-32.256 69.461333-73.301333 113.834667-115.370666 125.696z m0-256.341333V533.76h178.858666a928.682667 928.682667 0 0 1-24.490666 197.12c-43.52-8.533333-94.72-14.677333-154.453334-15.872z m225.706666-181.248h214.186667a460.970667 460.970667 0 0 1-101.205333 267.093333c-23.381333-15.701333-68.181333-40.448-138.666667-59.392 15.104-62.549333 24.149333-132.778667 25.6-207.701333z m82.090667-346.624c-20.906667 13.226667-59.733333 33.536-119.808 49.664-22.101333-72.021333-52.736-131.413333-89.258667-172.544a463.530667 463.530667 0 0 1 209.066667 122.88zM389.717333 64.256c-36.437333 41.130667-67.072 100.352-89.088 172.288-59.904-16.213333-98.730667-36.693333-119.466666-49.834667A463.530667 463.530667 0 0 1 389.632 64.256z m-208.128 772.266667c20.906667-13.141333 59.562667-33.365333 119.296-49.493334 22.016 71.509333 52.48 130.474667 88.832 171.349334a463.530667 463.530667 0 0 1-208.128-121.856z m451.072 121.856c36.352-40.96 66.901333-99.84 88.917334-171.52 59.392 16.042667 98.304 36.181333 119.466666 49.408a463.530667 463.530667 0 0 1-208.384 122.112z" fill="#428CFF" p-id="46315"></path></svg>
