<svg t="1783752383563" class="icon" viewBox="0 0 1092 1024" version="1.1" xmlns="http://www.w3.org/2000/svg" p-id="125761" width="200" height="200"><path d="M1006.592 682.666667c47.3088 0 85.674667 40.7552 85.674667 91.0336v159.266133C1092.266667 983.2448 1053.9008 1024 1006.592 1024H85.674667C38.365867 1024 0 983.2448 0 932.9664v-159.266133C0 723.421867 38.365867 682.666667 85.674667 682.666667h920.917333zM599.722667 819.2H492.544c-17.749333 0-32.085333 15.291733-32.085333 34.133333 0 18.193067 13.346133 33.041067 30.208 34.065067l1.877333 0.068267h107.1104c17.749333 0 32.085333-15.291733 32.085333-34.133334 0-18.193067-13.346133-33.041067-30.208-34.065066L599.688533 819.2z" fill="#7B97F0" p-id="125762"></path><path d="M1006.592 238.933333C1053.9008 238.933333 1092.266667 279.688533 1092.266667 329.966933v159.266134C1092.266667 539.511467 1053.9008 580.266667 1006.592 580.266667H85.674667C38.365867 580.266667 0 539.511467 0 489.233067V329.966933C0 279.688533 38.365867 238.933333 85.674667 238.933333h920.917333zM599.722667 375.466667H492.544c-17.749333 0-32.085333 15.291733-32.085333 34.133333 0 18.193067 13.346133 33.041067 30.208 34.065067l1.877333 0.068266h107.1104c17.749333 0 32.085333-15.291733 32.085333-34.133333 0-18.193067-13.346133-33.041067-30.208-34.065067L599.688533 375.466667z" fill="#284CC0" p-id="125763"></path><path d="M279.620267 0h542.856533c22.7328 0 44.544 9.386667 60.757333 26.146133L989.866667 136.533333H102.4L221.5936 23.4496A84.241067 84.241067 0 0 1 279.620267 0z" fill="#F9A256" p-id="125764"></path></svg>
