<svg t="1784352608326" class="icon" viewBox="0 0 1024 1024" version="1.1" xmlns="http://www.w3.org/2000/svg" p-id="6398" width="200" height="200"><path d="M158.37866666 538.624c-4.096 0-8.192-1.024-11.776-2.56-10.24-5.12-16.384-15.872-14.848-26.624 10.752-111.104 46.08-189.44 105.472-232.448 64.512-47.104 134.144-34.816 147.456-32.256 7.68 1.536 14.336 6.656 17.92 13.824 3.584 7.168 4.096 15.36 1.024 22.528l-66.56 161.792c-3.072 8.192-10.24 13.824-18.432 15.872-82.432 18.944-132.096 64-141.312 72.704-5.12 4.608-11.776 7.168-18.944 7.168z m184.832-246.272c-20.992 0.512-49.152 6.144-76.288 25.6-36.864 26.624-61.952 73.216-75.776 138.24 25.6-15.872 60.416-33.28 103.424-44.544l48.64-119.296zM676.52266666 897.024c-6.144 0-11.776-2.048-16.896-5.632-9.216-7.168-13.312-18.944-10.24-30.208 4.608-17.408 18.944-79.36-0.512-157.184l-3.072-12.8 142.848-166.4 19.456 22.016c2.048 2.56 52.224 59.904 40.448 143.872-10.24 73.216-62.976 140.8-157.184 201.728-4.096 3.072-9.216 4.608-14.848 4.608z m25.6-191.488c9.216 43.52 9.728 81.92 7.168 112.128 52.736-42.496 82.432-87.04 89.088-132.608 4.608-32.256-3.584-59.392-11.776-77.824l-84.48 98.304z" fill="#707070" p-id="6399"></path><path d="M802.47466666 99.84c-87.552-7.68-491.52-12.288-498.688 532.992 0 8.704 4.096 16.896 10.752 22.016l161.28 123.904c7.168 5.632 17.408 7.168 26.112 4.096 84.992-30.72 514.56-210.944 323.584-666.624-4.096-9.216-12.8-15.36-23.04-16.384z" fill="#24eff6" p-id="6400"></path><path d="M492.71466666 810.496c-11.264 0-23.04-3.584-32.256-11.264l-161.28-123.904c-13.312-10.24-20.992-26.112-20.992-43.008 2.56-199.68 57.344-349.184 162.816-445.44 134.656-121.856 312.32-117.248 363.52-113.152 19.456 1.536 36.864 13.824 44.544 32.256 61.952 147.456 67.072 282.112 15.36 399.872-83.968 190.976-291.84 278.528-353.28 300.544-6.656 3.072-12.288 4.096-18.432 4.096z m269.824-686.592c-67.584 0-190.464 13.824-286.72 101.376C381.09866666 311.296 331.94666666 448.512 329.38666666 633.344c0 0.512 0.512 1.024 1.024 1.536l161.28 123.904c0.512 0.512 1.024 0.512 1.536 0.512 224.768-80.896 304.64-229.376 324.096-272.896 46.08-104.448 40.96-225.28-15.36-359.424 0-0.512-1.024-1.024-1.536-1.024-8.704-1.024-22.016-2.048-37.888-2.048z" fill="#707070" p-id="6401"></path><path d="M651.94666666 446.464c-46.592 0-84.48-37.888-84.48-84.48s37.888-84.48 84.48-84.48 84.48 37.888 84.48 84.48c-0.512 46.592-37.888 84.48-84.48 84.48z m0-117.248c-18.432 0-33.28 14.848-33.28 33.28s14.848 33.28 33.28 33.28 33.28-14.848 33.28-33.28-14.848-33.28-33.28-33.28z" fill="#707070" p-id="6402"></path><path d="M240.46933333 910.848c26.112 1.024 110.592-3.584 113.664-113.152 0-4.096-2.048-8.192-5.12-10.24l-32.768-23.552c-3.072-2.56-7.68-3.072-11.264-1.536-25.088 8.704-114.688 48.128-74.752 141.312 1.536 4.608 5.632 7.168 10.24 7.168z" fill="#FFFFFF" p-id="6403"></path><path d="M267.43466666 931.84h-6.656c-12.288-0.512-23.552-8.192-28.672-19.968-14.336-33.792-15.36-65.024-3.072-93.184 19.968-46.08 69.632-67.584 90.112-75.264 10.24-3.584 21.504-2.048 30.208 4.096l32.768 23.552c9.216 6.144 14.336 16.896 13.824 27.648-1.536 44.032-14.848 77.824-39.424 100.864-29.696 28.16-68.608 32.256-89.088 32.256zM329.38666666 783.36c-15.36 6.144-49.664 22.016-62.464 51.2-7.168 16.384-6.656 34.816 1.024 55.808 14.336 0 40.96-3.072 60.416-20.992 15.872-14.848 24.576-37.376 26.624-68.096l-25.6-17.92z" fill="#707070" p-id="6404"></path></svg>
