<?xml version="1.0" standalone="no"?><!DOCTYPE svg PUBLIC "-//W3C//DTD SVG 1.1//EN" "http://www.w3.org/Graphics/SVG/1.1/DTD/svg11.dtd"><svg t="1762192995842" class="icon" viewBox="0 0 1024 1024" version="1.1" xmlns="http://www.w3.org/2000/svg" p-id="80189" xmlns:xlink="http://www.w3.org/1999/xlink" width="64" height="64"><path d="M40.228571 146.285714C40.228571 87.698286 87.771429 40.228571 146.285714 40.228571h585.142857c58.514286 0 106.057143 47.469714 106.057143 106.057143v146.285715a32.914286 32.914286 0 1 1-65.828571 0V146.285714a40.228571 40.228571 0 0 0-40.228572-40.228571H146.285714a40.228571 40.228571 0 0 0-40.228571 40.228571v731.428572c0 22.235429 17.993143 40.228571 40.228571 40.228571h585.142857a40.228571 40.228571 0 0 0 40.228572-40.228571v-146.285715a32.914286 32.914286 0 0 1 65.828571 0v146.285715c0 58.514286-47.542857 106.057143-106.057143 106.057143H146.285714C87.771429 983.771429 40.228571 936.228571 40.228571 877.714286V146.285714z m182.857143 146.285715a32.914286 32.914286 0 0 1 32.914286-32.914286h365.714286a32.914286 32.914286 0 0 1 0 65.828571h-365.714286A32.914286 32.914286 0 0 1 223.085714 292.571429z m32.914286 149.942857a32.914286 32.914286 0 0 0 0 65.828571h292.571429a32.914286 32.914286 0 1 0 0-65.828571h-292.571429zM223.085714 658.285714a32.914286 32.914286 0 0 1 32.914286-32.914285h219.428571a32.914286 32.914286 0 0 1 0 65.828571h-219.428571A32.914286 32.914286 0 0 1 223.085714 658.285714z m754.102857-345.965714a32.914286 32.914286 0 0 0-52.662857-39.497143l-329.142857 438.857143a32.914286 32.914286 0 1 0 52.662857 39.497143l329.142857-438.857143z" p-id="80190"></path></svg>