<svg t="1783752569995" class="icon" viewBox="0 0 1024 1024" version="1.1" xmlns="http://www.w3.org/2000/svg" p-id="133996" width="200" height="200"><path d="M65.344 906.752c0-27.456 13.76-41.152 41.152-41.152h798.848c27.456 0 41.152 13.696 41.152 41.152 0 27.392-13.696 41.152-41.152 41.152H106.496c-27.392 0-41.152-13.76-41.152-41.152z m0-801.6c0-27.456 13.76-41.152 41.152-41.152h876.352c27.456 0 41.152 13.696 41.152 41.152 0 27.392-13.696 41.152-41.152 41.152H106.496c-27.392 0-41.152-13.76-41.152-41.152z m39.808 842.752c-27.456 0-41.152-13.76-41.152-41.152V105.152C64 77.696 77.696 64 105.152 64c27.392 0 41.152 13.696 41.152 41.152v801.6c0 27.392-13.76 41.152-41.152 41.152z m91.2-329.856l115.84-309.248a62.4 62.4 0 0 1 59.712-46.656c28.416 1.088 53.312 19.648 62.4 46.656L544 618.048c0.896 7.424 2.56 14.784 4.8 21.952 0 22.656-15.104 33.6-40.448 33.6a39.04 39.04 0 0 1-41.856-26.752l-15.744-53.504H294.4l-17.856 53.504a42.496 42.496 0 0 1-42.496 26.752 34.304 34.304 0 0 1-39.744-35.648V622.08a6.144 6.144 0 0 0 2.048-4.096zM371.84 351.36l-53.504 164.608h106.944l-53.44-164.608z m204.992 282.56V313.6a39.04 39.04 0 0 1 41.856-43.904h102.848a137.152 137.152 0 0 1 144 137.152A133.056 133.056 0 0 1 723.648 544h-62.4v89.856a37.76 37.76 0 0 1-42.496 39.744c-28.16 0-41.856-13.056-41.856-39.744z m84.352-289.408v120h57.6a56.256 56.256 0 0 0 58.24-57.6 58.944 58.944 0 0 0-58.24-60.352l-57.6-2.048z m231.04 289.408V308.8a39.744 39.744 0 0 1 42.56-44.544 40.448 40.448 0 0 1 41.856 44.544v325.056a37.056 37.056 0 0 1-41.856 39.744c-28.16 0-42.496-13.056-42.496-39.744z" fill="#2194FF" p-id="133997"></path><path d="M1018.496 895.744l-137.152-103.488a13.696 13.696 0 0 0-21.888 10.944v205.696a13.696 13.696 0 0 0 21.888 11.008l137.152-103.552a13.696 13.696 0 0 0 0-20.608z" fill="#2194FF" p-id="133998"></path></svg>
