<svg t="1783695427131" class="icon" viewBox="0 0 1280 1024" version="1.1" xmlns="http://www.w3.org/2000/svg" p-id="108725" width="200" height="200"><path d="M521.314776 34.136745L250.370354 503.401839v-5.271491L0.000102 425.19952l5.117953-8.751699L250.370354 0.05118l2.507797 2.507796h242.898041l25.538584 31.577769z" fill="#FFA47F" p-id="108726"></path><path d="M803.365156 2.558976L250.370354 960.332667V498.130348l-24.514994-7.113955L502.838967 11.259496l137.109956 169.916034 144.22391-178.616554h19.192323z" fill="#FFD67F" p-id="108727"></path><path d="M250.370354 868.004798l414.042383-717.076369 119.760096-148.369453h157.172331l78.15114 45.140344L455.85616 1023.94882H250.370354v-155.944022z" fill="#FFFA7F" p-id="108728"></path><path d="M711.702621 1023.94882H416.243205L1005.933729 2.558976h21.137145l2.507797-2.507796 138.031187 234.29988L711.702621 1023.94882z" fill="#A1FF7F" p-id="108729"></path><path d="M1005.114856 1023.94882H709.604261l456.930827-791.440223 113.465014 192.690923-250.421431 72.930828v483.390644l-24.463815 42.427828z" fill="#7FE9FF" p-id="108730"></path></svg>
