<svg t="1752857072255" class="icon" viewBox="0 0 1024 1024" version="1.1" xmlns="http://www.w3.org/2000/svg" p-id="17641" width="32" height="32"><path d="M512 64.98C265.12 64.98 64.98 265.12 64.98 512S265.12 959.02 512 959.02 959.02 758.88 959.02 512 758.88 64.98 512 64.98zM768.96 342.6l-320.7 320.7H725.2c34.18 0 61.9 27.71 61.9 61.9s-27.71 61.9-61.9 61.9H298.81c-34.18 0-61.9-27.71-61.9-61.9 0-17.35 7.15-33.03 18.65-44.27L575.79 360.7H298.81c-34.18 0-61.9-27.71-61.9-61.9s27.71-61.9 61.9-61.9H725.2c34.18 0 61.9 27.71 61.9 61.9 0 17.1-6.93 32.58-18.14 43.78v0.02z" fill="#3B6EA5" p-id="17642"></path></svg>
