<?xml version="1.0" standalone="no"?><!DOCTYPE svg PUBLIC "-//W3C//DTD SVG 1.1//EN" "http://www.w3.org/Graphics/SVG/1.1/DTD/svg11.dtd"><svg t="1762005976537" class="icon" viewBox="0 0 1024 1024" version="1.1" xmlns="http://www.w3.org/2000/svg" p-id="7482" xmlns:xlink="http://www.w3.org/1999/xlink" width="32" height="32"><path d="M151.008 389.025h357.025v59.504H151.008z m0 119.008h238.017v59.504H151.008z m0-238.016h476.033v59.504H151.008z" p-id="7483"></path><path d="M91.504 151.008h119.008v59.504h59.505v-59.504h238.016v59.504h59.504v-59.504h119.008V369.19h59.505V170.843c0-43.636-35.703-79.339-79.34-79.339h-99.173V32h-59.504v59.504H270.017V32h-59.505v59.504H111.34C67.702 91.504 32 127.207 32 170.843v674.38c0 43.637 35.702 79.339 79.339 79.339H329.52v-59.504H91.504v-714.05z" p-id="7484"></path><path d="M984.066 436.628l-39.67-39.67-83.305 83.306c-81.322-63.47-200.33-57.52-273.72 17.852L882.91 793.653c75.372-75.372 81.322-192.397 17.851-273.72l83.306-83.305zM874.976 700.43L680.594 506.05c53.554-21.819 117.025-9.918 160.661 33.719 43.637 43.636 53.554 107.107 33.72 160.66zM746.05 734.149l-59.505 59.504-99.173-99.174 59.504-59.504-39.67-39.67-59.504 59.505-59.504-59.504c-75.372 75.372-81.322 192.396-17.85 273.719l-81.323 83.306L428.695 992 512 908.694c81.322 63.471 200.33 57.52 273.719-17.851l-59.504-59.504 59.504-59.504-39.67-37.686zM531.835 849.19c-43.637-43.636-53.554-107.107-33.72-160.661l194.38 194.38c-53.553 19.835-117.024 9.917-160.66-33.719z" p-id="7485"></path></svg>