<svg t="1767119464631" class="icon" viewBox="0 0 1024 1024" version="1.1" xmlns="http://www.w3.org/2000/svg" p-id="112908" width="200" height="200"><path d="M841.1648 102.4H183.1424a54.784 54.784 0 0 0-54.9888 54.6304v652.5952h0.3584c0 61.8496 50.432 111.9744 112.64 111.9744h652.3392a2.6112 2.6112 0 0 0 2.6112-2.56v-204.4416h0.0512V157.0304A54.784 54.784 0 0 0 841.1648 102.4zM331.8784 314.7264h360.5504c13.568 0 24.5248 10.9056 24.5248 24.3712s-11.008 24.3712-24.5248 24.3712H331.8784a24.4224 24.4224 0 1 1 0-48.7424z m0 181.0432h360.5504c13.568 0 24.5248 10.9056 24.5248 24.3712a24.4736 24.4736 0 0 1-24.5248 24.3712H331.8784a24.4224 24.4224 0 1 1 0-48.7424z m511.7952 373.76H241.152a60.1088 60.1088 0 0 1-60.2624-59.8528c0-33.024 27.0336-59.8528 60.2624-59.8528h602.5216v119.7056z" p-id="112909"></path></svg>
