<svg t="1770657178643" class="icon" viewBox="0 0 1024 1024" version="1.1" xmlns="http://www.w3.org/2000/svg" p-id="10843" width="200" height="200"><path d="M590.4 284l-23.2-16.8-40 29.6v-104h-32.8v104l-40.8-29.6-22.4 16.8 79.2 59.2z" p-id="10844"></path><path d="M640.8 323.2H608v35.2H413.6v-35.2h-32.8v59.2h260z" p-id="10845"></path><path d="M920 103.2c-24.8-24.8-57.6-38.4-92.8-38.4H194.4c-34.4 0-68 13.6-92 37.6S64 160 64 194.4v633.6c0 34.4 13.6 68 38.4 92 24.8 24.8 57.6 38.4 92 38.4h633.6c34.4 0 68-13.6 92.8-37.6 24.8-24.8 38.4-57.6 37.6-92.8V195.2c0-34.4-13.6-68-38.4-92zM334.4 208c32-48 98.4-80 176-80 98.4 0 178.4 52 197.6 120 66.4 4 122.4 48 122.4 100 0 56-58.4 100-133.6 100H350.4c-88 0-160-54.4-160-120 0-62.4 61.6-112 144-120z m514.4 517.6H724.8c-6.4 0-12-1.6-16.8-4.8-2.4-1.6-4.8-3.2-7.2-5.6l-49.6-52.8L536 820.8c-7.2 8.8-17.6 13.6-28 13.6h-2.4c-12.8-0.8-24.8-8-30.4-20-0.8-0.8-0.8-1.6-1.6-3.2L400 633.6l-48.8 75.2c-4.8 7.2-12 12-20 14.4h-0.8c-0.8 0-1.6 0.8-1.6 0.8l-1.6 0.8H161.6c-19.2 0-35.2-16-35.2-35.2V688c0-18.4 15.2-35.2 35.2-35.2h140l72-110.4c3.2-8.8 9.6-15.2 18.4-19.2 4-2.4 8-3.2 12.8-3.2h4.8c8.8 0.8 16.8 4 23.2 10.4 5.6 4.8 8.8 11.2 10.4 18.4l72 176.8L617.6 584c6.4-8.8 16.8-14.4 28-14.4h2.4c9.6 0.8 17.6 4.8 24 11.2l68.8 73.6H848c19.2 0.8 34.4 16 35.2 35.2v2.4c0 16.8-14.4 33.6-34.4 33.6z" p-id="10846"></path></svg>
