<svg t="1782400514794" class="icon" viewBox="0 0 1024 1024" version="1.1" xmlns="http://www.w3.org/2000/svg" p-id="21546" width="200" height="200"><path d="M689.365333 899.626667H334.464a86.144 86.144 0 0 1-86.144-86.144v-226.517334a65.024 65.024 0 0 1-37.888-16.384l-107.221333-96.896a67.2 67.2 0 0 1-5.546667-93.269333l204.586667-238.933333a60.757333 60.757333 0 0 1 18.944-13.781334c5.589333-3.029333 13.781333-3.029333 57.258666-3.029333a24.96 24.96 0 0 1 24.106667 22.4 110.250667 110.250667 0 0 0 219.648 0 24.533333 24.533333 0 0 1 24.106667-22.4h43.050666a32.725333 32.725333 0 0 1 11.178667 2.602667 61.610667 61.610667 0 0 1 17.066667 15.488v2.133333l208.426666 238.165333a65.877333 65.877333 0 0 1-6.016 93.013334l-109.397333 96.469333a66.773333 66.773333 0 0 1-34.901333 15.914667v225.237333a86.144 86.144 0 0 1-86.570667 86.144z" p-id="21547"></path></svg>
