<svg t="1752855329316" class="icon" viewBox="0 0 1024 1024" version="1.1" xmlns="http://www.w3.org/2000/svg" p-id="16657" width="32" height="32"><path d="M12.223972 1023.569935c0-241.040971 154.551907-442.126892 359.728562-487.713739C230.71727 472.810773 167.328819 307.205181 230.374242 165.969917 293.424785 24.729534 459.025256-38.653797 600.26052 24.391626c141.240384 63.045423 204.623714 228.651014 141.578292 369.886278a280.069334 280.069334 0 0 1-163.055923 150.118146 414.80755 414.80755 0 0 1 28.578817 9.958043 228.707332 228.707332 0 0 0-9.999002 66.373304v20.904212a121.063186 121.063186 0 0 0-57.439224 105.58086v207.383296a125.947491 125.947491 0 0 0 19.921207 69.010009l-547.620715-0.035839z m638.405305-2.088885c-36.965077 0-66.921124-29.961167-66.921124-66.921124v-207.383296c-0.040959-35.75168 28.025877-65.221345 63.731478-66.921124v-59.046846c0-83.094625 67.361428-150.461173 150.461174-150.461174s150.461173 67.366548 150.461173 150.461174v59.046846c35.674883 1.530825 63.613723 31.225762 62.983985 66.921124v207.383296c0 36.965077-29.961167 66.921124-66.916004 66.921124h-293.800682z m133.847368-232.460158v134.753576a13.035053 13.035053 0 0 0 26.064987 0.020479v-134.774055a13.045293 13.045293 0 0 0-13.024814-13.040173 13.040173 13.040173 0 0 0-13.040173 13.024814v0.015359z m-107.116805-167.776393v59.046846h241.276482v-59.046846c0-66.629295-54.008946-120.643361-120.638241-120.643361s-120.638241 54.014066-120.638241 120.643361z" p-id="16658"></path></svg>
