<svg t="1783438726722" class="icon" viewBox="0 0 1024 1024" version="1.1" xmlns="http://www.w3.org/2000/svg" p-id="96679" width="200" height="200"><path d="M710.4 569.6c-28.8-22.4-64-38.4-99.2-51.2 64-41.6 105.6-115.2 105.6-198.4 0-131.2-108.8-240-240-240S236.8 188.8 236.8 320c0 83.2 41.6 156.8 105.6 198.4-137.6 48-243.2 172.8-262.4 323.2-3.2 19.2 12.8 35.2 32 35.2 16 0 28.8-9.6 32-25.6 22.4-166.4 163.2-294.4 332.8-294.4 73.6 0 137.6 22.4 195.2 60.8 12.8 9.6 28.8 9.6 38.4 0 16-9.6 16-35.2 0-48z m-233.6-73.6c-96 0-176-80-176-176s80-176 176-176S652.8 224 652.8 320s-76.8 176-176 176z" fill="#4885E7" p-id="96680"></path><path d="M908.8 812.8V800v-12.8l32-22.4c3.2-3.2 3.2-6.4 3.2-9.6l-32-51.2c-3.2-3.2-6.4-3.2-9.6-3.2l-38.4 12.8c-6.4-6.4-16-9.6-25.6-12.8l-6.4-38.4c0-3.2-3.2-6.4-6.4-6.4H768c-3.2 0-6.4 3.2-6.4 6.4l-6.4 38.4c-9.6 3.2-16 9.6-25.6 12.8l-38.4-12.8c-3.2 0-6.4 0-9.6 3.2l-28.8 51.2c-3.2 3.2 0 6.4 3.2 9.6l32 22.4v25.6l-32 22.4c-3.2 3.2-3.2 6.4-3.2 9.6l28.8 51.2c3.2 3.2 6.4 3.2 9.6 3.2l38.4-16c6.4 6.4 16 9.6 25.6 12.8l6.4 38.4c0 3.2 3.2 6.4 6.4 6.4h57.6c3.2 0 6.4-3.2 6.4-6.4l6.4-38.4c9.6-3.2 16-9.6 25.6-12.8l38.4 16c3.2 0 6.4 0 9.6-3.2l28.8-51.2c3.2-3.2 0-6.4-3.2-9.6l-28.8-22.4z m-112 38.4c-28.8 0-51.2-22.4-51.2-51.2 0-28.8 22.4-51.2 51.2-51.2 28.8 0 51.2 22.4 51.2 51.2 3.2 28.8-22.4 51.2-51.2 51.2z" fill="#F03C42" p-id="96681"></path></svg>
