<svg t="1784647136899" class="icon" viewBox="0 0 1024 1024" version="1.1" xmlns="http://www.w3.org/2000/svg" p-id="8765" width="200" height="200"><path d="M512 512m-512 0a512 512 0 1 0 1024 0 512 512 0 1 0-1024 0Z" fill="#EA7185" opacity=".14" p-id="8766"></path><path d="M392.715636 319.639273a77.498182 77.498182 0 1 0-77.498181 77.486545 77.521455 77.521455 0 0 0 77.498181-77.486545z m135.598546 38.749091a58.112 58.112 0 1 0-58.112-58.112 58.181818 58.181818 0 0 0 58.112 58.112z m193.722182-77.486546a58.112 58.112 0 1 0 58.181818 58.112 58.181818 58.181818 0 0 0-58.181818-58.112z m-197.899637 116.968727c-46.650182-0.733091-99.723636 6.469818-142.219636 44.125091s-37.236364 131.735273 22.888727 157.032728 73.425455 68.968727 57.309091 123.345454 11.380364 100.933818 80.162909 100.933818c118.551273 0 160.395636-111.080727 160.395637-235.52 0-135.330909-53.189818-188.020364-178.536728-189.928727z m0 0" fill="#EA7185" p-id="8767"></path></svg>
