<svg t="1767118749629" class="icon" viewBox="0 0 1024 1024" version="1.1" xmlns="http://www.w3.org/2000/svg" p-id="86580" width="200" height="200"><path d="M153.6 563.2v153.6l358.4 204.8 358.4-204.8v-153.6h102.4v204.8l-460.8 256-460.8-256.1024V563.2h102.4z m358.4-153.6l51.2 153.6h256v102.4l-307.2 153.6-307.2-153.6v-102.4h256l51.2-153.6z m0-230.4L819.2 358.4v153.6h-203.776L512 256l-102.4 256H204.8V358.4l307.2-179.2zM512 0l460.8 256.1024V512h-102.4V307.2l-358.4-204.8-358.4 204.8v204.8H51.2V256.1024L512 0z" p-id="86581"></path></svg>
