<svg t="1784647279771" class="icon" viewBox="0 0 1024 1024" version="1.1" xmlns="http://www.w3.org/2000/svg" p-id="14678" width="200" height="200"><path d="M512 512m-512 0a512 512 0 1 0 1024 0 512 512 0 1 0-1024 0Z" fill="#FEEEF5" p-id="14679"></path><path d="M418.816 576.449939a60.043636 60.043636 0 0 0 17.702788-7.850666c3.10303-1.846303 5.911273-4.096 8.378182-6.702546v-1.148121a27.585939 27.585939 0 0 1-1.939394-8.828121 18.866424 18.866424 0 0 1 0-4.778667l-7.788606-7.090424a51.727515 51.727515 0 0 1-12.660364-17.625212c-1.954909-4.608-3.878788-8.998788-5.461333-13.808485v-3.444364a66.637576 66.637576 0 0 1-9.929697-10.922666 63.084606 63.084606 0 0 1-9.340121-20.495515 67.196121 67.196121 0 0 1-3.304728-28.175516c0.636121-5.678545 1.939394-11.279515 3.878788-16.663272 0.930909-2.699636 2.01697-5.321697 3.320243-7.850667 0.062061-10.193455 0.775758-20.371394 2.14109-30.471758 1.225697-10.472727 3.180606-20.836848 5.849213-31.030303h-3.894303a79.375515 79.375515 0 0 0-14.615273 1.520485 65.923879 65.923879 0 0 0-14.78594 4.406303c-5.182061 2.482424-10.084848 5.492364-14.599757 8.998788-5.15103 4.080485-9.557333 8.998788-13.032727 14.584243-4.251152 6.547394-7.462788 13.730909-9.557334 21.255757-2.07903 7.338667-3.568485 14.848-4.483879 22.419394-0.961939 8.269576-1.349818 16.585697-1.163636 24.901818a27.896242 27.896242 0 0 0-5.445818 14.568728c-0.574061 3.289212-0.574061 6.671515 0 9.960727 0.853333 2.994424 2.172121 5.833697 3.878788 8.440242 1.179152 1.629091 2.482424 3.180606 3.909818 4.592485 1.365333 0.99297 2.870303 1.768727 4.468364 2.296242l2.932363 9.960728c1.163636 2.870303 2.141091 5.554424 3.506425 8.440242 0.977455 2.373818 2.435879 4.514909 4.282181 6.314667 3.289212 2.746182 6.407758 5.678545 9.340122 8.812606 3.056485 3.258182 4.732121 7.602424 4.654545 12.070788v8.998788c0.062061 2.808242-0.403394 5.60097-1.349818 8.25406-1.132606 2.885818-2.777212 5.554424-4.871758 7.850667a46.948848 46.948848 0 0 1-10.115879 8.238545 70.252606 70.252606 0 0 1-19.471515 8.440243c-5.057939 1.334303-22.590061 7.664485-34.459151 11.869091V678.012121h1.753212c0-4.778667 1.163636-10.146909 2.141091-17.237333v-1.923879a66.358303 66.358303 0 0 1 22.388363-42.52703 106.511515 106.511515 0 0 1 34.459152-17.826909h2.52897c35.064242-13.591273 53.930667-19.921455 60.757333-22.031515z m312.273455 8.440243h-5.833697c6.609455 2.218667 13.110303 4.778667 19.471515 7.664485v83.533575h-1.163637a34.691879 34.691879 0 0 0-1.179151-9.588363 113.338182 113.338182 0 0 0-4.282182-22.807273 69.818182 69.818182 0 0 0-20.635151-31.418182 105.316848 105.316848 0 0 0-26.872243-15.515151l-11.093333-4.794182-19.471515-8.812606a140.722424 140.722424 0 0 0-19.456-7.462788 128.512 128.512 0 0 1-19.471516-6.516364c-3.770182-1.551515-7.307636-3.61503-10.519272-6.128485 1.675636-3.335758 2.544485-7.012848 2.528969-10.736484v-8.424728a57.592242 57.592242 0 0 0 18.106182-23.381333c2.063515-4.545939 4.002909-9.153939 5.849212-13.808485v-1.132606l1.349819-4.220121c6.345697-5.213091 11.465697-11.760485 15.003151-19.161212 3.289212-7.493818 5.445818-15.437576 6.423273-23.567515 1.086061-7.105939 1.086061-14.351515 0-21.457455a61.98303 61.98303 0 0 0-7.012849-19.161212 241.353697 241.353697 0 0 0-2.327272-29.121939 191.45697 191.45697 0 0 0-6.05091-28.935758h7.788607c5.740606 0 11.434667 0.775758 16.942545 2.296242a84.433455 84.433455 0 0 1 27.849697 13.994667c3.397818 2.544485 6.407758 5.585455 8.952242 8.998788 5.399273 6.873212 9.681455 14.584242 12.644849 22.807273 2.327273 7.71103 4.096 15.592727 5.275151 23.567515 1.179152 8.626424 1.706667 17.345939 1.551516 26.065454 1.396364 0.961939 2.435879 2.373818 2.916848 4.018425 0.884364 1.846303 1.598061 3.770182 2.141091 5.740606 0.387879 2.932364 0.387879 5.895758 0 8.812606a34.102303 34.102303 0 0 1-2.916849 10.922666c-1.086061 2.389333-2.52897 4.57697-4.282181 6.516364-1.753212 1.551515-3.816727 2.730667-6.050909 3.444364-0.775758 3.459879-2.715152 6.904242-2.715152 10.162424-0.961939 2.823758-2.141091 5.585455-3.506424 8.22303a19.176727 19.176727 0 0 1-4.468364 6.531879l-5.073454 4.406303a20.635152 20.635152 0 0 0-4.468364 3.630546c-1.303273 1.411879-2.358303 3.04097-3.118545 4.809696-1.939394 5.259636-2.746182 10.860606-2.327273 16.461576 0.186182 3.506424 0.977455 6.935273 2.327273 10.162424 1.706667 3.661576 4.158061 6.919758 7.19903 9.588364 3.956364 3.413333 8.424727 6.206061 13.234424 8.22303 5.492364 2.141091 11.077818 4.002909 16.756364 5.56994z m-21.209213 51.541333c6.004364 5.08897 10.441697 11.713939 12.458667 18.385455 1.629091 5.632 2.684121 11.403636 3.10303 17.252848 0.99297 6.888727 0.99297 1.334303 0.99297 8.22303 0.03103 6.733576-0.418909 13.467152-1.365333 20.123152-0.574061 5.011394-2.01697 9.883152-4.282182 14.36703-3.475394 3.10303-7.602424 5.321697-12.086303 6.516364a595.642182 595.642182 0 0 1-172.683636 23.381333 901.228606 901.228606 0 0 1-177.369213-17.997575 86.016 86.016 0 0 1-22.000484-7.478304 36.38303 36.38303 0 0 1-6.826667-21.845333 99.591758 99.591758 0 0 1 1.768727-34.490182c1.163636-9.588364 5.647515-18.46303 12.644849-25.103515 7.13697-5.802667 15.251394-10.286545 23.955394-13.218909 9.153939-3.444364 51.587879-18.97503 61.517575-21.659151a81.609697 81.609697 0 0 0 25.506909-11.68291c5.042424-3.056485 9.619394-6.795636 13.637819-11.108848 2.854788-3.180606 5.15103-6.795636 6.811151-10.736485 1.210182-3.646061 1.861818-7.447273 1.939394-11.29503v-12.644849a25.258667 25.258667 0 0 0-6.609454-16.492606 163.777939 163.777939 0 0 0-12.862061-12.070788c-2.59103-2.482424-4.654545-5.492364-6.035394-8.812606-1.598061-3.723636-3.10303-7.478303-4.468364-11.29503l-4.282181-13.994667a17.997576 17.997576 0 0 1-6.05091-3.056484 50.781091 50.781091 0 0 1-5.430303-6.330182 35.157333 35.157333 0 0 1-5.073454-11.682909 34.381576 34.381576 0 0 1-1.551515-13.606788 48.562424 48.562424 0 0 1 3.10303-9.774546c1.179152-3.382303 2.901333-6.547394 5.073455-9.386666-0.915394-21.721212 1.318788-43.473455 6.609454-64.574061 2.715152-10.333091 7.043879-20.169697 12.846546-29.121939a90.453333 90.453333 0 0 1 40.308363-32.380122c6.221576-2.792727 12.76897-4.871758 19.471515-6.128484A120.645818 120.645818 0 0 1 532.123152 294.787879a86.884848 86.884848 0 0 1 23.365818 3.072 139.636364 139.636364 0 0 1 21.02303 7.850666c6.11297 3.04097 11.853576 6.764606 17.128727 11.108849 4.716606 3.490909 8.905697 7.602424 12.458667 12.25697a102.818909 102.818909 0 0 1 15.778909 31.619878c3.506424 10.534788 5.988848 21.379879 7.400727 32.380122 1.691152 11.869091 2.404848 23.862303 2.141091 35.84a10.550303 10.550303 0 0 1 4.080485 5.554424c1.256727 2.544485 2.172121 5.259636 2.730667 8.052364 0.682667 3.987394 0.682667 8.067879 0 12.070787a48.841697 48.841697 0 0 1-3.894303 14.941091 31.650909 31.650909 0 0 1-6.237091 8.812606 19.42497 19.42497 0 0 1-6.811152 4.980364c-1.163636 4.608-2.141091 9.960727-3.692606 13.808485-1.551515 3.816727-3.118545 7.64897-4.871757 11.481212a31.247515 31.247515 0 0 1-6.237091 8.626424 54.721939 54.721939 0 0 1-7.199031 6.128485 37.313939 37.313939 0 0 0-5.833697 4.980364c-1.830788 1.892848-3.273697 4.096-4.282181 6.516363-2.901333 7.292121-4.158061 15.158303-3.708122 22.993455a38.353455 38.353455 0 0 0 13.032728 27.011879c5.368242 4.763152 11.481212 8.595394 18.121697 11.310545 7.555879 3.072 15.297939 5.694061 23.164121 7.850667 8.378182 1.349818 41.859879 17.43903 49.462303 20.51103 7.354182 3.04097 14.30497 7.028364 20.635151 11.869091z m-152.451878 62.060606l0.201697 0.387879a11.434667 11.434667 0 0 0 3.10303-6.314667 61.750303 61.750303 0 0 0-1.163636-9.386666c-0.775758-4.608-2.916848-9.588364-2.916849-14.754909l-3.506424-15.903031c-0.977455-5.368242-2.916848-9.386667-2.916849-12.846545 2.947879-2.389333 5.616485-5.073455 7.974788-8.036849 1.799758-2.606545 2.823758-5.66303 2.932364-8.812606a12.132848 12.132848 0 0 0-2.327273-7.292121c-1.334303-2.482424-3.118545-4.685576-5.275151-6.516364l-7.199031-6.516363h-21.02303a59.919515 59.919515 0 0 0-7.214545 6.516363 30.006303 30.006303 0 0 0-4.654546 6.144 14.956606 14.956606 0 0 0-2.156606 7.292122 12.288 12.288 0 0 0 2.327273 7.074909c2.172121 3.180606 4.716606 6.081939 7.602424 8.626424-1.163636 3.832242-1.753212 6.516364-3.304727 11.682909-1.56703 5.244121-2.947879 10.550303-4.096 15.90303-1.163636 5.368242-3.304727 10.736485-3.304728 15.515152-0.791273 3.661576-1.241212 7.385212-1.365333 11.124364 0.356848 2.327273 1.458424 4.468364 3.10303 6.128484a62.060606 62.060606 0 0 0 7.602425 8.223031c2.746182 2.52897 5.678545 4.825212 8.76606 6.904242 1.846303 1.365333 3.971879 2.280727 6.237091 2.684121a12.753455 12.753455 0 0 0 6.609455-2.870303c3.072-2.01697 5.942303-4.344242 8.564363-6.888727 2.684121-2.482424 5.15103-5.182061 7.400728-8.067879z" fill="#E50065" p-id="14680"></path></svg>
