<svg t="1769164993749" class="icon" viewBox="0 0 1024 1024" version="1.1" xmlns="http://www.w3.org/2000/svg" p-id="11527" width="200" height="200"><path d="M630.2 314.99H275.6c-21.76 0-39.4 17.64-39.4 39.4 0 20.08 15.03 36.66 34.46 39.09l4.94 0.31h354.6c21.76 0 39.4-17.64 39.4-39.4 0-21.76-17.64-39.4-39.4-39.4zM512 472.58H275.6c-21.76 0-39.4 17.64-39.4 39.4 0 20.09 15.03 36.66 34.46 39.09l4.94 0.31H512c21.76 0 39.4-17.64 39.4-39.4 0-21.76-17.64-39.4-39.4-39.4z m-78.8 157.59H275.6c-21.76 0-39.4 17.64-39.4 39.4 0 20.09 15.03 36.66 34.46 39.09l4.94 0.31h157.6c21.76 0 39.4-17.64 39.4-39.4 0-21.76-17.64-39.4-39.4-39.4z m304.64-117.84l2.49 0.22a118.798 118.798 0 0 1 7.91 1.06c2.16 0.37 4.29 0.79 6.4 1.28 0.59 0.13 1.16 0.27 1.73 0.41 2.25 0.55 4.47 1.17 6.66 1.85 0.48 0.15 0.98 0.31 1.49 0.47 1.76 0.57 3.47 1.18 5.17 1.82 0.85 0.32 1.71 0.66 2.56 1l0.76 0.31c4.72 1.96 9.29 4.22 13.69 6.76 0.36 0.21 0.73 0.43 1.1 0.64 35.36 20.97 59.09 60.1 59.09 104.93 0 42.7-21.57 79.95-54.08 101.45C859.02 756.97 906 813.59 906 890.51c0 8.48-6.5 15.14-14.78 15.14H566.18c-8.27 0-14.78-6.66-14.78-15.14 0-76.92 46.98-133.55 113.18-155.96-32.51-21.5-54.08-58.75-54.08-101.45 0-66.92 52.89-121.13 118.2-121.13l7.77 0.26 1.37 0.1zM748.4 118c21.76 0 39.4 17.64 39.4 39.4l0.02 305.73c-18.47-6.63-38.37-10.24-59.12-10.24-98.27 0-177.3 80.98-177.3 180.23l0.25 9.67c1.35 25.65 8.02 50.18 19.17 72.28l1.81 3.41-0.96 0.83c-49.61 40.75-79.38 101.25-79.38 171.23 0 5.31 0.55 10.49 1.6 15.49l-336.5-0.04c-21.76 0-39.4-17.64-39.4-39.4V157.4c0-21.76 17.64-39.4 39.4-39.4H748.4z" p-id="11528"></path></svg>
