<svg t="1784736257287" class="icon" viewBox="0 0 1024 1024" version="1.1" xmlns="http://www.w3.org/2000/svg" p-id="38845" width="200" height="200"><path d="M156.859947 201.663647v705.368013l149.323651-48.143813 208.196974 83.223196 221.261404-83.223196 128.754123 48.143813V201.663647H156.804354z" fill="#EDEEFF" p-id="38846"></path><path d="M955.847106 168.641217V918.984223c0 17.289522-6.115265 31.910564-18.512574 43.863128-12.23053 11.785783-27.129539 17.734268-44.752621 17.734268-10.39595 0-21.570207-3.057632-33.52277-9.061711l-1.50102-0.778306-0.389153-0.389153-117.857833-71.71538-205.806462 124.806998-224.041069-125.251745-149.601618 80.832684-0.111186 0.055593c-16.122062 8.172218-32.355311 9.784424-48.810933 4.836619a57.81705 57.81705 0 0 1-36.35803-30.465138c-4.447465-7.227131-6.671198-16.955962-6.671198-29.353272V167.584944C67.910639 121.053337 84.366261 81.526488 117.277505 48.837618A162.999607 162.999607 0 0 1 236.469578 0.026685h550.874183a162.332487 162.332487 0 0 1 119.13648 49.422459c32.911244 32.911244 49.366866 72.660466 49.366865 119.192073zM166.755558 861.222766L306.961904 784.170428l223.485137 122.305299 208.919687-125.196151 112.687655 68.602154V194.881263c0-26.128859-9.284084-48.477373-27.796659-66.989948a91.339821 91.339821 0 0 0-67.045541-27.796659H261.542164c-26.128859 0-48.532966 9.284084-67.045541 27.796659-18.512575 18.512575-27.796659 40.861088-27.796659 66.989948v666.341503z" fill="#222222" p-id="38847"></path><path d="M697.226993 304.066538a43.918721 43.918721 0 0 1 13.39799 31.854971 43.918721 43.918721 0 0 1-13.39799 31.854971 42.862448 42.862448 0 0 1-31.521411 13.620363H348.100959a42.806854 42.806854 0 0 1-31.577004-13.675956 43.918721 43.918721 0 0 1-13.342396-31.799378c0-12.23053 4.447465-22.79326 13.397989-31.854971a42.862448 42.862448 0 0 1 31.521411-13.675956h317.604623c12.06375 0 22.515294 4.558652 31.521411 13.675956z m0 213.14478a43.918721 43.918721 0 0 1 13.39799 31.854971 43.918721 43.918721 0 0 1-13.39799 31.85497 42.862448 42.862448 0 0 1-31.521411 13.620363H348.100959a42.806854 42.806854 0 0 1-31.577004-13.675956 43.918721 43.918721 0 0 1-13.342396-31.799377c0-12.174937 4.447465-22.79326 13.397989-31.854971a42.862448 42.862448 0 0 1 31.521411-13.675957h317.604623a42.806854 42.806854 0 0 1 31.521411 13.675957z" fill="#4E50D8" p-id="38848"></path></svg>
