<svg t="1781362995890" class="icon" viewBox="0 0 1024 1024" version="1.1" xmlns="http://www.w3.org/2000/svg" p-id="5397" width="200" height="200"><path d="M579.669333 213.333333A85.333333 85.333333 0 0 1 640 238.336L742.997333 341.333333A85.333333 85.333333 0 0 1 768 401.664V853.333333a85.333333 85.333333 0 0 1-85.333333 85.333334H213.333333a85.333333 85.333333 0 0 1-85.333333-85.333334V298.666667a85.333333 85.333333 0 0 1 85.333333-85.333334h366.336z m0 85.333334H213.333333v554.666666h469.333334V401.664L579.669333 298.666667z m128-213.333334A85.333333 85.333333 0 0 1 768 110.336L870.997333 213.333333A85.333333 85.333333 0 0 1 896 273.664V725.333333a85.333333 85.333333 0 0 1-85.333333 85.333334V273.664L707.669333 170.666667H256a85.333333 85.333333 0 0 1 85.333333-85.333334h366.336zM576 618.666667v85.333333h-256v-85.333333h256z m0-170.666667v85.333333h-256v-85.333333h256z" p-id="5398"></path></svg>
