<svg t="1783695596801" class="icon" viewBox="0 0 1024 1024" version="1.1" xmlns="http://www.w3.org/2000/svg" p-id="115075" width="200" height="200"><path d="M621.3 63.9H226.6c-47.2 0-85.8 38.6-85.8 85.8v686c0 47.2 38.6 85.8 85.8 85.8h374.6c-16.3-27.2-25.9-59-25.9-93.1 0-100.3 81.3-181.6 181.6-181.6 24.8 0 48.4 5 70 14V269.4L621.3 63.9zM253.4 205.1h235.8c17.7 0 32.2 14.5 32.2 32.2s-14.5 32.2-32.2 32.2H253.4c-17.7 0-32.2-14.5-32.2-32.2s14.5-32.2 32.2-32.2z m107.2 558.2H253.4c-17.7 0-32.2-14.5-32.2-32.2 0-17.7 14.5-32.2 32.2-32.2h107.2c17.7 0 32.2 14.5 32.2 32.2 0 17.7-14.5 32.2-32.2 32.2z m375.2-225.5c0 17.7-14.5 32.2-32.2 32.2H253.4c-17.7 0-32.2-14.5-32.2-32.2V430.6c0-17.7 14.5-32.2 32.2-32.2h450.2c17.7 0 32.2 14.5 32.2 32.2v107.2z" fill="#FC6053" p-id="115076"></path><path d="M621.3 63.9l205.6 205.6H664.2c-23.7 0-42.9-19.2-42.9-42.9V63.9z" fill="#FFD2D2" p-id="115077"></path><path d="M878.1 848l8.4 3.2-2.2 8.7c-2.8 10.8-6.9 21.3-12.4 31l-1.9 3.2-4.6 7.7-8.2-3.6c-8.3-3.7-18-1.9-24.4 4.5-6 6.1-8 15.1-5 23.1l0.5 1.3 3.6 8.2-7.7 4.6c-9.6 5.7-19.9 10.1-30.6 13.2l-3.6 1-8.7 2.2-3.2-8.4c-3.2-8.5-11.3-14.1-20.4-14.1-8.6 0-16.4 5.1-19.9 12.9l-0.5 1.2-3.2 8.3-8.7-2.2c-10.8-2.8-21.3-6.9-31-12.3l-3.2-1.9-7.7-4.6 3.7-8.2c3.7-8.3 1.9-18-4.5-24.4-6-6.1-15.1-8-23.1-5l-1.3 0.5-8.2 3.6-4.6-7.7c-5.7-9.6-10.1-19.9-13.2-30.6l-1-3.6-2.2-8.7 8.4-3.2c8.5-3.2 14.1-11.3 14.1-20.4 0-8.6-5.1-16.4-12.9-19.9l-1.2-0.5-8.3-3.2 2.2-8.7c2.8-10.9 6.9-21.3 12.3-31l1.9-3.2 4.6-7.7 8.2 3.6c8.3 3.7 18 1.9 24.4-4.5 6-6.1 8-15.1 5-23.1l-0.5-1.3-3.6-8.2 7.7-4.6c9.6-5.7 19.9-10.1 30.6-13.2l3.6-1 8.7-2.2 3.2 8.4c3.2 8.5 11.3 14.1 20.4 14.1 8.6 0 16.4-5.1 19.9-12.9l0.5-1.2 3.2-8.3 8.7 2.2c10.9 2.8 21.3 6.9 31 12.3l3.2 1.9 7.7 4.6-3.7 8.2c-3.7 8.3-1.9 18 4.5 24.4 6 6.1 15.1 8 23.1 5l1.3-0.5 8.2-3.6 4.6 7.7c5.7 9.6 10.1 19.9 13.2 30.6l1 3.6 2.2 8.7-8.4 3.2c-8 3-13.5 10.5-14.1 19.1v2.8c0.5 8 5.4 15.2 12.8 18.5l1.3 0.4z m-120.3-62.5c-23.2 0-42.1 18.9-42.1 42.1 0 22.6 17.9 41.2 40.5 42.1h3.2c22.6-0.9 40.5-19.4 40.5-42.1 0-23.3-18.9-42.1-42.1-42.1z" fill="#FC6053" p-id="115078"></path></svg>
