<svg t="1783437355830" class="icon" viewBox="0 0 1024 1024" version="1.1" xmlns="http://www.w3.org/2000/svg" p-id="11505" width="200" height="200"><path d="M102.4 102.4m136.533333 0l546.133334 0q136.533333 0 136.533333 136.533333l0 546.133334q0 136.533333-136.533333 136.533333l-546.133334 0q-136.533333 0-136.533333-136.533333l0-546.133334q0-136.533333 136.533333-136.533333Z" fill="#228CE6" p-id="11506"></path><path d="M512 102.4h273.066667a136.533333 136.533333 0 0 1 136.533333 136.533333v546.133334a136.533333 136.533333 0 0 1-136.533333 136.533333H238.933333a136.533333 136.533333 0 0 1-136.533333-136.533333v-273.066667C102.4 285.7984 285.7984 102.4 512 102.4z" fill="#44B9FC" p-id="11507"></path><path d="M273.066667 307.2h477.866666v443.733333H273.066667z" fill="#6DD7FE" fill-opacity=".5" p-id="11508"></path><path d="M738.986667 363.758933l42.9056 27.921067-174.8992 269.141333-132.164267-196.7104-181.521067 234.222934-40.482133-31.3344 224.9728-290.269867 128.477867 191.214933z" fill="#FFFFFF" p-id="11509"></path><path d="M273.066667 682.666667m-68.266667 0a68.266667 68.266667 0 1 0 136.533333 0 68.266667 68.266667 0 1 0-136.533333 0Z" fill="#FFFFFF" p-id="11510"></path><path d="M477.866667 409.6m-68.266667 0a68.266667 68.266667 0 1 0 136.533333 0 68.266667 68.266667 0 1 0-136.533333 0Z" fill="#FFFFFF" p-id="11511"></path><path d="M614.4 614.4m-68.266667 0a68.266667 68.266667 0 1 0 136.533334 0 68.266667 68.266667 0 1 0-136.533334 0Z" fill="#FFFFFF" p-id="11512"></path><path d="M750.933333 375.466667m-68.266666 0a68.266667 68.266667 0 1 0 136.533333 0 68.266667 68.266667 0 1 0-136.533333 0Z" fill="#FFFFFF" p-id="11513"></path></svg>
