<svg t="1783752432247" class="icon" viewBox="0 0 1024 1024" version="1.1" xmlns="http://www.w3.org/2000/svg" p-id="126751" width="200" height="200"><path d="M803.27111111 2.27555555H220.72888889C96.93866667 2.27555555 2.27555555 96.93866667 2.27555555 220.72888889v582.54222222c0 123.79022222 94.66311111 218.45333333 218.45333334 218.45333334h582.54222222c123.79022222 0 218.45333333-94.66311111 218.45333334-218.45333334V220.72888889c0-123.79022222-94.66311111-218.45333333-218.45333334-218.45333334zM315.392 453.74577778h378.65244445c72.81777778 0 123.79022222 58.25422222 123.79022222 123.79022222v116.50844445c0 72.81777778-58.25422222 123.79022222-123.79022222 123.79022222h-364.0888889v7.28177778c-29.12711111 36.40888889-87.38133333 36.40888889-123.79022222 7.28177777s-36.40888889-87.38133333-7.28177778-123.79022222 87.38133333-36.40888889 123.79022223-7.28177778l7.28177777 7.28177778h371.37066667c7.28177778 0 14.56355555-7.28177778 14.56355556-14.56355555V577.536c0-7.28177778-7.28177778-14.56355555-14.56355556-14.56355555H315.392c-72.81777778 0-123.79022222-58.25422222-123.79022222-123.79022223V315.392c0-72.81777778 58.25422222-123.79022222 123.79022222-123.79022222h364.08888889v-7.28177778c36.40888889-36.40888889 94.66311111-36.40888889 131.072-7.28177778s36.40888889 87.38133333 7.28177778 123.79022223-87.38133333 36.40888889-123.79022222 7.28177777l-7.28177778-7.28177777H315.392c-14.56355555 0-21.84533333 7.28177778-21.84533333 14.56355555v116.50844445c0 14.56355555 7.28177778 21.84533333 21.84533333 21.84533333z" fill="#2ECC71" p-id="126752"></path></svg>
