<svg t="1783438637297" class="icon" viewBox="0 0 1024 1024" version="1.1" xmlns="http://www.w3.org/2000/svg" p-id="88892" width="200" height="200"><path d="M327.381333 170.88c-12.8 0-24.32 6.826667-30.72 17.493333l-185.6 321.28c-6.4 11.093333-6.4 24.32 0 35.413334l185.6 321.28c6.4 11.093333 17.92 17.493333 30.72 17.493333h370.773334c12.8 0 24.32-6.826667 30.72-17.493333l185.6-321.28c6.4-11.093333 6.4-24.32 0-35.413334l-185.6-321.28a34.944 34.944 0 0 0-30.72-17.493333h-370.773334m0-76.8h370.773334c40.106667 0 77.226667 21.333333 97.28 55.893333l185.6 321.28c20.053333 34.56 20.053333 77.653333 0 112.213334l-185.6 321.28c-20.053333 34.56-57.173333 55.893333-97.28 55.893333h-370.773334c-40.106667 0-77.226667-21.333333-97.28-55.893333l-185.6-321.28a112.213333 112.213333 0 0 1 0-112.213334l185.6-321.28c20.053333-34.56 57.6-55.893333 97.28-55.893333z" fill="#424C67" p-id="88893"></path><path d="M660.053333 244.053333c10.24 0 19.2 5.546667 24.32 14.08l147.2 255.146667c5.12 8.533333 5.12 19.626667 0 28.16l-147.2 255.146667c-5.12 8.533333-14.506667 14.08-24.32 14.08H365.226667c-10.24 0-19.2-5.546667-24.32-14.08l-147.2-255.146667a27.733333 27.733333 0 0 1 0-28.16l147.2-255.146667c5.12-8.533333 14.506667-14.08 24.32-14.08h294.826666z" fill="#95D4F4" p-id="88894"></path><path d="M512 725.333333c-105.813333 0-192-86.186667-192-192S406.186667 341.333333 512 341.333333s192 86.186667 192 192S617.813333 725.333333 512 725.333333z m0-307.2c-63.573333 0-115.2 51.626667-115.2 115.2 0 63.573333 51.626667 115.2 115.2 115.2 63.573333 0 115.2-51.626667 115.2-115.2 0-63.573333-51.626667-115.2-115.2-115.2z" fill="#424C67" p-id="88895"></path></svg>
