<svg t="1752855544280" class="icon" viewBox="0 0 1024 1024" version="1.1" xmlns="http://www.w3.org/2000/svg" p-id="21747" width="32" height="32"><path d="M802.122601 612.097542c-20.467203-22.513923-44.004486-42.981126-68.56513-61.401609l0.51168-1.02336c-35.305925-26.095684-75.216971-46.562887-116.663056-60.889928 45.539526-32.747525 81.357131-76.240331 103.359374-127.408338-2.5584 18.420483 14.327042-37.352645 14.327042-93.125773 0-74.705291-31.724164-147.363861-86.473932-196.996828C593.868812 20.595379 517.628481-6.011985 442.92319 1.151536c-47.074567 5.116801-90.055693 20.978883-126.896658 45.027846-14.838722 8.186881-41.957766 33.770885-64.983369 63.960009-45.027846 61.401609-59.354888 140.71202-45.027846 213.88227 13.303682 66.518409 55.773128 126.384978 111.034576 164.760984-131.501779 46.562887-235.372833 152.480661-280.91236 283.98244-14.838722 42.981126-23.537283 93.125773-23.537283 144.80546 0 17.908803 14.327042 33.770885 31.724164 35.305925h402.692217c3.581761-189.321627 158.109142-341.290608 348.454129-341.290608 2.5584 0.51168 4.605121 0.51168 6.651841 0.51168z" p-id="21748"></path><path d="M614.847694 823.421412h361.757811c1.53504 0 2.5584-0.51168 3.581761-0.51168 1.02336 0 2.5584-0.51168 3.58176-1.02336h0.51168c1.02336-0.51168 2.04672-1.02336 3.070081-1.023361h0.51168l2.5584-1.53504 0.51168-0.51168c1.02336-0.51168 1.53504-1.02336 2.558401-1.53504l0.51168-0.51168c0.51168-0.51168 1.53504-1.02336 2.04672-1.53504l0.51168-0.51168 2.046721-2.046721 0.51168-0.51168c0.51168-0.51168 1.53504-1.53504 2.04672-2.5584 0 0 0-0.51168 0.51168-0.51168 0.51168-1.02336 1.02336-1.53504 1.53504-2.558401 0 0 0-0.51168 0.51168-0.51168 0.51168-1.02336 1.02336-1.53504 1.53504-2.5584v-0.51168c0.51168-1.02336 1.02336-2.04672 1.023361-3.070081v-0.51168c0.51168-1.02336 0.51168-2.04672 1.02336-3.07008v-0.51168c0-1.02336 0.51168-2.04672 0.51168-3.070081v-0.51168V787.603807v-2.558401c0-1.02336 0-2.04672-0.51168-2.5584v-0.51168c0-1.02336-0.51168-2.04672-0.51168-2.5584v-0.511681c0-1.02336-0.51168-2.04672-1.02336-2.5584v-0.51168c-0.51168-1.02336-0.51168-1.53504-1.023361-2.5584 0 0 0-0.51168-0.51168-1.02336-0.51168-1.02336-1.02336-1.53504-1.53504-2.046721 0 0-0.51168-0.51168-0.51168-1.02336l-1.53504-2.04672s-0.51168-0.51168-0.51168-1.02336c-0.51168-0.51168-1.02336-1.53504-1.53504-2.046721l-0.511681-0.51168-2.04672-2.04672-0.51168-0.51168-95.684173-84.427212c-14.838722-13.303682-37.864325-11.768642-51.168008 3.070081-13.303682 14.838722-11.768642 37.864325 3.070081 51.168007l24.048963 20.978883h-261.980197c-19.955523 0-36.329285 16.373762-36.329285 36.329285 1.53504 19.443843 17.397122 35.305925 37.352645 35.305925z m359.199411 42.469446h-364.316211c-0.51168 0-1.53504 0-2.046721 0.51168-0.51168 0-1.02336 0-1.02336 0.51168-0.51168 0-1.53504 0.51168-2.04672 0.51168-0.51168 0-1.02336 0-1.02336 0.51168-0.51168 0-1.53504 0.51168-2.04672 1.02336-0.51168 0-1.02336 0.51168-1.023361 0.51168-0.51168 0.51168-1.53504 0.51168-2.04672 1.02336-0.51168 0-1.02336 0.51168-1.02336 0.51168-0.51168 0.51168-1.02336 1.02336-1.53504 1.023361-0.51168 0-1.02336 0.51168-1.02336 1.02336l-1.535041 1.53504c-0.51168 0-0.51168 0.51168-1.02336 1.02336l-1.53504 1.53504-0.51168 0.51168v0.51168c-0.51168 0.51168-1.02336 1.53504-1.53504 2.046721 0 0.51168-0.51168 0.51168-0.51168 1.02336-0.51168 0.51168-1.02336 1.53504-1.53504 2.04672 0 0.51168-0.51168 0.51168-0.511681 1.02336l-1.02336 2.046721c0 0.51168-0.51168 0.51168-0.51168 1.02336-0.51168 0.51168-0.51168 1.53504-1.02336 2.04672 0 0.51168-0.51168 1.02336-0.51168 1.02336 0 0.51168-0.51168 1.53504-0.51168 2.04672l-0.51168 1.535041c0 0.51168 0 1.53504-0.51168 2.04672v12.280322c0 0.51168 0 1.53504 0.51168 2.04672 0 0.51168 0 1.02336 0.51168 1.53504 0 0.51168 0.51168 1.53504 0.51168 2.046721 0 0.51168 0.51168 1.02336 0.51168 1.53504 0 0.51168 0.51168 1.02336 0.51168 1.53504 0 0.51168 0.51168 1.02336 1.02336 1.53504 0 0.51168 0.51168 1.02336 1.02336 1.53504 0.51168 0.51168 0.51168 1.02336 1.023361 1.535041 0 0.51168 0.51168 1.02336 1.02336 1.53504 0.51168 0.51168 1.02336 1.02336 1.02336 1.53504 0.51168 0.51168 0.51168 1.02336 1.02336 1.53504l1.53504 1.53504 1.53504 1.535041 1.023361 1.02336 95.684173 84.427212c6.651841 5.628481 15.350402 9.210241 24.048963 9.210241 10.233601 0 20.467203-4.605121 27.119044-12.280322 13.303682-14.838722 11.768642-37.864325-3.07008-51.168007l-24.048964-22.002243h261.980197c19.955523 0 36.329285-16.373762 36.329285-36.329285-2.04672-19.955523-18.420483-36.329285-38.376005-36.329285z" p-id="21749"></path></svg>
