<svg t="1752856491921" class="icon" viewBox="0 0 1024 1024" version="1.1" xmlns="http://www.w3.org/2000/svg" p-id="48312" width="32" height="32"><path d="M673.984 157.504q7.296 4.224 13.248 10.24 5.952 5.888 10.24 13.184 4.16 7.296 6.336 15.488 2.176 8.128 2.176 16.512v150.144q0 8.384-2.176 16.512-2.176 8.192-6.4 15.488-4.224 7.296-10.176 13.248-5.952 5.952-13.248 10.176L544 493.44q-7.296 4.224-15.424 6.4T512 502.08q-8.448 0-16.576-2.176t-15.424-6.4L350.016 418.56q-7.296-4.224-13.248-10.24-5.952-5.888-10.24-13.184-4.16-7.296-6.336-15.488-2.176-8.128-2.176-16.512V212.928q0-8.384 2.176-16.512 2.176-8.192 6.4-15.488 4.224-7.296 10.176-13.248 5.952-5.952 13.248-10.176L480 82.56q7.296-4.224 15.424-6.4T512 73.92q8.448 0 16.576 2.176t15.424 6.4l129.984 75.008zM449.984 605.504q7.296 4.224 13.248 10.24 5.952 5.888 10.24 13.184 4.16 7.296 6.336 15.488 2.176 8.128 2.176 16.512v150.144q0 8.384-2.176 16.512-2.176 8.192-6.4 15.488-4.224 7.296-10.176 13.248-5.952 5.952-13.248 10.176L320 941.44q-7.296 4.224-15.424 6.4t-16.576 2.176q-8.448 0-16.576-2.176t-15.424-6.4L126.016 866.56q-7.296-4.224-13.248-10.24-5.952-5.888-10.24-13.184-4.16-7.296-6.336-15.488-2.176-8.128-2.176-16.512v-150.144q0-8.384 2.176-16.512 2.176-8.192 6.4-15.488 4.224-7.296 10.176-13.248 5.952-5.952 13.248-10.176L256 530.56q7.296-4.224 15.424-6.4t16.576-2.176q8.448 0 16.576 2.176t15.424 6.4L449.984 605.44zM897.984 605.504q7.296 4.224 13.248 10.24 5.952 5.888 10.24 13.184 4.16 7.296 6.336 15.488 2.176 8.128 2.176 16.512v150.144q0 8.384-2.176 16.512-2.176 8.192-6.4 15.488-4.224 7.296-10.176 13.248-5.952 5.952-13.248 10.176L768 941.44q-7.296 4.224-15.424 6.4t-16.576 2.176q-8.448 0-16.576-2.176t-15.424-6.4L574.016 866.56q-7.296-4.224-13.248-10.24-5.952-5.888-10.24-13.184-4.16-7.296-6.336-15.488-2.176-8.128-2.176-16.512v-150.144q0-8.384 2.176-16.512 2.176-8.192 6.4-15.488 4.224-7.296 10.176-13.248 5.952-5.952 13.248-10.176L704 530.56q7.296-4.224 15.424-6.4t16.576-2.176q8.448 0 16.576 2.176t15.424 6.4l129.984 75.008z" p-id="48313"></path></svg>
