<svg t="1776357863785" class="icon" viewBox="0 0 1064 1024" version="1.1" xmlns="http://www.w3.org/2000/svg" p-id="9167" width="200" height="200"><path d="M1063.96 211.36c0.02 0.42 0.04 0.84 0.04 1.23 0-6.76-0.01-6.76-0.04-1.23zM731.45 604.59c-20.05 0-36.81 7.09-50.28 21.26-13.47 14.17-20.21 31.97-20.21 53.38v251.32a420.104 420.104 0 0 1-73.31 19.84c-25.06 4.41-51.06 6.61-78 6.61-61.4 0-118.89-11.65-172.46-34.96-53.57-23.31-100.4-54.96-140.5-94.95-40.1-40-71.74-87.08-94.92-141.25C78.59 631.67 67 573.73 67 512c0-61.1 11.59-118.73 34.77-172.9s54.82-101.41 94.92-141.72 86.93-72.12 140.5-95.42S448.25 67 509.65 67c60.77 0 118.1 11.65 171.99 34.96s100.87 55.11 140.97 95.42c40.1 40.31 71.74 87.55 94.92 141.72S952.3 450.9 952.3 512c0 16.38-0.78 32.28-2.35 47.71s-3.92 30.39-7.05 44.88H731.45z m-142.86 30.23c1.88-2.52 0.94-5.67-2.82-9.45-3.76-3.78-8.15-8.03-13.16-12.75-5.01-4.72-9.4-9.45-13.16-14.17-3.76-4.72-5.01-9.61-3.76-14.64 3.13-10.08 6.42-18.9 9.87-26.45 3.45-7.56 5.33-13.86 5.64-18.9 0.31-5.04-1.88-8.82-6.58-11.34-4.7-2.52-13.63-3.78-26.78-3.78-6.89 0-12.69 0.31-17.39 0.94-4.7 0.63-8.93 1.1-12.69 1.42-3.76 0.31-7.68 0.63-11.75 0.94-4.07 0.31-8.93 0.16-14.57-0.47-8.77-0.63-15.51-2.2-20.21-4.72-4.7-2.52-9.24-5.04-13.63-7.56-4.39-2.52-9.71-4.88-15.98-7.09-6.27-2.2-15.35-3.62-27.25-4.25-16.92-0.63-28.98-1.26-36.18-1.89-7.21-0.63-12.37-1.42-15.51-2.36-3.13-0.94-5.64-1.57-7.52-1.89-1.88-0.31-5.64-0.47-11.28-0.47s-15.66 2.52-30.07 7.56c-14.41 5.04-28.98 11.02-43.7 17.95-14.72 6.93-27.72 13.86-39 20.79-11.28 6.93-16.92 12.6-16.92 17.01 0 25.82 2.66 46.3 7.99 61.41s11.43 26.14 18.33 33.07c3.13 3.15 7.36 5.2 12.69 6.14 5.33 0.94 11.12 1.73 17.39 2.36 6.27 0.63 12.06 1.42 17.39 2.36s9.55 3.31 12.69 7.09c6.27 7.56 13.94 10.55 23.03 8.98 9.08-1.57 17.86-3.62 26.31-6.14 8.46-2.52 15.82-3.46 22.09-2.83 6.27 0.63 9.71 6.61 10.34 17.95 0 5.04 0.94 8.82 2.82 11.34 1.88 2.52 4.23 4.57 7.05 6.14 2.82 1.57 6.42 3.46 10.81 5.67 4.39 2.2 9.08 5.51 14.1 9.92 5.64 5.04 7.68 9.76 6.11 14.17-1.57 4.41-4.07 8.66-7.52 12.75a99.45 99.45 0 0 0-9.4 13.23c-2.82 4.72-2.66 9.29 0.47 13.7 4.39 6.93 9.08 11.97 14.1 15.12s9.87 5.98 14.57 8.5c4.7 2.52 8.93 5.2 12.69 8.03 3.76 2.83 6.27 7.4 7.52 13.7 0.63 1.89 3.13 5.51 7.52 10.87 4.39 5.35 8.61 10.71 12.69 16.06 4.07 5.35 7.36 10.08 9.87 14.17s1.88 5.51-1.88 4.25c7.52 1.89 15.51 2.83 23.97 2.83 8.46 0 13.94-1.89 16.45-5.67 1.25-2.52 1.88-3.46 1.88-2.83 0 0.63 0.94 0.63 2.82 0s6.58-3.46 14.1-8.5 12.53-11.81 15.04-20.31 3.76-17.64 3.76-27.4c0-9.76-0.47-19.68-1.41-29.76s-0.78-19.53 0.47-28.34c1.25-8.19 3.29-14.17 6.11-17.95s5.33-7.09 7.52-9.92c2.19-2.83 4.07-6.77 5.64-11.81 1.57-5.04 1.41-13.23-0.47-24.56-1.88-14.49 0-24.88 5.64-31.18 5.6-6.33 9.98-12 13.11-17.04z m109.02-139.83c-5.01 0-5.95 1.42-2.82 4.25 3.13 2.83 7.99 5.51 14.57 8.03 6.58 2.52 13.63 4.09 21.15 4.72 7.52 0.63 13.78-0.94 18.8-4.72 4.39-4.41 11.75-7.87 22.09-10.39 10.34-2.52 20.83-5.51 31.48-8.98 10.65-3.46 20.05-8.19 28.19-14.17s12.84-14.64 14.1-25.98c0.63-11.34 0.47-21.89-0.47-31.65-0.94-9.76-2.98-19.53-6.11-29.29-3.13-9.76-7.36-19.84-12.69-30.23-5.33-10.39-12.06-22.2-20.21-35.43-8.77-13.86-16.76-25.35-23.97-34.49-7.21-9.13-14.25-17.01-21.15-23.62s-14.1-12.6-21.62-17.95c-7.52-5.35-16.29-11.18-26.31-17.48-9.4-5.67-19.11-11.81-29.13-18.42-10.02-6.61-20.68-11.02-31.95-13.23-11.28-2.2-23.5-0.79-36.65 4.25s-27.88 16.06-44.17 33.07c-5.01 5.04-10.81 10.71-17.39 17.01s-13.63 12.44-21.15 18.42c-7.52 5.98-14.88 10.87-22.09 14.64-7.21 3.78-13.31 5.67-18.33 5.67-5.01 0-13 1.42-23.97 4.25-10.96 2.83-21.77 7.56-32.42 14.17-10.65 6.61-19.89 15.27-27.72 25.98-7.83 10.71-11.43 23.62-10.81 38.74 0.63 17.01 3.6 28.03 8.93 33.07 5.33 5.04 12.22 7.87 20.68 8.5 8.46 0.63 18.48 1.26 30.07 1.89 11.59 0.63 24.28 4.72 38.06 12.28 15.66 0.63 30.39 2.2 44.17 4.72 11.9 1.89 23.97 4.41 36.18 7.56 12.22 3.15 22.4 7.24 30.54 12.28 9.4 5.67 13.16 9.76 11.28 12.28s-5.17 4.72-9.87 6.61c-4.7 1.89-8.61 3.78-11.75 5.67s-1.25 5.35 5.64 10.39c9.4 7.56 16.45 12.12 21.15 13.7 4.7 1.57 9.55 1.89 14.57 0.94 5.01-0.94 11.9-2.36 20.68-4.25s22.25-2.81 40.42-2.81z m222.74 168.18c10.65 0 19.42 3.62 26.31 10.87 6.89 7.24 10.34 15.9 10.34 25.98v189.9c0 4.41-2.82 10.39-8.46 17.95s-12.53 14.8-20.68 21.73-16.29 13.07-24.43 18.42c-8.15 5.35-14.72 8.03-19.74 8.03H756.82c-10.65 0-19.42-3.46-26.31-10.39s-10.34-15.43-10.34-25.51V700.01c0-10.08 3.45-18.74 10.34-25.98 6.89-7.24 15.66-10.87 26.31-10.87h163.53v0.01z m-130.64 58.58c-5.01 0-8.46 4.41-10.34 13.23-1.88 8.82-2.82 15.75-2.82 20.79 0 5.67 1.1 11.34 3.29 17.01 2.19 5.67 5.48 8.5 9.87 8.5h96.8c2.51 0 4.54-1.42 6.11-4.25 1.57-2.83 2.66-5.83 3.29-8.98 0.63-3.78 0.94-8.19 0.94-13.23 0-5.67-0.63-12.6-1.88-20.79s-4.07-12.28-8.46-12.28h-96.8z m106.2 160.61c1.88-7.56 2.82-14.49 2.82-20.79 0-5.04-1.1-9.92-3.29-14.64-2.19-4.72-6.42-7.09-12.69-7.09h-89.28c-5.01 0-8.46 2.36-10.34 7.09a59.377 59.377 0 0 0-3.76 14.64c-0.63 6.3-0.31 13.23 0.94 20.79 0 5.04 1.88 9.45 5.64 13.23 3.76 3.78 7.52 5.67 11.28 5.67h82.7c5.01 0 8.93-1.89 11.75-5.67 2.82-3.78 4.23-8.19 4.23-13.23z" p-id="9168"></path></svg>
