<svg t="1752855847745" class="icon" viewBox="0 0 1024 1024" version="1.1" xmlns="http://www.w3.org/2000/svg" p-id="31368" width="32" height="32"><path d="M1020.97936 802.198068c0 14.585419-14.585419 21.878129-21.878129 29.170839h-7.29271c-21.878129 7.29271-36.463549 21.878129-51.048968 43.756258-14.585419 21.878129-14.585419 43.756258-7.29271 65.634388v7.29271c0 14.585419 0 29.170839-7.29271 36.463548 0 0-7.29271 7.29271-29.170838 21.878129-21.878129 14.585419-29.170839 14.585419-29.170839 14.58542-7.29271 7.29271-29.170839 0-36.463549-7.29271l-7.29271-7.29271c-14.585419-14.585419-36.463549-21.878129-58.341677-21.878129-21.878129 0-43.756258 7.29271-58.341678 21.878129l-7.29271 7.29271c-7.29271 7.29271-21.878129 7.29271-29.170839 7.29271 0 0-7.29271 0-29.170838-14.58542-21.878129-14.585419-29.170839-21.878129-29.170839-21.878129-7.29271-7.29271-14.585419-21.878129-7.29271-36.463548v-7.29271c7.29271-21.878129 0-43.756258-7.29271-65.634388-14.585419-21.878129-29.170839-36.463549-51.048968-43.756258h-7.292709c-14.585419 0-21.878129-14.585419-21.878129-29.170839v-36.463548C510.48968 736.563681 510.48968 729.270971 510.48968 729.270971c0-14.585419 14.585419-21.878129 21.878129-29.170839h7.29271c21.878129-7.29271 43.756258-21.878129 51.048968-43.756258 14.585419-21.878129 14.585419-43.756258 7.292709-65.634387V583.416777c0-14.585419 0-29.170839 7.29271-36.463549 0 0 7.29271-7.29271 29.170839-21.878129 29.170839-7.29271 36.463549-14.585419 36.463548-14.585419 7.29271 0 21.878129 0 29.170839 7.29271l7.29271 7.292709c14.585419 14.585419 36.463549 21.878129 58.341678 21.878129 21.878129 0 43.756258-7.29271 58.341677-21.878129l7.29271-7.292709c7.29271-7.29271 21.878129-7.29271 29.170839-7.29271 0 0 7.29271 7.29271 29.170839 14.585419 21.878129 14.585419 29.170839 21.878129 29.170839 21.878129 7.29271 7.29271 14.585419 21.878129 7.292709 36.463549v7.29271c-7.29271 21.878129 0 43.756258 7.29271 65.634387 14.585419 21.878129 29.170839 36.463549 51.048968 43.756258h7.29271c14.585419 0 21.878129 14.585419 21.878129 29.170839v36.463549c7.29271 29.170839 7.29271 36.463549 7.29271 36.463548zM692.807423 459.440712l-7.29271-7.29271C678.222003 437.562583 656.343874 437.562583 641.758455 437.562583l-43.756259 21.878129c-21.878129 21.878129-36.463549 29.170839-36.463548 29.170839-7.29271 7.29271-14.585419 29.170839-7.29271 43.756258v7.29271c7.29271 29.170839 0 58.341678-14.585419 80.219806-14.585419 36.463549-36.463549 51.048968-58.341678 58.341678h-7.29271c-14.585419 7.29271-29.170839 21.878129-36.463548 36.463549v102.097936c0 14.585419 14.585419 29.170839 29.170839 36.463548h7.292709c21.878129 7.29271 51.048968 29.170839 65.634388 51.048968 14.585419 29.170839 14.585419 58.341678 14.585419 80.219807v29.170839C284.415679 1020.97936 0 1020.97936 0 1020.97936c0-226.074001 145.854194-415.684454 357.342776-481.318841C269.830259 488.611551 218.781291 393.806324 218.781291 291.708388c0-160.439614 131.268775-291.708388 291.708389-291.708388s291.708388 131.268775 291.708388 291.708388c0 72.927097-29.170839 138.561485-72.927097 189.610453-14.585419-7.29271-29.170839-14.585419-36.463548-21.878129z" fill="" p-id="31369"></path></svg>
