<svg t="1783437219272" class="icon" viewBox="0 0 1024 1024" version="1.1" xmlns="http://www.w3.org/2000/svg" p-id="10308" width="200" height="200"><path d="M736 480a64 64 0 0 1 64-64h64a64 64 0 0 1 64 64v480H96V256a64 64 0 0 1 64-64h512a64 64 0 0 1 64 64v224z" fill="#FFCB01" p-id="10309"></path><path d="M800 256h128a64 64 0 0 1 64 64v608a64 64 0 0 1-64 64H96a64 64 0 0 1-64-64V96a64 64 0 0 1 64-64h640a64 64 0 0 1 64 64v160z m0 64v608h128V320h-128z m-64-64V96H96v832h640V256zM352 256h256a32 32 0 0 1 0 64h-256a32 32 0 0 1 0-64zM224 256h32a32 32 0 1 1 0 64H224a32 32 0 1 1 0-64z m128 448h256a32 32 0 0 1 0 64h-256a32 32 0 0 1 0-64z m-128 0h32a32 32 0 0 1 0 64H224a32 32 0 0 1 0-64z m128-224h256a32 32 0 0 1 0 64h-256a32 32 0 0 1 0-64z m-128 0h32a32 32 0 0 1 0 64H224a32 32 0 0 1 0-64z" fill="#1C412F" p-id="10310"></path></svg>
