<svg t="1784647242325" class="icon" viewBox="0 0 1024 1024" version="1.1" xmlns="http://www.w3.org/2000/svg" p-id="13591" width="200" height="200"><path d="M746.919705 192a96 96 0 1 0-96-96 96 96 0 0 0 96 96z m-178.88 160l-120 615.36a48 48 0 0 0 38.4 56.64h12.48a47.68 47.68 0 0 0 45.12-37.44l67.2-306.56a21.76 21.76 0 0 1 25.28-16.64 24.32 24.32 0 0 1 10.24 5.44l67.2 64a25.6 25.6 0 0 1 7.68 17.6v227.52a48.32 48.32 0 0 0 96-1.92v-291.84a47.36 47.36 0 0 0-14.08-33.6l-64-64a47.04 47.04 0 0 1-14.08-42.56l21.12-106.24a5.76 5.76 0 0 1 7.36-4.16l2.88 1.6a331.52 331.52 0 0 0 195.2 108.8 48 48 0 0 0 56-38.72 67.52 67.52 0 0 0 0-8.32 48.96 48.96 0 0 0-40.64-48.96 245.44 245.44 0 0 1-167.36-113.28l-44.8-75.2a96 96 0 0 0-115.2-37.76l-230.4 93.76a32 32 0 0 0-20.16 32v154.24a48 48 0 0 0 96 0V397.12a13.76 13.76 0 0 1 7.36-13.12l75.2-32" fill="#5188F4" p-id="13592"></path><path d="M38.119705 516.8h269.12a20.16 20.16 0 0 1 22.72 22.72 20.16 20.16 0 0 1-22.72 22.72H38.119705a20.16 20.16 0 0 1-22.72-22.72 20.16 20.16 0 0 1 22.72-22.72zM97.639705 672h269.12a19.84 19.84 0 0 1 22.72 22.72 20.16 20.16 0 0 1-22.72 22.72H97.639705a20.16 20.16 0 0 1-22.72-22.72 19.84 19.84 0 0 1 22.72-22.72zM38.119705 821.12h269.12a20.16 20.16 0 0 1 22.72 22.72 19.84 19.84 0 0 1-22.72 22.72H38.119705a20.16 20.16 0 0 1-22.72-22.72 20.16 20.16 0 0 1 22.72-22.72z" fill="#FFC62C" p-id="13593"></path></svg>
