<?xml version="1.0" standalone="no"?><!DOCTYPE svg PUBLIC "-//W3C//DTD SVG 1.1//EN" "http://www.w3.org/Graphics/SVG/1.1/DTD/svg11.dtd"><svg t="1762005981662" class="icon" viewBox="0 0 1024 1024" version="1.1" xmlns="http://www.w3.org/2000/svg" p-id="7647" xmlns:xlink="http://www.w3.org/1999/xlink" width="32" height="32"><path d="M972 664l20-28-58-98-34 4c-44 4-86-18-104-58l-16-32H662l-14 32c-18 40-60 62-104 58l-34-4-58 98 20 28a96 96 0 0 1 0 116l-20 28 58 98 34-4c44-4 86 18 104 58l14 32h118l14-32c18-40 60-62 104-58l34 4 58-98-20-28c-24-34-24-82 2-116zM722 858c-74 0-136-60-136-136 0-74 60-136 136-136 74 0 136 60 136 136 0 74-62 136-136 136zM152 392h360v60H152z m0 120h240v60H152z m0-240h480v60H152z" p-id="7648"></path><path d="M92 152h120v60h60v-60h240v60h60v-60h120v240h60V172c0-44-36-80-80-80H572V32h-60v60H272V32h-60v60H112c-44 0-80 36-80 80v680c0 44 36 80 80 80h280v-60H92V152z" p-id="7649"></path></svg>