<svg t="1783752282001" class="icon" viewBox="0 0 1024 1024" version="1.1" xmlns="http://www.w3.org/2000/svg" p-id="123581" width="200" height="200"><path d="M85.333333 170.666667m42.666667 0l768 0q42.666667 0 42.666667 42.666666l0 128q0 42.666667-42.666667 42.666667l-768 0q-42.666667 0-42.666667-42.666667l0-128q0-42.666667 42.666667-42.666666Z" fill="#3865F4" p-id="123582"></path><path d="M906.666667 220.458667h-342.357334c-9.813333 0-19.626667-2.346667-28.714666-6.912a75.605333 75.605333 0 0 1-24.32-19.669334l-67.925334-81.962666a75.605333 75.605333 0 0 0-24.32-19.669334A63.744 63.744 0 0 0 390.4 85.333333H160c-19.797333 0-38.826667 9.472-52.778667 26.368C93.184 128.597333 85.333333 151.509333 85.333333 175.402667V805.973333c0 23.893333 7.850667 46.805333 21.888 63.701334 13.994667 16.896 32.981333 26.368 52.778667 26.368h746.666667c19.797333 0 38.826667-9.472 52.778666-26.368 14.037333-16.896 21.888-39.808 21.888-63.701334V310.528c0-23.893333-7.850667-46.805333-21.888-63.701333-13.994667-16.896-32.981333-26.368-52.778666-26.368z" fill="#AFC1FB" p-id="123583"></path><path d="M597.333333 682.666667l-64-298.666667H469.333333l64 298.666667H597.333333z m96-29.866667L853.333333 564.522667v-62.421334L693.333333 413.866667v61.098666l105.856 58.368-105.856 58.368V652.8z m-320 0v-61.098667L267.477333 533.333333l105.856-58.368V413.866667L213.333333 502.144v62.421333L373.333333 652.8z" fill="#3865F4" p-id="123584"></path></svg>
