<svg t="1784647497612" class="icon" viewBox="0 0 1024 1024" version="1.1" xmlns="http://www.w3.org/2000/svg" p-id="22579" width="200" height="200"><path d="M80.9984 432.298667a375.466667 370.107733 90 1 0 740.215467 0 375.466667 370.107733 90 1 0-740.215467 0Z" fill="#f9f28b" p-id="22580"></path><path d="M802.133333 0a68.266667 68.266667 0 0 1 68.096 63.146667L870.4 68.266667v311.0912a34.133333 34.133333 0 0 1-68.027733 3.9936l-0.238934-3.9936V68.266667h-716.8v887.466666h315.4944a34.133333 34.133333 0 0 1 3.9936 68.027734l-3.9936 0.238933H85.333333a68.266667 68.266667 0 0 1-68.096-63.146667L17.066667 955.733333V68.266667A68.266667 68.266667 0 0 1 80.213333 0.170667L85.333333 0h716.8z m-409.6 682.666667a34.133333 34.133333 0 0 1 0 68.266666h-136.533333a34.133333 34.133333 0 0 1 0-68.266666h136.533333z m238.933334-204.8a34.133333 34.133333 0 0 1 0 68.266666h-375.466667a34.133333 34.133333 0 0 1 0-68.266666h375.466667z m0-204.8a34.133333 34.133333 0 0 1 0 68.266666h-375.466667a34.133333 34.133333 0 1 1 0-68.266666h375.466667z" fill="#efb336" p-id="22581"></path><path d="M639.522133 1024c-39.048533-85.640533-18.500267-134.8608 12.322134-179.8144 32.904533-51.4048 41.130667-100.625067 41.130666-100.625067s26.7264 34.235733 16.452267 89.9072c45.226667-53.521067 53.4528-139.1616 47.3088-171.246933 102.775467 74.922667 148.036267 239.752533 88.405333 359.6288 316.6208-188.381867 78.1312-468.821333 37.000534-498.7904 14.404267 32.085333 16.452267 85.640533-12.322134 111.3088-47.3088-188.381867-164.522667-224.768-164.522666-224.768 14.404267 96.324267-49.322667 201.216-111.0016 280.439467-2.048-38.536533-4.096-64.238933-24.6784-102.741334-4.096 70.656-55.5008 126.293333-69.905067 196.949334-18.500267 96.324267 14.404267 164.829867 139.810133 239.752533z" fill="#d81e06" p-id="22582"></path></svg>
