<svg t="1783752302103" class="icon" viewBox="0 0 1024 1024" version="1.1" xmlns="http://www.w3.org/2000/svg" p-id="123735" width="200" height="200"><path d="M238.933333 736v234.666667h-85.333333v-234.666667h85.333333M473.6 522.666667v448h-85.333333v-448h85.333333M708.266667 629.333333v341.333334h-85.333334v-341.333334h85.333334M942.933333 437.333333v533.333334h-85.333333v-533.333334h85.333333" fill="#00A4FF" p-id="123736"></path><path d="M196.266667 693.333333v234.666667h-85.333334v-234.666667h85.333334m42.666666-42.666666h-170.666666v320h170.666666v-320zM430.933333 480v448h-85.333333v-448h85.333333m42.666667-42.666667h-170.666667v533.333334h170.666667v-533.333334zM665.6 586.666667v341.333333h-85.333333v-341.333333h85.333333m42.666667-42.666667h-170.666667v426.666667h170.666667v-426.666667zM900.266667 394.666667v533.333333h-85.333334v-533.333333h85.333334m42.666666-42.666667h-170.666666v618.666667h170.666666v-618.666667zM772.266667 53.333333h170.666666v42.666667h-170.666666z" fill="#334966" p-id="123737"></path><path d="M900.266667 53.333333h42.666666v170.666667h-42.666666z" fill="#334966" p-id="123738"></path><path d="M83.2 537.6l-29.866667-29.866667L386.133333 174.933333l234.666667 170.666667L906.666667 59.733333l29.866666 29.866667-311.466666 311.466667-234.666667-170.666667z" fill="#334966" p-id="123739"></path></svg>
