<svg t="1784736180066" class="icon" viewBox="0 0 1024 1024" version="1.1" xmlns="http://www.w3.org/2000/svg" p-id="28276" width="200" height="200"><path d="M417.308132 748.307692c0-168.791209 135.032967-309.450549 309.450549-309.450549 45.010989 0 84.395604 11.252747 129.406594 28.131868v-360.087912c0-56.263736-50.637363-106.901099-106.901099-106.901099h-635.78022c-56.263736 0-106.901099 45.010989-106.901099 106.901099v776.43956c0 56.263736 50.637363 106.901099 106.901099 106.901099h416.351648c-73.142857-61.89011-112.527473-146.285714-112.527472-241.934066z" fill="#3672FC" p-id="28277"></path><path d="M203.505934 399.472527c-16.879121 0-28.131868 11.252747-28.131868 28.131869s11.252747 28.131868 28.131868 28.131868h281.318681c16.879121 0 28.131868-11.252747 28.131869-28.131868s-11.252747-28.131868-28.131869-28.131869h-281.318681zM681.747692 230.681319c0-16.879121-11.252747-28.131868-28.131868-28.131868h-450.10989c-16.879121 0-28.131868 11.252747-28.131868 28.131868s11.252747 28.131868 28.131868 28.131868h450.10989c16.879121 0 28.131868-16.879121 28.131868-28.131868z" fill="#FFFFFF" p-id="28278"></path><path d="M721.132308 483.868132c-146.285714 0-270.065934 118.153846-270.065934 270.065934s118.153846 270.065934 270.065934 270.065934 270.065934-118.153846 270.065934-270.065934c0-151.912088-118.153846-270.065934-270.065934-270.065934z m0 478.241758c-118.153846 0-213.802198-95.648352-213.802198-213.802198s95.648352-213.802198 213.802198-213.802197 213.802198 95.648352 213.802197 213.802197c0 118.153846-95.648352 213.802198-213.802197 213.802198z" fill="#3672FC" p-id="28279"></path><path d="M833.65978 737.054945h-84.395604v-84.395604c0-16.879121-11.252747-28.131868-28.131868-28.131868s-28.131868 11.252747-28.131868 28.131868v112.527472c0 16.879121 11.252747 28.131868 28.131868 28.131868h112.527472c16.879121 0 28.131868-11.252747 28.131868-28.131868s-11.252747-28.131868-28.131868-28.131868z" fill="#3672FC" p-id="28280"></path></svg>
