<?xml version="1.0" standalone="no"?><!DOCTYPE svg PUBLIC "-//W3C//DTD SVG 1.1//EN" "http://www.w3.org/Graphics/SVG/1.1/DTD/svg11.dtd"><svg t="1670084724835" class="icon" viewBox="0 0 1024 1024" version="1.1" xmlns="http://www.w3.org/2000/svg" p-id="20281" xmlns:xlink="http://www.w3.org/1999/xlink" width="200" height="200"><path d="M506.353099 16.469793c-277.140839 0-501.731211 224.652891-501.731211 501.731211s224.590372 501.730203 501.731211 501.730203c277.138822 0 501.730203-224.650875 501.730203-501.730203S783.491921 16.469793 506.353099 16.469793zM694.502807 330.050287l-62.718922 0 0 125.433811-62.71388 0 0 125.432803-62.715897 0 0 125.433811 125.430786 0 0-62.714889 62.718922 0 0 62.714889 0 62.717914L380.919288 769.068626l0-62.717914 62.717914 0L443.637202 580.916901l62.715897 0L506.353099 455.484098l62.715897 0L569.068996 330.050287 443.636193 330.050287l0 62.717914-62.717914 0L380.918279 267.336406l62.717914 0 250.865605 0L694.501799 330.050287z" p-id="20282"></path></svg>