<?xml version="1.0" standalone="no"?><!DOCTYPE svg PUBLIC "-//W3C//DTD SVG 1.1//EN" "http://www.w3.org/Graphics/SVG/1.1/DTD/svg11.dtd"><svg t="1670089146436" class="icon" viewBox="0 0 1150 1024" version="1.1" xmlns="http://www.w3.org/2000/svg" p-id="46264" xmlns:xlink="http://www.w3.org/1999/xlink" width="224.609375" height="200"><path d="M489.462666 116.997071a159.339566 159.339566 0 0 0-307.221163 0H0v84.755769h182.241503a159.339566 159.339566 0 0 0 307.221163 0h660.9572v-84.755769zM335.852085 233.960753a74.584797 74.584797 0 1 1 74.584797-74.584797 74.584797 74.584797 0 0 1-74.584797 74.584797zM814.567781 352.617429A159.628565 159.628565 0 0 0 660.957199 469.580111H0v84.754769h660.957199a159.339566 159.339566 0 0 0 307.221163 0h182.241504V469.580111H968.177362A159.628565 159.628565 0 0 0 814.567781 352.617429z m0 233.925363a74.584797 74.584797 0 1 1 74.584796-74.584797 74.584797 74.584797 0 0 1-74.584796 74.584797zM335.852085 705.284468a159.628565 159.628565 0 0 0-153.610582 116.962682H0v84.755769h182.241503a159.339566 159.339566 0 0 0 307.221163 0h660.9572v-84.755769H489.462666a159.628565 159.628565 0 0 0-153.610581-116.962682z m0 233.925363a74.584797 74.584797 0 1 1 74.584797-74.584797 74.584797 74.584797 0 0 1-74.584797 74.584797z" p-id="46265" fill="#bfbfbf"></path></svg>