<?xml version="1.0" standalone="no"?><!DOCTYPE svg PUBLIC "-//W3C//DTD SVG 1.1//EN" "http://www.w3.org/Graphics/SVG/1.1/DTD/svg11.dtd"><svg t="1670950148811" class="icon" viewBox="0 0 1024 1024" version="1.1" xmlns="http://www.w3.org/2000/svg" p-id="2685" xmlns:xlink="http://www.w3.org/1999/xlink" width="200" height="200"><path d="M207.644444 0C139.377778 0 85.333333 54.044444 85.333333 119.466667v785.066666C85.333333 969.955556 139.377778 1024 207.644444 1024h611.555556c65.422222 0 122.311111-54.044444 122.311111-119.466667V241.777778L694.044444 0H207.644444z m577.422223 952.888889H236.088889c-45.511111 0-73.955556-25.6-73.955556-71.111111V145.066667c0-45.511111 28.444444-68.266667 73.955556-68.266667h432.355555v130.844444c0 25.6 22.755556 48.355556 48.355556 48.355556h150.755556v625.777778c2.844444 45.511111-34.133333 71.111111-82.488889 71.111111z m-119.466667-258.844445H358.4c-17.066667 0-31.288889-14.222222-31.288889-31.288888 0-17.066667 14.222222-31.288889 31.288889-31.288889h304.355556c17.066667 0 31.288889 14.222222 31.288888 31.288889s-11.377778 31.288889-28.444444 31.288888z m0-119.466666H358.4c-17.066667 0-31.288889-14.222222-31.288889-31.288889 0-17.066667 14.222222-31.288889 31.288889-31.288889h304.355556c17.066667 0 31.288889 14.222222 31.288888 31.288889s-11.377778 31.288889-28.444444 31.288889z m0-122.311111H358.4c-17.066667 0-31.288889-14.222222-31.288889-31.288889 0-17.066667 14.222222-31.288889 31.288889-31.288889h304.355556c17.066667 0 31.288889 14.222222 31.288888 31.288889s-11.377778 31.288889-28.444444 31.288889z" fill="#dbdbdb" p-id="2686"></path></svg>