<?xml version="1.0" standalone="no"?><!DOCTYPE svg PUBLIC "-//W3C//DTD SVG 1.1//EN" "http://www.w3.org/Graphics/SVG/1.1/DTD/svg11.dtd"><svg t="1685417210610" class="icon" viewBox="0 0 1024 1024" version="1.1" xmlns="http://www.w3.org/2000/svg" p-id="7943" xmlns:xlink="http://www.w3.org/1999/xlink" width="200" height="200"><path d="M418.88 1023.36c0 0-143.36-80-67.52-264.64 0 0 25.28-37.12 24.64-78.72 0 0-0.64-34.56 30.08-13.44 0 0 32.32 20.16 41.28 84.48 0 0 43.84-61.12 28.16-177.28 0 0-3.2-38.08 41.92-9.6 0 0 130.24 62.4 92.16 256 0 0 29.12-14.72 48-87.04 0 0 17.6-24.96 31.36 6.4 0 0 44.8 83.52 29.44 150.08 0 0-7.36 73.92-64.96 118.72 0 0 122.56-45.44 180.48-127.04 0 0 101.76-93.12 79.04-324.16 0 0-5.12-79.04-71.68-184.32 0 0-32.64-77.76-24-127.68 0 0-16.32-42.56-54.08-16.32 0 0-51.52 26.56-78.08 108.8l-22.72 56.64c0 0-41.6-57.6-56-203.2 0 0-7.68-109.44 4.16-139.2 0 0 13.76-58.88-39.68-50.88 0 0-97.28 25.92-178.24 145.28 0 0-66.56 115.84-70.08 211.52 0 0-5.44 137.92 12.16 194.56 0 0-58.24-41.92-82.24-127.68 0 0-15.68-65.28-31.04-69.12 0 0-28.8-16.64-43.84 15.68 0 0-46.72 83.84-68.48 203.2 0 0-18.24 141.12 39.36 247.68 0 0 72.96 124.8 173.76 169.6C321.6 992.32 397.76 1024.96 418.88 1023.36z" p-id="7944"></path></svg>