<?xml version="1.0" standalone="no"?><!DOCTYPE svg PUBLIC "-//W3C//DTD SVG 1.1//EN" "http://www.w3.org/Graphics/SVG/1.1/DTD/svg11.dtd"><svg t="1670081738294" class="icon" viewBox="0 0 1024 1024" version="1.1" xmlns="http://www.w3.org/2000/svg" p-id="9634" xmlns:xlink="http://www.w3.org/1999/xlink" width="200" height="200"><path d="M1004.8 800s0-6.4-6.4-6.4l-6.4-6.4h-19.2c-6.4 0-12.8-6.4-19.2-12.8l-6.4-19.2c-6.4-6.4 0-12.8 0-19.2l12.8-12.8 6.4-6.4c0-6.4 0-6.4-6.4-6.4l-19.2-19.2-6.4-6.4s-6.4 0-6.4 6.4l-12.8 12.8c-6.4 6.4-12.8 6.4-19.2 0l-19.2-6.4c-6.4 0-12.8-12.8-12.8-19.2v-19.2s0-6.4-6.4-6.4l-6.4-6.4h-32s-6.4 0-6.4 6.4l-6.4 6.4v19.2c0 6.4-6.4 12.8-12.8 19.2l-19.2 6.4c-6.4 6.4-12.8 0-19.2 0l-12.8-12.8-6.4-6.4s-6.4 0-6.4 6.4l-25.6 12.8-6.4 6.4s0 6.4 6.4 6.4l12.8 12.8c6.4 6.4 6.4 12.8 0 19.2l-6.4 19.2c0 6.4-12.8 12.8-19.2 12.8h-19.2s-6.4 0-6.4 6.4l-6.4 6.4v38.4s0 6.4 6.4 6.4l6.4 6.4h19.2c6.4 0 12.8 6.4 19.2 12.8l6.4 19.2c6.4 6.4 0 12.8 0 19.2l-12.8 12.8-6.4 6.4c0 6.4 0 6.4 6.4 6.4l19.2 19.2 6.4 6.4c6.4 0 6.4 0 6.4-6.4l12.8-12.8c6.4-6.4 12.8-6.4 19.2 0l19.2 6.4c6.4 0 12.8 12.8 12.8 19.2v19.2s0 6.4 6.4 6.4l6.4 6.4h32s6.4 0 6.4-6.4l6.4-6.4V960c0-6.4 6.4-12.8 12.8-19.2l19.2-6.4c6.4-6.4 12.8 0 19.2 0l12.8 12.8 6.4 6.4s6.4 0 6.4-6.4l19.2-19.2 6.4-6.4s0-6.4-6.4-6.4V896c-6.4-6.4-6.4-12.8 0-19.2l6.4-19.2c0-6.4 12.8-12.8 19.2-12.8h19.2s6.4 0 6.4-6.4l6.4-6.4-6.4-32z m-166.4 83.2c-38.4 0-64-32-64-64 0-38.4 32-64 64-64s64 32 64 64-32 64-64 64z" p-id="9635" fill="#bfbfbf"></path><path d="M569.6 844.8c-12.8 12.8-25.6 25.6-38.4 32-44.8 38.4-89.6 64-102.4 70.4C371.2 915.2 64 723.2 64 268.8c0 0-12.8-64 89.6-102.4C256 128 396.8 83.2 435.2 70.4c32 12.8 179.2 57.6 281.6 102.4 96 38.4 89.6 96 89.6 102.4 0 102.4-12.8 198.4-44.8 281.6-6.4 12.8 0 25.6 12.8 32s25.6 0 32-12.8c32-89.6 51.2-192 51.2-294.4 0-6.4 19.2-102.4-115.2-153.6C614.4 76.8 441.6 19.2 441.6 19.2h-12.8S256 76.8 134.4 121.6C0 179.2 19.2 275.2 19.2 275.2c0 524.8 403.2 723.2 403.2 723.2l12.8 6.4 12.8-6.4s57.6-25.6 128-83.2c12.8-12.8 25.6-19.2 38.4-32 6.4-6.4 12.8-25.6 0-32-19.2-12.8-32-12.8-44.8-6.4z" p-id="9636" fill="#bfbfbf"></path><path d="M627.2 435.2H467.2V281.6c0-19.2-19.2-38.4-38.4-38.4-19.2-6.4-38.4 12.8-38.4 38.4v153.6H236.8c-25.6 0-44.8 19.2-44.8 38.4s19.2 38.4 44.8 38.4h153.6v153.6c0 19.2 19.2 38.4 38.4 38.4s38.4-19.2 38.4-38.4V512h153.6c19.2 0 38.4-19.2 38.4-38.4s-12.8-38.4-32-38.4z" p-id="9637" fill="#bfbfbf"></path></svg>