<?xml version="1.0" standalone="no"?><!DOCTYPE svg PUBLIC "-//W3C//DTD SVG 1.1//EN" "http://www.w3.org/Graphics/SVG/1.1/DTD/svg11.dtd"><svg t="1670088750054" class="icon" viewBox="0 0 1024 1024" version="1.1" xmlns="http://www.w3.org/2000/svg" p-id="43017" xmlns:xlink="http://www.w3.org/1999/xlink" width="200" height="200"><path d="M371.626667 504.32a42.666667 42.666667 0 0 0-60.586667 0l-82.773333 83.2a42.666667 42.666667 0 0 0 0 60.16l85.333333 83.2a42.666667 42.666667 0 0 0 60.16 0 42.666667 42.666667 0 0 0 0-60.16l-57.6-50.773333 55.466667-55.466667a42.666667 42.666667 0 0 0 0-60.16zM715.093333 504.32a42.666667 42.666667 0 1 0-60.16 60.16l52.906667 52.906667-55.466667 55.466666a42.666667 42.666667 0 0 0 0 60.16 42.666667 42.666667 0 0 0 60.586667 0l82.773333-83.2a42.666667 42.666667 0 0 0 0-60.16zM586.666667 489.386667a42.666667 42.666667 0 0 0-58.453334 15.36l-106.666666 185.173333a42.666667 42.666667 0 0 0 15.786666 58.026667 42.666667 42.666667 0 0 0 58.453334-15.36l106.666666-185.173334a42.666667 42.666667 0 0 0-15.786666-58.026666z" fill="#bfbfbf" p-id="43018"></path><path d="M725.333333 85.333333H298.666667a213.333333 213.333333 0 0 0-213.333334 213.333334v426.666666a213.333333 213.333333 0 0 0 213.333334 213.333334h426.666666a213.333333 213.333333 0 0 0 213.333334-213.333334V298.666667a213.333333 213.333333 0 0 0-213.333334-213.333334zM298.666667 170.666667h426.666666a128 128 0 0 1 128 128H170.666667a128 128 0 0 1 128-128z m426.666666 682.666666H298.666667a128 128 0 0 1-128-128V384h682.666666v341.333333a128 128 0 0 1-128 128z" fill="#bfbfbf" p-id="43019"></path></svg>