<?xml version="1.0" standalone="no"?><!DOCTYPE svg PUBLIC "-//W3C//DTD SVG 1.1//EN" "http://www.w3.org/Graphics/SVG/1.1/DTD/svg11.dtd"><svg t="1670089040903" class="icon" viewBox="0 0 1024 1024" version="1.1" xmlns="http://www.w3.org/2000/svg" p-id="45056" xmlns:xlink="http://www.w3.org/1999/xlink" width="200" height="200"><path d="M853.509 907.894H173.673c-53.805 0-97.578-43.773-97.578-97.577V342.332h60v467.985c0 20.72 16.857 37.577 37.578 37.577h679.835c20.721 0 37.578-16.857 37.578-37.577V352.333c0-20.72-16.857-37.578-37.578-37.578H106.096v-60h747.413c53.805 0 97.578 43.773 97.578 97.578v457.983c0 53.804-43.774 97.578-97.578 97.578z" p-id="45057" fill="#bfbfbf"></path><path d="M136.109 347.017h-60v-148.67c0-38.9 31.647-70.547 70.547-70.547H376.42c38.9 0 70.547 31.647 70.547 70.547v77.183h-60v-77.183c0-5.815-4.731-10.547-10.547-10.547H146.656c-5.815 0-10.547 4.731-10.547 10.547v148.67zM703.029 524.934l-39.189-4.808a154.624 154.624 0 0 0-12.301-30.607l24.328-31.13c5.875-7.52 4.322-19.362-3.16-26.845l-25.334-25.335c-7.484-7.483-19.328-9.037-26.846-3.16l-30.246 23.636a155.017 155.017 0 0 0-31.348-13.404l-4.672-38.078c-1.158-9.471-10.631-16.747-21.215-16.747h-35.83c-10.584 0-20.056 7.276-21.218 16.747l-4.561 37.198a154.982 154.982 0 0 0-32.318 13.15l-29.665-23.184c-7.519-5.877-19.363-4.324-26.846 3.161l-25.334 25.335c-7.483 7.483-9.037 19.325-3.161 26.845l23.008 29.438a155.082 155.082 0 0 0-13.37 32.228l-37.483 4.597c-9.473 1.161-16.748 10.633-16.748 21.215v35.832c-0.001 10.583 7.275 20.053 16.748 21.216l37.78 4.633a155.019 155.019 0 0 0 13.195 31.446l-23.811 30.466c-5.876 7.52-4.322 19.362 3.161 26.843l25.335 25.338c7.484 7.485 19.326 9.036 26.845 3.158l30.884-24.136a155.414 155.414 0 0 0 30.537 12.503l4.841 39.479c1.162 9.474 10.633 16.75 21.217 16.75h35.83c10.584 0 20.055-7.276 21.219-16.75l4.877-39.779a155.152 155.152 0 0 0 29.76-12.317l31.904 24.934c7.521 5.878 19.363 4.322 26.844-3.162l25.338-25.332c7.486-7.487 9.037-19.328 3.16-26.847l-24.76-31.679a155.069 155.069 0 0 0 12.531-29.669l40.072-4.915c9.475-1.161 16.75-10.635 16.748-21.216l0.002-35.829c0.002-10.587-7.273-20.06-16.748-21.219z m-188.375 146.2c-59.401 0-107.553-48.152-107.553-107.551 0-59.397 48.151-107.548 107.553-107.548 59.398 0 107.547 48.15 107.547 107.548s-48.148 107.551-107.547 107.551z" p-id="45058" fill="#bfbfbf"></path><path d="M514.65 564.734m-45.948 0a45.948 45.948 0 1 0 91.896 0 45.948 45.948 0 1 0-91.896 0Z" p-id="45059" fill="#bfbfbf"></path></svg>