<?xml version="1.0" standalone="no"?><!DOCTYPE svg PUBLIC "-//W3C//DTD SVG 1.1//EN" "http://www.w3.org/Graphics/SVG/1.1/DTD/svg11.dtd"><svg t="1670087942147" class="icon" viewBox="0 0 1024 1024" version="1.1" xmlns="http://www.w3.org/2000/svg" p-id="37500" xmlns:xlink="http://www.w3.org/1999/xlink" width="200" height="200"><path d="M800.529 853.171c16.521 0 29.914 13.393 29.914 29.915 0 16.52-13.393 29.914-29.914 29.914H163.77c-16.521 0-29.914-13.393-29.914-29.914 0-16.522 13.393-29.915 29.914-29.915h636.759zM784.464 80C863.184 80 927 143.875 927 222.669v375.08c0 78.793-63.816 142.668-142.536 142.668H177.536C98.816 740.417 35 676.542 35 597.75v-375.08C35 143.875 98.816 80 177.536 80h606.928z m-90.181 152.253l-0.39 0.416-160.43 174.128-110.091-83.862-0.393-0.294c-12.863-9.494-29.72-7.109-40.246 5.695l-0.317 0.391-159.56 199.719-0.356 0.453c-11.52 14.898-10.787 37.753 1.659 51.612l0.38 0.417 0.39 0.414c12.824 13.384 32.497 12.531 44.425-1.927l0.36-0.443L410.9 402.25l108.507 82.656 0.37 0.279c12.157 8.986 27.996 7.408 38.657-3.854l0.322-0.344 178.78-194.045 0.383-0.423c12.53-14.048 13.084-37.228 1.153-52.065-11.932-14.837-31.876-15.768-44.79-2.2z" fill="#bfbfbf" p-id="37501"></path></svg>