<?xml version="1.0" standalone="no"?><!DOCTYPE svg PUBLIC "-//W3C//DTD SVG 1.1//EN" "http://www.w3.org/Graphics/SVG/1.1/DTD/svg11.dtd"><svg t="1670828135189" class="icon" viewBox="0 0 1031 1024" version="1.1" xmlns="http://www.w3.org/2000/svg" p-id="4934" xmlns:xlink="http://www.w3.org/1999/xlink" width="201.3671875" height="200"><path d="M825.6 851.2l-112-70.4-147.2 0c-44.8 0-80-35.2-80-80 0-9.6 6.4-16 16-16 9.6 0 16 6.4 16 16 0 25.6 22.4 48 48 48l156.8 0 99.2 60.8 57.6-60.8 73.6 0c25.6 0 48-22.4 48-48L1001.6 480c0-25.6-22.4-48-48-48l-140.8 0c-9.6 0-16-6.4-16-16s6.4-16 16-16l140.8 0C995.2 400 1030.4 435.2 1030.4 480l0 224c0 44.8-35.2 80-80 80l-57.6 0L825.6 851.2z" p-id="4935" fill="#dbdbdb"></path><path d="M870.4 624c-25.6 0-48-22.4-48-48s22.4-48 48-48 48 22.4 48 48S896 624 870.4 624zM870.4 560c-9.6 0-16 6.4-16 16s6.4 16 16 16 16-6.4 16-16S880 560 870.4 560z" p-id="4936" fill="#dbdbdb"></path><path d="M688 179.2c35.2 0 67.2 28.8 67.2 67.2l0 342.4c0 35.2-28.8 67.2-67.2 67.2l-233.6 0-9.6 0-6.4 6.4-140.8 86.4-76.8-80-9.6-9.6-12.8 0-102.4 0c-35.2 0-67.2-28.8-67.2-67.2L28.8 243.2c0-35.2 28.8-67.2 67.2-67.2L688 176M688 147.2 99.2 147.2c-54.4 0-99.2 44.8-99.2 99.2l0 342.4c0 54.4 44.8 99.2 99.2 99.2l102.4 0 92.8 99.2 160-99.2 233.6 0c54.4 0 99.2-44.8 99.2-99.2L787.2 243.2C787.2 188.8 742.4 147.2 688 147.2L688 147.2z" p-id="4937" fill="#dbdbdb"></path><path d="M540.8 374.4c9.6 0 16 6.4 16 16S550.4 409.6 540.8 409.6s-16-6.4-16-16S531.2 374.4 540.8 374.4M540.8 342.4c-25.6 0-48 22.4-48 48s22.4 48 48 48 48-22.4 48-48S566.4 342.4 540.8 342.4L540.8 342.4z" p-id="4938" fill="#dbdbdb"></path><path d="M393.6 374.4c9.6 0 16 6.4 16 16s-6.4 16-16 16-16-6.4-16-16S384 374.4 393.6 374.4M393.6 342.4c-25.6 0-48 22.4-48 48s22.4 48 48 48 48-22.4 48-48S419.2 342.4 393.6 342.4L393.6 342.4z" p-id="4939" fill="#dbdbdb"></path><path d="M246.4 374.4c9.6 0 16 6.4 16 16s-6.4 16-16 16S230.4 400 230.4 390.4 236.8 374.4 246.4 374.4M246.4 342.4c-25.6 0-48 22.4-48 48s22.4 48 48 48c25.6 0 48-22.4 48-48S272 342.4 246.4 342.4L246.4 342.4z" p-id="4940" fill="#dbdbdb"></path></svg>