<?xml version="1.0" standalone="no"?><!DOCTYPE svg PUBLIC "-//W3C//DTD SVG 1.1//EN" "http://www.w3.org/Graphics/SVG/1.1/DTD/svg11.dtd"><svg t="1752853531115" class="icon" viewBox="0 0 1024 1024" version="1.1" xmlns="http://www.w3.org/2000/svg" p-id="8286" xmlns:xlink="http://www.w3.org/1999/xlink" width="200" height="200"><path d="M1022.388864 943.786667c-30.293333-155.306667-122.88-287.573333-257.28-363.946667-14.08-6.826667-22.186667-13.226667-46.506667-23.04-27.733333-11.093333-55.04-19.2-82.773333-25.6-37.546667 17.92-79.36 27.733333-123.733333 27.733333-46.506667 0-90.453333-11.093333-129.706667-30.72C192.095531 579.413333 41.908864 738.986667 1.802197 943.786667c-4.693333 18.346667 0 37.12 11.52 53.333333 11.52 14.08 30.293333 23.04 48.64 23.04h897.706667c18.346667 0 37.12-9.386667 48.64-23.04 14.08-16.213333 18.773333-34.56 14.08-53.333333z" fill="#303030" p-id="8287"></path><path d="M427.615531 518.4c26.88 8.96 54.613333 15.36 84.48 15.36 26.453333 0 51.2-5.12 75.52-12.373333 109.653333-32.853333 191.573333-134.4 191.573333-254.293334C778.762197 120.746667 658.015531 0 512.095531 0S245.428864 120.746667 245.428864 266.666667c0 116.48 77.226667 215.893333 182.186667 251.733333z m-37.12-205.653333c16.213333-15.36 42.24-14.506667 57.6 1.706666 9.813333 10.24 41.813333 36.266667 72.96 34.986667 18.773333-0.853333 36.266667-11.52 53.333333-32.426667 14.08-17.493333 39.68-20.053333 57.6-5.973333 17.493333 14.08 20.053333 39.68 5.973333 57.6-40.533333 49.92-84.48 61.866667-113.92 62.72h-5.12c-71.253333 0-124.16-54.613333-130.133333-60.586667-15.786667-16.64-14.933333-42.666667 1.706667-58.026666z" fill="#303030" p-id="8288"></path></svg>