<?xml version="1.0" standalone="no"?><!DOCTYPE svg PUBLIC "-//W3C//DTD SVG 1.1//EN" "http://www.w3.org/Graphics/SVG/1.1/DTD/svg11.dtd"><svg t="1670087032347" class="icon" viewBox="0 0 1131 1024" version="1.1" xmlns="http://www.w3.org/2000/svg" p-id="30492" xmlns:xlink="http://www.w3.org/1999/xlink" width="220.8984375" height="200"><path d="M745.427267 506.826105a323.476211 323.476211 0 0 0-160.768 467.375158L3.296741 972.584421A485.214316 485.214316 0 0 1 301.873583 466.997895a269.473684 269.473684 0 1 1 366.645895 0c26.947368 11.048421 52.655158 24.414316 76.961684 39.882105z m-62.194526 65.320421c24.414316-21.557895 53.140211-38.265263 84.776421-48.666947 17.785263 22.204632 45.109895 36.432842 75.776 36.432842s57.990737-14.228211 75.776-36.432842a242.256842 242.256842 0 0 1 85.908211 49.690947 96.848842 96.848842 0 0 0 6.359579 83.752421c15.306105 26.570105 41.283368 43.115789 69.416421 47.427369a243.604211 243.604211 0 0 1 0.053894 98.896842 96.848842 96.848842 0 0 0-69.52421 47.427368 96.848842 96.848842 0 0 0-6.25179 83.968c-24.737684 22.204632-54.056421 39.343158-86.393263 49.906527a96.848842 96.848842 0 0 0-75.883789-36.594527c-30.558316 0-57.882947 14.174316-75.668211 36.325053a242.364632 242.364632 0 0 1-89.249684-53.032421 96.794947 96.794947 0 0 0-6.898526-82.458947c-14.551579-25.330526-38.804211-41.498947-65.374316-46.726737a243.658105 243.658105 0 0 1 1.401263-102.777263 96.794947 96.794947 0 0 0 68.015158-47.157895c14.605474-25.276632 16.545684-54.379789 7.760842-79.97979z m160.606316 278.797474a97.010526 97.010526 0 1 0 0-194.021053 97.010526 97.010526 0 0 0 0 194.021053z" fill="#bfbfbf" p-id="30493"></path></svg>