<?xml version="1.0" standalone="no"?><!DOCTYPE svg PUBLIC "-//W3C//DTD SVG 1.1//EN" "http://www.w3.org/Graphics/SVG/1.1/DTD/svg11.dtd"><svg t="1752852971891" class="icon" viewBox="0 0 1024 1024" version="1.1" xmlns="http://www.w3.org/2000/svg" p-id="21549" xmlns:xlink="http://www.w3.org/1999/xlink" width="200" height="200"><path d="M750.250667 668.288a100.394667 100.394667 0 0 0-100.266667 100.309333 100.437333 100.437333 0 0 0 100.266667 100.309334 100.437333 100.437333 0 0 0 100.266666-100.309334 100.437333 100.437333 0 0 0-100.266666-100.266666z m0 148.906667a48.64 48.64 0 1 1 48.64-48.64c0 26.88-21.845333 48.64-48.64 48.64z m265.173333-100.992c-3.754667-19.882667-16.512-32.725333-32.853333-32.725334h-2.304a56.832 56.832 0 0 1-56.746667-56.746666c0-8.234667 3.541333-18.346667 4.906667-21.504 7.765333-17.450667 1.792-38.869333-15.402667-50.773334l-66.432-36.778666a44.8 44.8 0 0 0-48.512 9.685333c-8.234667 8.533333-30.208 26.112-45.354667 26.112-15.274667 0-37.376-17.92-45.653333-26.624a44.757333 44.757333 0 0 0-48.426667-10.069333l-1.237333 0.512-67.584 37.12-1.578667 1.024a41.130667 41.130667 0 0 0-14.037333 49.621333c0.554667 1.28 5.034667 12.245333 5.034667 21.674667 0 31.274667-25.472 56.746667-56.746667 56.746666h-2.688c-15.957333 0-28.714667 12.842667-32.469333 32.725334a335.744 335.744 0 0 0-5.632 52.736c0 22.186667 5.034667 49.664 5.632 52.736 3.754667 19.882667 16.512 32.725333 32.853333 32.725333h2.261333c31.317333 0 56.789333 25.472 56.789334 56.746667 0 8.234667-3.584 18.346667-4.949334 21.504-7.722667 17.408-1.792 38.826667 15.36 50.773333l65.152 36.309333a44.074667 44.074667 0 0 0 48.810667-10.24c8.064-8.704 30.848-27.776 46.378667-27.776 15.744 0 38.272 19.114667 46.677333 28.330667 7.936 8.704 20.010667 13.909333 32.341333 13.909333a42.666667 42.666667 0 0 0 18.090667-4.096l65.834667-36.394666 1.578666-1.024a41.088 41.088 0 0 0 13.994667-49.621334 65.578667 65.578667 0 0 1-5.034667-21.674666c0-31.274667 25.472-56.746667 56.789334-56.746667h2.602666c16 0 28.757333-12.842667 32.512-32.682667 0.042667-0.256 5.632-29.44 5.632-52.778666 0-22.186667-5.034667-49.664-5.589333-52.736z m-49.365333 87.424a108.373333 108.373333 0 0 0-94.250667 107.52c0 12.672 3.072 24.704 5.76 32.853333l-47.530667 26.24c-4.266667-4.181333-11.093333-10.453333-19.541333-16.725333-21.034667-15.573333-41.386667-23.466667-60.458667-23.466667-18.986667 0-39.168 7.722667-60.032 23.04a191.189333 191.189333 0 0 0-19.413333 16.426667l-45.44-25.429334c2.688-8.149333 5.76-20.266667 5.76-32.938666a108.373333 108.373333 0 0 0-94.208-107.52 251.818667 251.818667 0 0 1-3.285333-34.688c0-11.477333 1.877333-25.856 3.285333-34.688a108.416 108.416 0 0 0 94.208-107.52c0-12.629333-3.029333-24.661333-5.717333-32.810667l49.066666-26.88c4.266667 3.968 11.093333 9.984 19.456 15.957333 20.608 14.677333 40.448 22.186667 59.008 22.186667 18.346667 0 38.058667-7.338667 58.538667-21.76a186.453333 186.453333 0 0 0 19.328-15.658667l46.976 26.069334a108.032 108.032 0 0 0-5.76 32.853333 108.373333 108.373333 0 0 0 94.250667 107.562667c1.365333 9.002667 3.285333 23.381333 3.285333 34.688 0 11.392-1.877333 25.728-3.285333 34.688z m-896 146.858666v-56.789333c0-193.152 148.906667-352.298667 338.645333-370.218667l-0.085333-0.042666h0.512a377.173333 377.173333 0 0 1 35.285333-1.706667l5.376 0.128c41.941333-3.285333 105.429333-13.141333 138.666667-42.752l16.213333-12.672a256.426667 256.426667 0 0 0 99.84-203.050667c0-142.421333-116.693333-258.304-260.138667-258.304-143.445333 0-260.096 115.882667-260.096 258.304a256.426667 256.426667 0 0 0 99.84 203.093334l16.213334 12.629333-19.114667 7.594667C112.213333 553.813333 2.986667 713.557333 2.986667 893.696v90.026667c0 18.346667 14.976 33.237333 33.493333 33.237333h489.770667c-15.957333-20.437333-29.568-42.666667-40.533334-66.474667H69.973333zM251.306667 263.381333c0-105.813333 86.613333-191.872 193.066666-191.872 106.453333 0 193.109333 86.101333 193.109334 191.872 0 105.813333-86.613333 191.872-193.109334 191.872-106.453333 0-193.066667-86.058667-193.066666-191.872z" fill="#000000" fill-opacity=".65" p-id="21550"></path></svg>