<?xml version="1.0" standalone="no"?><!DOCTYPE svg PUBLIC "-//W3C//DTD SVG 1.1//EN" "http://www.w3.org/Graphics/SVG/1.1/DTD/svg11.dtd"><svg t="1752853329315" class="icon" viewBox="0 0 1024 1024" version="1.1" xmlns="http://www.w3.org/2000/svg" p-id="7930" xmlns:xlink="http://www.w3.org/1999/xlink" width="200" height="200"><path d="M269.4 253.2c0 74.7 39.9 143.8 104.6 181.2 64.7 37.4 144.5 37.4 209.2 0C647.9 397 687.8 328 687.8 253.2 687.8 137.6 594.2 44 478.6 44c-115.5 0-209.2 93.6-209.2 209.2z m264.8 509.3c0-91.5 34.8-174.1 90.5-236.5-47.4-15.6-97-23.6-147-23.7-126.7 0-248.2 50.3-337.8 139.9C50.3 731.8 0 853.3 0 980h609.6c-48.7-62.1-75.2-138.6-75.4-217.5z m0 0M1023.8 801l0.2-79.7s-52.6-10.4-53.5-13.9c-1-3.9-2.1-7.7-3.2-11.5 6.2-11.4 35.8-36.5 35.8-36.5l-59.4-79.1s-38.5 31.7-48 36.2c-4.6-1.8-9.3-3.4-14.1-4.7-5.2-1.3-19.5-52-19.5-52l-79.8-0.6s-8.6 49.1-21.6 52.5c-4.3 1.3-8.6 2.9-12.9 4.9-9.6-4.7-48-36.8-48-36.8l-59.4 80.3s29.8 30 31.8 40c-1.3 3.2-2.5 6.4-3.5 9.6-16.2 4.6-32.6 8.5-49.1 11.6l0.1 79.7s42.3 8.8 50.3 15.9c1.6 4.6 3.6 9.1 5.6 13.4-9.8 12.2-35.8 32.5-35.8 32.5l61.2 79.7s48.1-31.1 56-32.9c4 1.7 7.9 3.3 12 4.7 7.3 2.5 12.4 48.9 12.4 48.9l79.8 0.2s2.7-45.6 8.5-47.4c5.8-1.8 11.4-3.9 17-6.3 6.7 2.6 38.2 34.1 38.2 34.1l78.9-80.3s-29.2-20.2-37.4-31.1c2.2-4.5 4.2-9.2 6-13.9 2.7-7.4 51.4-17.5 51.4-17.5m-203 60.4c-36 0-69.2-19.2-87.2-50.3-18-31.2-18-69.5 0-100.7 18-31.2 51.2-50.3 87.2-50.3 55.6 0 100.7 45.1 100.7 100.7s-45.1 100.6-100.7 100.6" fill="#2c2c2c" p-id="7931"></path></svg>