<?xml version="1.0" standalone="no"?><!DOCTYPE svg PUBLIC "-//W3C//DTD SVG 1.1//EN" "http://www.w3.org/Graphics/SVG/1.1/DTD/svg11.dtd"><svg t="1685417609223" class="icon" viewBox="0 0 1025 1024" version="1.1" xmlns="http://www.w3.org/2000/svg" p-id="26954" xmlns:xlink="http://www.w3.org/1999/xlink" width="200.1953125" height="200"><path d="M251.455036 342.395086a337.405755 258.885322 90 1 0 517.770643 0 337.405755 258.885322 90 1 0-517.770643 0Z" fill="#595758" p-id="26955"></path><path d="M219.908164 342.395086a67.806668 41.45392 90 1 0 82.90784 0 67.806668 41.45392 90 1 0-82.90784 0Z" fill="#595758" p-id="26956"></path><path d="M715.982371 342.395086a67.806668 41.45392 90 1 0 82.907841 0 67.806668 41.45392 90 1 0-82.907841 0Z" fill="#595758" p-id="26957"></path><path d="M0 1024s37.802465-174.732024 340.660928-276.265115l169.693582 90.960855 160.989533-90.960855S864.064436 806.611057 1020.694867 1024H0z" fill="#595758" p-id="26958"></path></svg>