<?xml version="1.0" standalone="no"?><!DOCTYPE svg PUBLIC "-//W3C//DTD SVG 1.1//EN" "http://www.w3.org/Graphics/SVG/1.1/DTD/svg11.dtd"><svg t="1670089186821" class="icon" viewBox="0 0 1024 1024" version="1.1" xmlns="http://www.w3.org/2000/svg" p-id="47269" xmlns:xlink="http://www.w3.org/1999/xlink" width="200" height="200"><path d="M885.3 267.9L780.1 162.6l-98.3-98.3c-0.2-0.2-0.4-0.3-0.7-0.3H150c-11 0-20 9-20 20v856c0 11 9 20 20 20h724c11 0 20-9 20-20V277c0-0.3-0.1-0.5-0.3-0.7l-8.4-8.4zM671.1 140.5c0-0.9 1.1-1.3 1.7-0.7l66.4 66.4 79 79.1c0.6 0.6 0.2 1.7-0.7 1.7H672.1c-0.5 0-1-0.4-1-1V140.5zM189.7 899.3V124.7c0-0.5 0.4-1 1-1h419.7c0.5 0 1 0.4 1 1v219c0 0.5 0.4 1 1 1 0.5 0 1 0.4 1 1 0 0.5 0.4 1 1 1h218.9c0.5 0 1 0.4 1 1v551.5c0 0.5-0.4 1-1 1H190.7c-0.6 0.1-1-0.4-1-0.9z" fill="#bfbfbf" p-id="47270"></path><path d="M535.2 659.5l123-276.1c0.3-0.7-0.2-1.4-0.9-1.4h-44.4c-0.4 0-0.8 0.2-0.9 0.6L519.7 599c-3.9 8.6-6.5 17.1-7.6 25.3H511c-1.5-9.5-3.7-17.8-6.8-25l-90.6-216.8c-0.2-0.4-0.5-0.6-0.9-0.6h-46.2c-0.7 0-1.2 0.7-0.9 1.4l120.7 276.1c0.2 0.4 0.5 0.6 0.9 0.6h47c0.5 0.1 0.9-0.2 1-0.5zM345.7 791.9h332.5c0.5 0 1-0.4 1-1v-57.7c0-0.5-0.4-1-1-1H345.7c-0.5 0-1 0.4-1 1v57.7c0 0.5 0.5 1 1 1z" fill="#bfbfbf" p-id="47271"></path></svg>