<?xml version="1.0" standalone="no"?><!DOCTYPE svg PUBLIC "-//W3C//DTD SVG 1.1//EN" "http://www.w3.org/Graphics/SVG/1.1/DTD/svg11.dtd"><svg t="1670433330101" class="icon" viewBox="0 0 1024 1024" version="1.1" xmlns="http://www.w3.org/2000/svg" p-id="7052" xmlns:xlink="http://www.w3.org/1999/xlink" width="200" height="200"><path d="M775.372393 578.60576q-32.540218 0-54.403178 22.879841t-21.862959 57.453823l0 270.490566q-38.641509 14.236346-79.316783 21.354518t-84.401192 7.118173q-99.654419 0-186.597815-37.624628t-152.023833-102.196624-102.705065-152.023833-37.624628-187.106256q0-98.637537 37.624628-186.089374t102.705065-152.532274 152.023833-102.705065 186.597815-37.624628q98.637537 0 186.089374 37.624628t152.532274 102.705065 102.705065 152.532274 37.624628 186.089374q0 26.438928-2.542205 51.352532t-7.626614 48.301887l-228.798411 0zM620.806356 611.145978q3.050645-4.067527-3.050645-10.168818t-14.236346-13.727905-14.236346-15.253227-4.067527-15.761668q5.084409-16.270109 10.677259-28.472691t6.101291-20.337637-7.118173-12.202582-28.981132-4.067527q-11.1857 0-18.812314 1.016882t-13.727905 1.525323-12.711023 1.016882-15.761668-0.508441q-14.236346-1.016882-21.862959-5.084409t-14.744786-8.135055-17.286991-7.626614-29.489573-4.575968q-27.455809-1.016882-39.14995-2.033764t-16.77855-2.542205-8.135055-2.033764-12.202582-0.508441-32.540218 8.135055-47.285005 19.320755-42.200596 22.3714-18.303873 18.303873q0 41.692155 8.643496 66.097319t19.829196 35.590864q5.084409 5.084409 13.727905 6.609732t18.812314 2.542205 18.812314 2.542205 13.727905 7.626614q10.168818 12.202582 24.913605 9.660377t28.472691-6.609732 23.896723-3.050645 11.1857 19.320755q0 8.135055 3.050645 12.202582t7.626614 6.609732 11.694141 6.101291 15.253227 10.677259q9.151936 8.135055 6.609732 15.253227t-8.135055 13.727905-10.168818 14.236346 0.508441 14.744786q7.118173 11.1857 15.253227 16.270109t15.761668 9.151936 13.727905 8.643496 8.135055 14.744786q1.016882 3.050645 8.135055 11.694141t13.727905 17.286991 10.677259 15.253227-2.033764 4.575968q12.202582 3.050645 25.930487 3.050645t17.795432-6.101291q2.033764-4.067527 2.033764-3.050645t3.050645 0 15.253227-9.151936 16.270109-21.862959 4.067527-29.489573-1.525323-32.031778 0.508441-30.506455q2.033764-13.219464 6.609732-19.320755t8.135055-10.677259 6.101291-12.711023-0.508441-26.438928q-3.050645-23.388282 6.101291-33.5571t14.236346-18.303873zM738.764647 460.647468q-8.135055 0-3.050645 4.575968t15.761668 8.643496 22.879841 5.084409 20.337637-5.084409q7.118173-7.118173 23.896723-11.1857t34.065541-9.660377 30.506455-15.253227 15.253227-27.96425q1.016882-18.303873-0.508441-34.065541t-6.609732-31.523337-13.727905-32.540218-21.862959-38.133069q-14.236346-22.3714-25.930487-37.116187t-22.879841-25.422046-23.388282-19.320755-28.472691-18.812314q-15.253227-9.151936-31.523337-19.829196t-34.573982-14.236346-39.658391 4.575968-47.793446 35.590864q-8.135055 8.135055-18.812314 18.303873t-22.879841 19.829196-23.896723 15.761668-19.829196 6.101291-25.930487 4.575968-35.082423 15.253227-29.998014 27.96425-11.694141 41.692155q1.016882 27.455809 9.660377 35.590864t22.3714 9.151936 32.540218 2.033764 41.183714 13.219464q25.422046 1.016882 47.793446 5.084409 19.320755 3.050645 39.14995 8.135055t33.048659 13.219464q15.253227 9.151936 12.202582 13.219464t-10.677259 7.118173-12.711023 6.101291 6.101291 11.1857q15.253227 12.202582 22.879841 14.744786t15.761668 1.016882 22.3714-4.575968 43.725919-3.050645zM979.765641 641.652433q17.286991 0 28.472691 11.694141t11.1857 27.96425l0 204.393247q0 7.118173-9.151936 19.320755t-22.3714 23.388282-26.438928 19.829196-21.354518 8.643496l-137.279047 0q-17.286991 0-28.472691-11.1857t-11.1857-27.455809l0-236.933466q0-16.270109 11.1857-27.96425t28.472691-11.694141l176.937438 0zM838.419067 704.699106q-8.135055 0-11.1857 14.236346t-3.050645 22.3714q0 9.151936 3.559086 18.303873t10.677259 9.151936l104.738828 0q4.067527 0 6.609732-4.575968t3.559086-9.660377q1.016882-6.101291 1.016882-14.236346 0-9.151936-2.033764-22.3714t-9.151936-13.219464l-104.738828 0zM953.326713 877.569017q3.050645-12.202582 3.050645-22.3714 0-8.135055-3.559086-15.761668t-13.727905-7.626614l-96.603774 0q-8.135055 0-11.1857 7.626614t-4.067527 15.761668q-1.016882 10.168818 1.016882 22.3714 0 8.135055 6.101291 14.236346t12.202582 6.101291l89.485601 0q8.135055 0 12.711023-6.101291t4.575968-14.236346z" p-id="7053" fill="#8a8a8a"></path></svg>