<?xml version="1.0" standalone="no"?><!DOCTYPE svg PUBLIC "-//W3C//DTD SVG 1.1//EN" "http://www.w3.org/Graphics/SVG/1.1/DTD/svg11.dtd"><svg t="1670433623781" class="icon" viewBox="0 0 1024 1024" version="1.1" xmlns="http://www.w3.org/2000/svg" p-id="7519" xmlns:xlink="http://www.w3.org/1999/xlink" width="200" height="200"><path d="M485.508458 795.765174q1.018905 1.018905 1.018905 2.037811-1.018905 0-3.056716 2.037811 2.037811-2.037811 2.037811-4.075622zM487.546269 770.292537q0 4.075622 1.018905 7.132338l2.037811 6.113433q-1.018905 4.075622-5.094527 12.226866-10.189055-17.321393 0-24.453731zM483.470647 799.840796q-2.037811 5.094527-5.60398 11.20796t-6.622886 11.20796q-3.056716-3.056716-4.075622-10.189055 4.075622-3.056716 7.641791-6.113433t8.660697-6.113433zM513.018905 799.840796q9.170149-2.037811 17.321393 1.018905 7.132338 2.037811 14.264677 8.660697t12.226866 20.887562q8.151244 21.397015 1.528358 41.265672t-19.868657 31.076617q-10.189055 8.151244-12.736318 14.774129t-0.509453 11.717413q1.018905 6.113433 5.094527 13.245771t9.170149 15.283582l-4.075622 0q-98.833831 0-185.950249-37.699502t-152.326368-102.4-102.909453-151.816915-37.699502-186.969154q0-98.833831 37.699502-185.950249t102.909453-152.326368 152.326368-102.909453 185.950249-37.699502 186.459701 37.699502 152.326368 102.909453 102.4 152.326368 37.699502 185.950249l0 15.283582q0 7.132338-1.018905 15.283582-4.075622-2.037811-7.641791-4.075622t-6.622886-4.075622q-6.113433-2.037811-13.755224 0.509453t-12.736318 6.622886q-8.151244 8.151244-15.793035 9.679602t-16.302488-1.018905-18.340299-7.132338-20.887562-9.679602q-22.41592-9.170149-38.208955-16.81194t-14.774129-28.0199q0-6.113433-2.547264-13.245771t-10.698507-11.20796q-6.113433-3.056716-17.830846-5.60398t-24.963184-3.056716-25.98209 2.037811-20.887562 9.679602q-3.056716 4.075622-4.075622 9.170149l-2.037811 10.189055q-2.037811 8.151244-7.132338 20.378109t-27.510448 21.397015q-11.20796 4.075622-20.378109 10.189055t-16.81194 10.189055-15.283582 4.075622-15.793035-8.151244q-9.170149-9.170149-20.378109-8.151244-8.151244 1.018905-16.81194 6.622886t-16.81194 13.245771-15.283582 16.81194-10.189055 17.321393q-1.018905 1.018905-1.018905 3.056716-1.018905-2.037811-1.018905-5.094527t-1.018905-7.132338q-2.037811-21.397015-16.302488-36.680597t-32.604975-17.321393q-14.264677-1.018905-21.906468-5.094527t-14.774129-8.151244-16.81194-7.641791-29.038806-4.585075q-27.510448-1.018905-39.227861-2.547264t-16.81194-2.547264-8.151244-2.037811-12.226866 0q-9.170149 0-32.604975 8.151244t-47.379104 18.849751-42.284577 22.41592-18.340299 18.849751q0 40.756219 8.660697 65.719403t18.849751 35.152239q5.094527 5.094527 13.755224 6.622886t18.849751 2.547264 18.849751 2.547264 13.755224 7.641791q11.20796 12.226866 25.98209 10.189055t28.529353-6.622886 23.434826-3.566169 10.698507 19.359204q0 8.151244 3.056716 12.226866t8.151244 6.113433l12.226866 6.113433q7.132338 4.075622 15.283582 11.20796 8.151244 8.151244 5.60398 15.283582t-8.151244 13.755224-10.189055 14.264677 0.509453 14.774129q7.132338 11.20796 15.283582 16.302488t15.793035 8.660697 13.245771 8.151244 8.660697 14.774129q0 1.018905 1.018905 1.018905-14.264677 10.189055-15.283582 23.434826-2.037811 11.20796 4.585075 5.60398t14.774129-18.849751q1.018905 2.037811 3.056716 0 1.018905-1.018905 1.018905-3.056716 1.018905 1.018905 10.698507 8.660697t20.887562 15.283582 21.397015 12.736318 12.226866 2.037811q1.018905-2.037811-4.585075-8.151244t-14.264677-14.774129-18.849751-18.340299-16.302488-18.849751q6.113433-3.056716 9.170149-6.113433 8.151244 7.132338 17.321393 8.151244zM516.075622 239.442786q-8.151244 0-25.472637 4.585075t-35.152239 15.283582-30.567164 27.510448-11.717413 41.265672q1.018905 27.510448 9.679602 35.661692t22.41592 9.170149 32.604975 2.037811 41.265672 13.245771q25.472637 2.037811 47.888557 6.113433 19.359204 3.056716 39.227861 7.641791t33.114428 12.736318q15.283582 9.170149 10.698507 14.774129t-13.755224 9.170149-16.302488 8.151244 4.075622 12.736318q15.283582 11.20796 19.359204 10.698507t8.660697-6.113433 15.793035-12.226866 40.756219-6.622886q-8.151244 0-4.585075-3.566169t12.226866-8.660697 19.359204-12.226866 18.849751-13.245771q5.094527-5.094527 17.321393-3.056716t28.0199 6.113433 33.114428 9.170149 31.58607 7.132338 23.434826-1.528358 10.189055-15.793035q1.018905-18.340299-0.509453-34.133333t-6.622886-31.076617-13.755224-32.095522-21.906468-38.208955q-14.264677-22.41592-25.472637-37.699502t-22.41592-25.98209-23.434826-19.359204-28.529353-17.830846-32.095522-19.868657-34.133333-14.264677-39.737313 4.585075-47.888557 35.661692q-8.151244 7.132338-18.849751 17.830846t-22.925373 19.868657-23.944279 15.793035-19.868657 6.622886zM558.869652 587.908458l12.226866 12.226866q4.075622 4.075622 4.585075 8.151244t-1.528358 10.189055-7.132338 17.321393q-5.094527 13.245771-11.20796 24.963184t-14.264677 19.868657q6.113433-7.132338 9.170149-15.283582 7.132338-22.41592 8.151244-40.756219t-1.018905-38.718408l1.018905 1.018905 0 1.018905zM1015.339303 708.139303q4.075622 8.151244 3.566169 22.41592t-4.585075 26.491542q-2.037811 8.151244-6.622886 10.698507t-8.660697 2.547264q-15.283582-1.018905-29.548259 6.622886t-20.378109 21.906468-3.056716 28.0199 14.264677 24.963184q1.018905 2.037811 3.056716 5.094527 1.018905 2.037811 2.037811 5.60398t0 6.622886q-2.037811 11.20796-15.793035 24.963184t-25.98209 14.774129q-6.113433 1.018905-9.679602-1.018905t-7.641791-5.094527q-8.151244-7.132338-22.41592-13.245771t-28.529353-1.018905q-14.264677 6.113433-21.397015 19.359204t-7.132338 27.510448q0 11.20796-9.170149 16.302488-8.151244 5.094527-25.472637 4.585075t-28.529353-5.60398q-8.151244-3.056716-8.151244-14.264677 0-14.264677-7.132338-28.529353t-21.397015-21.397015q-14.264677-6.113433-30.057711-1.528358t-25.98209 15.793035q-7.132338 7.132338-19.359204 2.037811-11.20796-5.094527-24.453731-18.849751t-15.283582-24.963184q-2.037811-8.151244 8.151244-18.340299 8.151244-7.132338 12.736318-20.378109t-0.509453-27.510448q-3.056716-9.170149-10.189055-14.264677t-15.283582-8.151244q-9.170149-3.056716-19.359204-4.075622-8.151244-2.037811-11.20796-6.113433-8.151244-8.151244-7.641791-28.0199t6.622886-30.057711q6.113433-9.170149 13.245771-8.151244 15.283582 0 30.057711-7.132338t20.887562-21.397015 1.018905-29.548259-15.283582-26.491542q-7.132338-7.132338-2.037811-19.359204 5.094527-11.20796 16.81194-22.41592t21.906468-13.245771q7.132338-1.018905 14.264677 6.113433 10.189055 10.189055 24.963184 13.755224t29.038806-1.528358q7.132338-3.056716 12.736318-9.679602t9.170149-13.245771 5.60398-12.736318 2.037811-9.170149q1.018905-2.037811 1.528358-6.113433t3.566169-6.113433q5.094527-4.075622 13.245771-5.60398t16.81194-1.528358 16.81194 2.037811l12.226866 3.056716q5.094527 2.037811 6.622886 7.132338t1.528358 9.170149q-1.018905 14.264677 6.113433 27.000995t21.397015 18.849751 29.038806 3.056716 24.963184-14.264677q3.056716-2.037811 8.151244-4.075622t9.170149 0q11.20796 5.094527 23.434826 17.321393t14.264677 26.491542q1.018905 4.075622-1.528358 7.641791t-4.585075 5.60398q-11.20796 10.189055-14.774129 24.453731t2.547264 28.529353 20.378109 21.397015 28.529353 7.132338q11.20796-2.037811 16.302488 9.170149zM858.427861 764.179104q11.20796-27.510448 0-55.020896t-37.699502-39.737313q-27.510448-11.20796-55.530348 0t-39.227861 37.699502q-12.226866 27.510448-3.566169 57.568159t38.208955 42.284577l2.037811-3.056716q29.548259 13.245771 56.549254 0.509453t39.227861-40.246766z" p-id="7520"></path></svg>